<?xml version="1.0" encoding="UTF-8"?>
<svg id="Capa_2" data-name="Capa 2" xmlns="http://www.w3.org/2000/svg" xmlns:xlink="http://www.w3.org/1999/xlink" viewBox="0 0 676.38 685.94">
  <defs>
    <style>
      .cls-1 {
        fill: #fff;
      }

      .cls-2 {
        fill: url(#Degradado_sin_nombre_161-5);
      }

      .cls-3 {
        fill: url(#Degradado_sin_nombre_176);
      }

      .cls-4 {
        fill: url(#Degradado_sin_nombre_112-2);
      }

      .cls-5 {
        fill: url(#Degradado_sin_nombre_248);
      }

      .cls-6 {
        fill: url(#Degradado_sin_nombre_161-3);
      }

      .cls-7 {
        fill: url(#Degradado_sin_nombre_161-6);
      }

      .cls-8 {
        fill: #fff07f;
      }

      .cls-8, .cls-9, .cls-10, .cls-11 {
        fill-rule: evenodd;
      }

      .cls-12 {
        fill: url(#Degradado_sin_nombre_131);
      }

      .cls-13 {
        fill: url(#Degradado_sin_nombre_131-2);
      }

      .cls-14 {
        fill: url(#Degradado_sin_nombre_97-2);
      }

      .cls-15 {
        fill: url(#Degradado_sin_nombre_300);
      }

      .cls-16 {
        fill: #dc86b7;
      }

      .cls-17 {
        fill: url(#Degradado_sin_nombre_121);
      }

      .cls-18 {
        fill: url(#Degradado_sin_nombre_161-2);
      }

      .cls-9 {
        fill: url(#Degradado_sin_nombre_1742-2);
      }

      .cls-10 {
        fill: url(#Degradado_sin_nombre_1742);
      }

      .cls-19 {
        fill: url(#Degradado_sin_nombre_161-7);
      }

      .cls-20 {
        fill: url(#Degradado_sin_nombre_161);
      }

      .cls-21 {
        clip-path: url(#clippath);
      }

      .cls-11 {
        fill: url(#Degradado_sin_nombre_21);
      }

      .cls-22 {
        fill: none;
      }

      .cls-23 {
        fill: url(#Degradado_sin_nombre_161-4);
      }

      .cls-24 {
        fill: url(#Degradado_sin_nombre_121-2);
      }

      .cls-25 {
        fill: url(#Degradado_sin_nombre_714-2);
      }

      .cls-26 {
        fill: url(#Degradado_sin_nombre_1077);
      }

      .cls-27 {
        fill: url(#Degradado_sin_nombre_112);
      }

      .cls-28 {
        fill: url(#Degradado_sin_nombre_360);
      }

      .cls-29 {
        fill: url(#Degradado_sin_nombre_161-9);
      }

      .cls-30 {
        fill: url(#Degradado_sin_nombre_714);
      }

      .cls-31 {
        fill: url(#Degradado_sin_nombre_97);
      }

      .cls-32 {
        fill: url(#Degradado_sin_nombre_161-8);
      }
    </style>
    <clipPath id="clippath">
      <rect class="cls-22" width="676.38" height="685.94"/>
    </clipPath>
    <linearGradient id="Degradado_sin_nombre_161" data-name="Degradado sin nombre 161" x1="20.28" y1="95.52" x2="150.94" y2="95.52" gradientTransform="translate(-38.25 -43.22) rotate(-2.3) scale(1.43 1.35) skewX(-4.48)" gradientUnits="userSpaceOnUse">
      <stop offset=".4" stop-color="#fcbe00"/>
      <stop offset=".65" stop-color="#ffd900"/>
    </linearGradient>
    <linearGradient id="Degradado_sin_nombre_1742" data-name="Degradado sin nombre 1742" x1="52.47" y1="93.18" x2="126.55" y2="93.18" gradientTransform="translate(-38.25 -43.22) rotate(-2.3) scale(1.43 1.35) skewX(-4.48)" gradientUnits="userSpaceOnUse">
      <stop offset="0" stop-color="#fff158"/>
      <stop offset=".65" stop-color="#fff69e"/>
    </linearGradient>
    <linearGradient id="Degradado_sin_nombre_161-2" data-name="Degradado sin nombre 161" x1="483.7" y1="544.19" x2="641.1" y2="544.19" gradientTransform="translate(-147.59 -151.02) rotate(1.01) scale(1.4 1.34) skewX(-3.66)" xlink:href="#Degradado_sin_nombre_161"/>
    <linearGradient id="Degradado_sin_nombre_1742-2" data-name="Degradado sin nombre 1742" x1="522.27" y1="541.19" x2="611.5" y2="541.19" gradientTransform="translate(-147.59 -151.02) rotate(1.01) scale(1.4 1.34) skewX(-3.66)" xlink:href="#Degradado_sin_nombre_1742"/>
    <linearGradient id="Degradado_sin_nombre_161-3" data-name="Degradado sin nombre 161" x1="470.52" y1="368.29" x2="518.49" y2="368.29" gradientTransform="translate(-462.09 195.99) rotate(-27.42) scale(.86 1.07) skewX(-.36)" xlink:href="#Degradado_sin_nombre_161"/>
    <linearGradient id="Degradado_sin_nombre_714" data-name="Degradado sin nombre 714" x1="-64.61" y1="1543.92" x2="-1.68" y2="1543.92" gradientTransform="translate(-284.1 -997.09) rotate(-19.99)" gradientUnits="userSpaceOnUse">
      <stop offset="0" stop-color="#009fe3"/>
      <stop offset="1" stop-color="#0068b3"/>
    </linearGradient>
    <linearGradient id="Degradado_sin_nombre_176" data-name="Degradado sin nombre 176" x1="435.58" y1="752.45" x2="497.81" y2="752.45" gradientTransform="translate(134.37 -347.45) rotate(8.7)" gradientUnits="userSpaceOnUse">
      <stop offset="0" stop-color="#e30613"/>
      <stop offset="1" stop-color="#a32523"/>
    </linearGradient>
    <linearGradient id="Degradado_sin_nombre_1077" data-name="Degradado sin nombre 1077" x1="141.95" y1="-472.88" x2="203.16" y2="-472.88" gradientTransform="translate(131.8 695.21) rotate(-1.2)" gradientUnits="userSpaceOnUse">
      <stop offset="0" stop-color="#312783"/>
      <stop offset="1" stop-color="#241e4d"/>
    </linearGradient>
    <linearGradient id="Degradado_sin_nombre_112" data-name="Degradado sin nombre 112" x1="253.81" y1="463.23" x2="319.14" y2="463.23" gradientUnits="userSpaceOnUse">
      <stop offset="0" stop-color="#ec671a"/>
      <stop offset="1" stop-color="#e6332a"/>
    </linearGradient>
    <linearGradient id="Degradado_sin_nombre_112-2" data-name="Degradado sin nombre 112" x1="378.88" y1="463.51" x2="444.21" y2="463.51" xlink:href="#Degradado_sin_nombre_112"/>
    <linearGradient id="Degradado_sin_nombre_714-2" data-name="Degradado sin nombre 714" x1="273.95" y1="1411.34" x2="336.87" y2="1411.34" xlink:href="#Degradado_sin_nombre_714"/>
    <linearGradient id="Degradado_sin_nombre_97" data-name="Degradado sin nombre 97" x1="100.62" y1="221.14" x2="152.46" y2="221.14" gradientUnits="userSpaceOnUse">
      <stop offset="0" stop-color="#ed709e"/>
      <stop offset="1" stop-color="#d5007f"/>
    </linearGradient>
    <linearGradient id="Degradado_sin_nombre_97-2" data-name="Degradado sin nombre 97" x1="311.97" y1="342.31" x2="363.81" y2="342.31" xlink:href="#Degradado_sin_nombre_97"/>
    <linearGradient id="Degradado_sin_nombre_121" data-name="Degradado sin nombre 121" x1="373.3" y1="342.9" x2="416.85" y2="342.9" gradientUnits="userSpaceOnUse">
      <stop offset="0" stop-color="#951b81"/>
      <stop offset="1" stop-color="#662483"/>
    </linearGradient>
    <linearGradient id="Degradado_sin_nombre_121-2" data-name="Degradado sin nombre 121" x1="328.91" y1="464.07" x2="372.46" y2="464.07" xlink:href="#Degradado_sin_nombre_121"/>
    <linearGradient id="Degradado_sin_nombre_131" data-name="Degradado sin nombre 131" x1="162.51" y1="221.2" x2="225.61" y2="221.2" gradientUnits="userSpaceOnUse">
      <stop offset="0" stop-color="#009640"/>
      <stop offset="1" stop-color="#063"/>
    </linearGradient>
    <linearGradient id="Degradado_sin_nombre_131-2" data-name="Degradado sin nombre 131" x1="246.83" y1="343.44" x2="303.78" y2="343.44" xlink:href="#Degradado_sin_nombre_131"/>
    <linearGradient id="Degradado_sin_nombre_248" data-name="Degradado sin nombre 248" x1="328.76" y1="221.58" x2="387.84" y2="221.58" gradientUnits="userSpaceOnUse">
      <stop offset="0" stop-color="#f9ae33"/>
      <stop offset="1" stop-color="#f07f00"/>
    </linearGradient>
    <linearGradient id="Degradado_sin_nombre_300" data-name="Degradado sin nombre 300" x1="518.76" y1="221.73" x2="594.7" y2="221.73" gradientUnits="userSpaceOnUse">
      <stop offset="0" stop-color="#ffed00"/>
      <stop offset="1" stop-color="#fcbd33"/>
    </linearGradient>
    <linearGradient id="Degradado_sin_nombre_360" data-name="Degradado sin nombre 360" x1="396.47" y1="222.75" x2="445.63" y2="222.75" gradientUnits="userSpaceOnUse">
      <stop offset="0" stop-color="#3aaa35"/>
      <stop offset="1" stop-color="#008d32"/>
    </linearGradient>
    <linearGradient id="Degradado_sin_nombre_161-4" data-name="Degradado sin nombre 161" x1="24.84" y1="444.92" x2="150.04" y2="444.92" gradientTransform="matrix(1, 0, 0, 1, 0, 0)" xlink:href="#Degradado_sin_nombre_161"/>
    <linearGradient id="Degradado_sin_nombre_21" data-name="Degradado sin nombre 21" x1="145.19" y1="643.41" x2="194.38" y2="643.41" gradientUnits="userSpaceOnUse">
      <stop offset=".37" stop-color="#9b4784"/>
      <stop offset=".73" stop-color="#b45299"/>
    </linearGradient>
    <linearGradient id="Degradado_sin_nombre_161-5" data-name="Degradado sin nombre 161" x1="429.2" y1="322.43" x2="477.18" y2="322.43" gradientTransform="translate(-437.21 122.46) rotate(-18.84) scale(.86 1.07) skewX(-.36)" xlink:href="#Degradado_sin_nombre_161"/>
    <linearGradient id="Degradado_sin_nombre_161-6" data-name="Degradado sin nombre 161" x1="485.69" y1="320.44" x2="533.67" y2="320.44" gradientTransform="translate(-421.25 69.64) rotate(-14.13) scale(.86 1.07) skewX(-.36)" xlink:href="#Degradado_sin_nombre_161"/>
    <linearGradient id="Degradado_sin_nombre_161-7" data-name="Degradado sin nombre 161" x1="478.16" y1="247.32" x2="526.14" y2="247.32" gradientTransform="translate(-462.09 195.99) rotate(-27.42) scale(.86 1.07) skewX(-.36)" xlink:href="#Degradado_sin_nombre_161"/>
    <linearGradient id="Degradado_sin_nombre_161-8" data-name="Degradado sin nombre 161" x1="702.46" y1="139.22" x2="750.44" y2="139.22" gradientTransform="translate(-429.75 -50.8) rotate(-3.24) scale(.86 1.07) skewX(-.36)" xlink:href="#Degradado_sin_nombre_161"/>
    <linearGradient id="Degradado_sin_nombre_161-9" data-name="Degradado sin nombre 161" x1="722.87" y1="193.54" x2="770.85" y2="193.54" gradientTransform="translate(-407.32 -98.71) rotate(.17) scale(.86 1.07) skewX(-.36)" xlink:href="#Degradado_sin_nombre_161"/>
  </defs>
  <g id="En_busca_del_color" data-name="En busca del color">
    <g id="Capa_9" data-name="Capa 9">
      <rect class="cls-1" width="676.38" height="685.94"/>
    </g>
    <g class="cls-21">
      <g>
        <path class="cls-20" d="m51.36,40.88L54.7-.21c.72-8.88,12.61-13.08,18.2-6.43l27.85,33.11c2.28,2.71,6.09,3.85,9.85,2.93l47.03-11.45c8.75-2.13,15.08,6.54,10.18,13.94l-26.3,39.72c-2.16,3.27-2.24,7.28-.21,10.29l26.81,39.66c4.89,7.23-2.88,17.1-11.81,15.02l-44.1-10.29c-3.95-.92-8.28.6-10.94,3.83l-32.74,39.79c-5.89,7.16-17.4,4.44-17.89-4.23l-2.94-52.69c-.19-3.36-2.24-6.23-5.4-7.56l-51.28-21.53c-8.23-3.45-6.76-15.12,2.26-17.97l50.44-15.9c4.22-1.33,7.3-5.02,7.64-9.16Z"/>
        <path class="cls-10" d="m68.95,55.38l1.95-23.93c.39-4.78,6.78-7.04,9.79-3.46l16.16,19.22c1.23,1.46,3.28,2.07,5.3,1.58l27.19-6.62c4.71-1.15,8.11,3.52,5.48,7.5l-15.21,22.97c-1.16,1.76-1.21,3.91-.11,5.54l15.53,22.97c2.63,3.89-1.55,9.2-6.36,8.08l-25.63-5.98c-2.12-.49-4.46.32-5.89,2.06l-18.94,23.01c-3.17,3.85-9.36,2.39-9.62-2.28l-1.69-30.38c-.1-1.81-1.2-3.35-2.9-4.07l-29.56-12.41c-4.43-1.86-3.64-8.14,1.21-9.67l29.19-9.21c2.27-.72,3.93-2.7,4.11-4.93Z"/>
      </g>
      <g>
        <path class="cls-18" d="m545.92,543.19l5.06-48.59c1.09-10.5,15.15-14.91,21.53-6.75l31.76,40.62c2.6,3.33,7.04,4.86,11.47,3.95l55.49-11.34c10.32-2.11,17.51,8.48,11.56,17.03l-31.95,45.88c-2.63,3.77-2.83,8.53-.53,12.2l30.36,48.35c5.54,8.81-3.85,20.16-14.27,17.25l-51.45-14.32c-4.6-1.28-9.73.31-12.94,4.02l-39.51,45.65c-7.11,8.22-20.54,4.43-20.87-5.88l-1.99-62.66c-.13-4-2.45-7.5-6.12-9.23l-59.57-28.01c-9.56-4.49-7.51-18.27,3.14-21.21l59.61-16.45c4.99-1.38,8.7-5.61,9.21-10.5Z"/>
        <path class="cls-9" d="m566.16,561.24l2.95-28.3c.59-5.65,8.15-8.02,11.58-3.63l18.43,23.58c1.4,1.79,3.79,2.61,6.17,2.13l32.08-6.55c5.55-1.13,9.42,4.56,6.22,9.16l-18.48,26.53c-1.41,2.03-1.52,4.59-.28,6.56l17.58,28c2.98,4.74-2.07,10.84-7.68,9.28l-29.91-8.32c-2.48-.69-5.24.17-6.96,2.16l-22.86,26.4c-3.83,4.42-11.05,2.38-11.23-3.16l-1.15-36.13c-.07-2.15-1.32-4.04-3.29-4.97l-34.34-16.14c-5.14-2.42-4.04-9.83,1.69-11.41l34.5-9.53c2.69-.74,4.68-3.02,4.96-5.65Z"/>
      </g>
      <path class="cls-6" d="m104.41,373.71l-11.2-11.6c-.29-.3-.65-.47-1.01-.46l-13.69.12c-1.15.01-3.73-.26-3.03-1.17l10.04-12.27c.21-.28.3-.67.23-1.08l-2.59-15.91c-.22-1.34,1.09-1.99,2.03-1.02l11.2,11.6c.29.3.65.47,1.01.46l13.69-.12c1.15-.01,1.97,1.63,1.28,2.54l-8.28,10.9c-.21.28-.3.67-.23,1.08l2.59,15.91c.22,1.34-1.09,1.99-2.03,1.02Z"/>
      <g>
        <path class="cls-30" d="m243.54,482.93c.09.51-.14,1.24-.67,2.19-4.71,8.02-11.95,12.85-21.73,14.5s-18.68-.35-26.05-6.13c-7.17-5.58-11.61-13.4-13.31-23.46-1.65-9.74-.08-18.51,4.7-26.31,4.98-8.16,12.25-13.05,21.8-14.66,10.38-1.75,19.06.06,26.04,5.44.76.6,1.19,1.17,1.28,1.71.1.61-.63,3.06-2.2,7.34-1.57,4.29-2.6,6.72-3.09,7.3-.21.3-.51.48-.9.55-.16.03-1.07-.48-2.73-1.52-1.99-1.25-3.89-2.16-5.7-2.74-2.75-.85-5.49-1.05-8.21-.59-4.71.8-8.18,3.2-10.4,7.2-2.04,3.71-2.66,7.96-1.85,12.77s2.81,8.74,5.96,11.6c3.43,3.11,7.5,4.27,12.21,3.48,2.79-.47,5.33-1.53,7.62-3.17,1.5-1.08,2.98-2.48,4.43-4.21,1.2-1.46,1.89-2.2,2.05-2.22.32-.05.67.07,1.05.37.61.49,2.34,2.26,5.2,5.3,2.94,3.16,4.44,4.92,4.5,5.27Z"/>
        <path class="cls-3" d="m507.93,502.38c-.02.23-.36.36-1.01.4-1.25.09-4.35-.09-9.3-.52-4.24-.37-7.12-.72-8.62-1.05-.7-.16-1.1-.28-1.19-.35-.19-.11-.38-.46-.6-1.03-.38-1.31-.92-3.24-1.64-5.82-.98-3.35-2.54-8.3-4.67-14.85-.47-1.31-1.76-2.13-3.85-2.44.97.15-.71.04-5.01-.34-.49-.04-.8.76-.94,2.41-.19,2.2-.28,5.51-.26,9.91.02,4.41-.06,7.71-.26,9.91-.05.55-.22.86-.52.93-.46,0-.91-.01-1.37-.02-1.92-.04-4.91-.23-8.95-.59-4.63-.41-7.41-.75-8.33-1.02-.92-.28-1.35-.82-1.28-1.63.31-3.56.95-8.92,1.92-16.08.97-7.16,1.61-12.53,1.92-16.13,1.2-13.7,1.82-24.41,1.88-32.14v-.68c.03-.55.57-.88,1.64-.98s6.03.14,14.89.71c6,.4,10.78.75,14.35,1.06,7.38.65,13.26,2.84,17.63,6.58,4.95,4.22,7.11,9.87,6.49,16.96-.41,4.73-1.42,8.44-3.03,11.14-1.61,2.7-4.36,5.22-8.25,7.55-.79.45-1.2.91-1.24,1.36,0-.03,1.62,4.2,4.86,12.71,3.24,8.51,4.82,13.18,4.74,14.02Zm-16.59-45.35c.35-3.95-.71-6.8-3.17-8.55-1.91-1.34-5-2.2-9.27-2.57-3.08-.27-4.75.06-5.03.98-.29,1.08-.67,4.25-1.12,9.49-.07.75-.15,1.85-.24,3.31-.1,1.46-.17,2.55-.24,3.26-.01.16.49.37,1.51.62,1.95.46,4.01.79,6.18.98,7.09.62,10.88-1.89,11.38-7.52Z"/>
        <path class="cls-26" d="m325.1,228.22c.58,5.95-.8,11.07-4.14,15.34-3.8,4.91-11.02,7.88-21.66,8.92-.81.08-1.98.18-3.5.29l-3.45.34c-11.94,1.16-19.06,1.61-21.37,1.35-.96-.1-1.48-.56-1.55-1.37-.34-3.46-.65-8.72-.93-15.78-.28-7.06-.59-12.34-.93-15.83-.37-3.75-1.25-10.79-2.65-21.1-.36-2.64-.92-6.6-1.7-11.89l-.11-.67c-.09-.61.38-1.03,1.42-1.27,1.04-.23,4.78-.66,11.21-1.29,10.32-1.01,16.36-1.56,18.11-1.67,7.99-.48,13.98.24,17.99,2.17,5.31,2.58,8.33,7.53,9.04,14.84.19,1.91-.2,3.99-1.16,6.24-.69,1.6-1.64,3.23-2.86,4.88-1.07,1.44-1.61,2.12-1.62,2.02.02.23.48.54,1.37.94,2.39,1.07,4.37,2.95,5.94,5.64,1.41,2.41,2.26,5.04,2.53,7.88Zm-23.53-25.29c-.27-2.78-1.84-4.49-4.71-5.12-1.6-.33-4.18-.33-7.74.02s-5.22.77-5.16,1.29c.06.62.09,1.55.1,2.81,0,1.26.04,2.19.1,2.81.32,3.24.77,5.02,1.36,5.35.38.26,2.45.2,6.21-.16,6.95-.68,10.24-3.01,9.85-6.99Zm4.1,26.98c-.28-2.91-1.69-4.77-4.22-5.56-1.62-.5-4.17-.57-7.66-.23-4.17.41-6.42.78-6.75,1.12-.33.34-.31,2.34.05,6,.37,3.82.79,5.91,1.25,6.27.46.36,2.81.34,7.05-.07,3.49-.34,5.92-.85,7.3-1.54,2.27-1.17,3.27-3.16,2.99-5.97Z"/>
        <path class="cls-27" d="m286.47,427.49c-18.04,0-32.67,16-32.67,35.74s14.62,35.74,32.67,35.74,32.67-16,32.67-35.74-14.62-35.74-32.67-35.74Zm-.11,55.84c-9.04,0-16.37-8.5-16.37-18.98s7.33-18.98,16.37-18.98,16.37,8.5,16.37,18.98-7.33,18.98-16.37,18.98Z"/>
        <path class="cls-4" d="m411.55,427.77c-18.04,0-32.67,16-32.67,35.74s14.62,35.74,32.67,35.74,32.67-16,32.67-35.74-14.62-35.74-32.67-35.74Zm-.11,55.84c-9.04,0-16.37-8.5-16.37-18.98s7.33-18.98,16.37-18.98,16.37,8.5,16.37,18.98-7.33,18.98-16.37,18.98Z"/>
        <path class="cls-25" d="m516.36,242.59c.09.51-.14,1.24-.67,2.19-4.71,8.02-11.95,12.85-21.73,14.5-10,1.69-18.68-.35-26.05-6.13-7.17-5.58-11.61-13.4-13.31-23.46-1.65-9.74-.08-18.51,4.7-26.31,4.98-8.16,12.25-13.05,21.8-14.66,10.38-1.75,19.06.06,26.04,5.44.76.6,1.19,1.17,1.28,1.71.1.61-.63,3.06-2.2,7.34-1.57,4.29-2.6,6.72-3.09,7.3-.21.3-.51.48-.9.55-.16.03-1.07-.48-2.73-1.52-1.99-1.25-3.89-2.16-5.7-2.74-2.75-.85-5.49-1.05-8.21-.59-4.71.8-8.18,3.2-10.4,7.2-2.04,3.71-2.66,7.96-1.85,12.77s2.81,8.74,5.96,11.6c3.43,3.11,7.5,4.27,12.21,3.48,2.79-.47,5.33-1.53,7.62-3.17,1.5-1.08,2.98-2.48,4.43-4.21,1.2-1.46,1.89-2.2,2.05-2.22.32-.05.67.07,1.05.37.61.49,2.34,2.26,5.2,5.3,2.94,3.16,4.44,4.92,4.5,5.27Z"/>
        <path class="cls-31" d="m102.76,185.71s-3.35,72.03-1.68,72.03,49.7-.56,49.7-.56l.56-17.87h-32.39l.56-8.93,24.01-.56.56-15.08h-23.45l-.56-10.61,30.15-1.12s5.03-16.19,0-17.87-47.46.56-47.46.56Z"/>
        <path class="cls-14" d="m314.11,306.88s-3.35,72.03-1.68,72.03,49.7-.56,49.7-.56l.56-17.87h-32.39l.56-8.93,24.01-.56.56-15.08h-23.45l-.56-10.61,30.15-1.12s5.03-16.19,0-17.87-47.46.56-47.46.56Z"/>
        <polygon class="cls-17" points="377.77 307.44 394.52 309.12 391.73 360.49 416.85 361.6 416.85 378.36 373.3 376.68 377.77 307.44"/>
        <polygon class="cls-24" points="333.37 428.61 350.13 430.28 347.33 481.66 372.46 482.77 372.46 499.52 328.91 497.85 333.37 428.61"/>
        <path class="cls-12" d="m164.74,185.99l-2.23,70.91s13.12,1.4,16.75,0c3.63-1.4,1.68-39.09,1.68-39.09,0,0,22.61,37.13,24.01,37.41s17.31,1.12,17.31,1.12l3.35-69.24-17.87-2.23-1.12,39.09-25.69-38.53-16.19.56Z"/>
        <path class="cls-13" d="m249.06,308.28l-2.23,70.36s54.16,12.01,56.95-32.39c-1.12-25.41-9.21-45.23-54.72-37.97Zm15.63,51.93l1.12-36.29c14.8,0,19.26,1.4,18.98,17.87,3.91,24.85-20.1,18.43-20.1,18.43Z"/>
        <path class="cls-5" d="m330.3,189.07s-10.61,72.87,23.73,67.84c32.67-1.4,34.9-22.06,33.5-70.36l-16.75.28s5.03,58.07-12.84,53.33c-15.36-2.79-14.8-6.7-13.12-53.05-17.31-3.35-14.52,1.95-14.52,1.95Z"/>
        <path class="cls-15" d="m566.78,185.71h-18.98l-29.04,64.21,15.63,7.82,7.26-15.63,30.15-.56,7.26,16.19,15.63-7.26-27.92-64.77Zm-17.87,39.09l7.26-16.19,7.82,16.19h-15.08Z"/>
        <path class="cls-28" d="m402.36,238.64l-5.89,12.68s48.18,18.43,49.14-11.17c.98-30.26-30.22-19.9-32.11-30.36-1.59-8.8,21.5-3.7,21.5-3.7l6.7-15.08s-41.34-11.44-44.67,14.52c-3.05,23.77,18.55,24.83,28.03,27.06,3.61.85,13.05,13.47-22.7,6.05Z"/>
      </g>
      <g>
        <g>
          <line class="cls-16" x1="94.57" y1="448.31" x2="177.05" y2="667.86"/>
          <path class="cls-16" d="m92.16,448.97c.74,1.96,1.47,3.91,2.21,5.87,2,5.33,4,10.65,6,15.98,2.96,7.88,5.92,15.76,8.88,23.64,3.61,9.61,7.22,19.23,10.83,28.84l11.87,31.59,11.98,31.88c3.71,9.87,7.42,19.75,11.13,29.62,3.15,8.38,6.29,16.75,9.44,25.13,2.26,6.02,4.53,12.05,6.79,18.07,1.07,2.85,2.13,5.71,3.22,8.56.05.12.09.24.14.37.47,1.26,1.69,2.13,3.08,1.75,1.21-.33,2.22-1.8,1.75-3.08-.74-1.96-1.47-3.91-2.21-5.87-2-5.33-4-10.65-6-15.98-2.96-7.88-5.92-15.76-8.88-23.64-3.61-9.61-7.22-19.23-10.83-28.84-3.96-10.53-7.91-21.06-11.87-31.59l-11.98-31.88c-3.71-9.87-7.42-19.75-11.13-29.62-3.15-8.38-6.29-16.75-9.44-25.13-2.26-6.02-4.53-12.05-6.79-18.07-1.07-2.85-2.13-5.71-3.22-8.56-.05-.12-.09-.24-.14-.37-.47-1.26-1.69-2.13-3.08-1.75-1.21.33-2.22,1.8-1.75,3.08h0Z"/>
        </g>
        <path class="cls-23" d="m57.14,460.15l-27.46-7.91c-5.94-1.71-6.58-9.86-.99-12.49l27.84-13.06c2.28-1.07,3.77-3.33,3.85-5.85l.96-31.55c.18-5.87,7.29-8.68,11.43-4.52l22.24,22.33c1.83,1.84,4.55,2.45,6.99,1.58l32.12-11.48c5.86-2.09,11.15,4.24,8.06,9.63l-15.27,26.62c-1.37,2.38-1.14,5.36.57,7.5l21.08,26.44c3.79,4.76-.22,11.7-6.24,10.79l-36.57-5.55c-2.33-.35-4.68.55-6.18,2.37l-24.31,29.6c-3.9,4.75-11.6,2.17-11.86-3.97l-1.44-34.34c-.12-2.88-2.07-5.35-4.83-6.15Z"/>
        <path class="cls-8" d="m76.34,447l-10.45-3.01c-2.09-.6-2.31-3.47-.35-4.39l10.55-4.95c.8-.38,1.32-1.17,1.35-2.06l.36-11.91c.06-2.06,2.56-3.05,4.02-1.59l8.4,8.44c.64.65,1.6.86,2.46.56l12.15-4.34c2.06-.74,3.92,1.49,2.83,3.39l-5.8,10.11c-.48.84-.4,1.88.2,2.64l7.96,9.99c1.33,1.67-.08,4.11-2.19,3.79l-13.77-2.09c-.82-.12-1.64.19-2.17.83l-9.15,11.15c-1.37,1.67-4.08.76-4.17-1.39l-.55-12.98c-.04-1.01-.73-1.88-1.7-2.16Z"/>
        <path class="cls-11" d="m147.17,596.8l5.76-2c1.48-.51,3.11.18,3.73,1.59l37.27,84.92c1.28,2.93-.21,6.3-3.27,7.41l-8.58,3.12c-3.06,1.11-6.46-.49-7.47-3.51l-29.26-87.92c-.49-1.48.31-3.08,1.83-3.61Z"/>
      </g>
      <path class="cls-2" d="m47.26,347.56l-9.35-13.14c-.24-.34-.58-.56-.93-.61l-13.55-1.93c-1.14-.16-3.65-.81-2.82-1.61l11.76-10.63c.25-.25.39-.62.39-1.04l-.19-16.12c-.02-1.36,1.38-1.81,2.16-.7l9.35,13.14c.24.34.58.56.93.61l13.55,1.93c1.14.16,1.71,1.9.88,2.71l-9.82,9.54c-.25.25-.39.62-.39,1.04l.19,16.12c.02,1.36-1.38,1.81-2.16.7Z"/>
      <path class="cls-7" d="m89.55,319.81l-8.24-13.86c-.21-.36-.53-.6-.87-.68l-13.35-3.03c-1.12-.25-3.57-1.11-2.68-1.84l12.59-9.63c.27-.22.44-.59.47-1l1.13-16.08c.1-1.35,1.52-1.69,2.21-.52l8.24,13.86c.21.36.53.6.87.68l13.35,3.03c1.12.25,1.55,2.04.66,2.77l-10.57,8.7c-.27.22-.44.59-.47,1l-1.13,16.08c-.1,1.35-1.52,1.69-2.21.52Z"/>
      <path class="cls-19" d="m51.05,255.25l-11.2-11.6c-.29-.3-.65-.47-1.01-.46l-13.69.12c-1.15.01-3.73-.26-3.03-1.17l10.04-12.27c.21-.28.3-.67.23-1.08l-2.59-15.91c-.22-1.34,1.09-1.99,2.03-1.02l11.2,11.6c.29.3.65.47,1.01.46l13.69-.12c1.15-.01,1.97,1.63,1.28,2.54l-8.28,10.9c-.21.28-.3.67-.23,1.08l2.59,15.91c.22,1.34-1.09,1.99-2.03,1.02Z"/>
      <path class="cls-32" d="m199.96,86.79l-5.47-15.17c-.14-.39-.4-.69-.73-.83l-12.54-5.5c-1.05-.46-3.3-1.76-2.29-2.31l14.19-7.08c.31-.17.55-.49.65-.89l4.15-15.58c.35-1.31,1.81-1.37,2.27-.1l5.47,15.17c.14.39.4.69.73.83l12.54,5.5c1.05.46,1.13,2.29.12,2.84l-12.02,6.55c-.31.17-.55.49-.65.89l-4.15,15.58c-.35,1.31-1.81,1.37-2.27.1Z"/>
      <path class="cls-29" d="m230.11,134.39l-4.56-15.47c-.12-.4-.36-.72-.68-.88l-12.19-6.23c-1.03-.52-3.19-1.95-2.14-2.44l14.58-6.22c.32-.15.57-.46.71-.85l5.07-15.31c.43-1.29,1.89-1.26,2.27.04l4.56,15.47c.12.4.36.72.68.88l12.19,6.23c1.03.52.99,2.36-.05,2.85l-12.39,5.82c-.32.15-.57.46-.71.85l-5.07,15.31c-.43,1.29-1.89,1.26-2.27-.04Z"/>
    </g>
  </g>
</svg>