<?xml version="1.0" encoding="UTF-8"?>
<svg xmlns="http://www.w3.org/2000/svg" xmlns:xlink="http://www.w3.org/1999/xlink" viewBox="0 0 4051.24 1026.76">
  <defs>
    <style>
      .cls-1 {
        fill: url(#Degradado_sin_nombre_161-13);
      }

      .cls-2 {
        fill: url(#Degradado_sin_nombre_161-27);
      }

      .cls-2, .cls-3, .cls-4, .cls-5, .cls-6, .cls-7, .cls-8, .cls-9, .cls-10 {
        fill-rule: evenodd;
      }

      .cls-11 {
        fill: #fff;
      }

      .cls-3 {
        fill: url(#Degradado_sin_nombre_1742-5);
      }

      .cls-12 {
        fill: url(#Degradado_sin_nombre_161-5);
      }

      .cls-4 {
        fill: url(#Degradado_sin_nombre_1742-7);
      }

      .cls-13 {
        fill: url(#Degradado_sin_nombre_161-23);
      }

      .cls-5 {
        fill: url(#Degradado_sin_nombre_1742-4);
      }

      .cls-14 {
        fill: url(#Degradado_sin_nombre_1742-8);
      }

      .cls-15 {
        fill: url(#Degradado_sin_nombre_161-3);
      }

      .cls-16 {
        fill: url(#Degradado_sin_nombre_161-11);
      }

      .cls-17 {
        fill: url(#Degradado_sin_nombre_161-6);
      }

      .cls-18 {
        fill: url(#Degradado_sin_nombre_161-17);
      }

      .cls-19 {
        fill: url(#Degradado_sin_nombre_161-2);
      }

      .cls-20 {
        fill: url(#Degradado_sin_nombre_161-24);
      }

      .cls-21 {
        fill: url(#Degradado_sin_nombre_161-18);
      }

      .cls-22 {
        fill: url(#Degradado_sin_nombre_161-19);
      }

      .cls-23 {
        fill: url(#Degradado_sin_nombre_161-26);
      }

      .cls-24 {
        fill: url(#Degradado_sin_nombre_1742-10);
      }

      .cls-6 {
        fill: url(#Degradado_sin_nombre_1742);
      }

      .cls-25 {
        fill: url(#Degradado_sin_nombre_161-7);
      }

      .cls-7 {
        fill: url(#Degradado_sin_nombre_1742-12);
      }

      .cls-26 {
        fill: url(#Degradado_sin_nombre_161);
      }

      .cls-8 {
        fill: url(#Degradado_sin_nombre_1742-6);
      }

      .cls-27 {
        fill: url(#Degradado_sin_nombre_161-4);
      }

      .cls-28 {
        fill: url(#Degradado_sin_nombre_161-10);
      }

      .cls-29 {
        fill: url(#Degradado_sin_nombre_161-22);
      }

      .cls-30 {
        fill: url(#Degradado_sin_nombre_161-20);
      }

      .cls-9 {
        fill: url(#Degradado_sin_nombre_1742-14);
      }

      .cls-31 {
        fill: url(#Degradado_sin_nombre_161-12);
      }

      .cls-10 {
        fill: url(#Degradado_sin_nombre_1742-3);
      }

      .cls-32 {
        fill: url(#Degradado_sin_nombre_161-9);
      }

      .cls-33 {
        fill: url(#Degradado_sin_nombre_1742-11);
      }

      .cls-34 {
        fill: url(#Degradado_sin_nombre_1742-13);
      }

      .cls-35 {
        fill: url(#Degradado_sin_nombre_161-15);
      }

      .cls-36 {
        fill: url(#Degradado_sin_nombre_1742-2);
      }

      .cls-37 {
        fill: url(#Degradado_sin_nombre_161-16);
      }

      .cls-38 {
        fill: url(#Degradado_sin_nombre_161-14);
      }

      .cls-39 {
        fill: url(#Degradado_sin_nombre_161-25);
      }

      .cls-40 {
        fill: url(#Degradado_sin_nombre_1742-9);
      }

      .cls-41 {
        fill: url(#Degradado_sin_nombre_161-8);
      }

      .cls-42 {
        fill: url(#Degradado_sin_nombre_161-21);
      }
    </style>
    <linearGradient id="Degradado_sin_nombre_161" data-name="Degradado sin nombre 161" x1="1350.44" y1="112.84" x2="1462.96" y2="112.84" gradientTransform="translate(1913.49 -1883.63) rotate(83.67) scale(1.54 1.32)" gradientUnits="userSpaceOnUse">
      <stop offset=".4" stop-color="#fcbe00"/>
      <stop offset=".65" stop-color="#ffd900"/>
    </linearGradient>
    <linearGradient id="Degradado_sin_nombre_161-2" data-name="Degradado sin nombre 161" x1="1215.86" y1="95.47" x2="1328.38" y2="95.47" gradientTransform="translate(2396.18 -909.44) rotate(101.17) scale(1.06 1.02)" xlink:href="#Degradado_sin_nombre_161"/>
    <linearGradient id="Degradado_sin_nombre_161-3" data-name="Degradado sin nombre 161" x1="1586.69" y1="170.6" x2="1699.21" y2="170.6" gradientTransform="translate(609.88 -1531.73) rotate(49.08) scale(1.3 1.05)" xlink:href="#Degradado_sin_nombre_161"/>
    <linearGradient id="Degradado_sin_nombre_161-4" data-name="Degradado sin nombre 161" x1="1334" y1="469.42" x2="1446.52" y2="469.42" gradientTransform="translate(178.38 1374.53) rotate(-53.62) scale(1.06 1.02)" xlink:href="#Degradado_sin_nombre_161"/>
    <linearGradient id="Degradado_sin_nombre_161-5" data-name="Degradado sin nombre 161" x1="1432.17" y1="354.13" x2="1544.68" y2="354.13" gradientTransform="translate(-440.84 137.2) rotate(-7.11) scale(1.28 1.16)" xlink:href="#Degradado_sin_nombre_161"/>
    <linearGradient id="Degradado_sin_nombre_161-6" data-name="Degradado sin nombre 161" x1="1313.82" y1="419.02" x2="1438.26" y2="419.02" gradientTransform="translate(801.68 1982.56) rotate(-80.86) scale(1.06 1.02)" xlink:href="#Degradado_sin_nombre_161"/>
    <linearGradient id="Degradado_sin_nombre_161-7" data-name="Degradado sin nombre 161" x1="1467.52" y1="-63.3" x2="1580.03" y2="-63.3" gradientTransform="translate(2990.09 1038.74) rotate(-162.22) scale(.81)" xlink:href="#Degradado_sin_nombre_161"/>
    <linearGradient id="Degradado_sin_nombre_161-8" data-name="Degradado sin nombre 161" x1="1204.88" y1="-198.42" x2="1317.39" y2="-198.42" gradientTransform="translate(2214.5 1321.27) rotate(-124.9) scale(.64 .7)" xlink:href="#Degradado_sin_nombre_161"/>
    <linearGradient id="Degradado_sin_nombre_161-9" data-name="Degradado sin nombre 161" x1="1682.41" y1="186.1" x2="1794.93" y2="186.1" gradientTransform="translate(4386.23 -542.81) rotate(146.34) scale(1.48 1.57)" xlink:href="#Degradado_sin_nombre_161"/>
    <linearGradient id="Degradado_sin_nombre_161-10" data-name="Degradado sin nombre 161" x1="1319.45" y1="706.09" x2="1601.92" y2="706.09" gradientTransform="matrix(1, 0, 0, 1, 0, 0)" xlink:href="#Degradado_sin_nombre_161"/>
    <linearGradient id="Degradado_sin_nombre_161-11" data-name="Degradado sin nombre 161" x1="834.12" y1="266.69" x2="1239.28" y2="266.69" gradientTransform="translate(1639.42 -612.08) rotate(85.56) scale(.82 1.4)" xlink:href="#Degradado_sin_nombre_161"/>
    <linearGradient id="Degradado_sin_nombre_161-12" data-name="Degradado sin nombre 161" x1="294.23" y1="-4.42" x2="636.05" y2="-4.42" gradientTransform="translate(2502.38 917.01) rotate(-123.78) scale(1.05 1.71)" xlink:href="#Degradado_sin_nombre_161"/>
    <linearGradient id="Degradado_sin_nombre_161-13" data-name="Degradado sin nombre 161" x1="-55.89" y1="116.33" x2="285.93" y2="116.33" gradientTransform="translate(1890.07 273.37) rotate(154.4) scale(.5 1.06)" xlink:href="#Degradado_sin_nombre_161"/>
    <linearGradient id="Degradado_sin_nombre_161-14" data-name="Degradado sin nombre 161" x1="1414.2" y1="400.31" x2="1591.37" y2="400.31" gradientTransform="translate(991.19 -1342.94) rotate(55.69)" xlink:href="#Degradado_sin_nombre_161"/>
    <linearGradient id="Degradado_sin_nombre_1742" data-name="Degradado sin nombre 1742" x1="1399.98" y1="53.76" x2="1501.5" y2="53.76" gradientTransform="translate(349.17 -744.3) rotate(34.38)" gradientUnits="userSpaceOnUse">
      <stop offset="0" stop-color="#fff158"/>
      <stop offset=".65" stop-color="#fff69e"/>
    </linearGradient>
    <linearGradient id="Degradado_sin_nombre_161-15" data-name="Degradado sin nombre 161" x1="906.72" y1="612.15" x2="1000.63" y2="612.15" gradientTransform="translate(303.55 224.67) rotate(-11.5) scale(.86 1.07) skewX(-.36)" xlink:href="#Degradado_sin_nombre_161"/>
    <linearGradient id="Degradado_sin_nombre_1742-2" data-name="Degradado sin nombre 1742" x1="1020.02" y1="686.74" x2="1062.56" y2="686.74" gradientTransform="translate(341.37 -28.18) rotate(-.16) scale(.86 1.07) skewX(-.36)" xlink:href="#Degradado_sin_nombre_1742"/>
    <linearGradient id="Degradado_sin_nombre_161-16" data-name="Degradado sin nombre 161" x1="1497.09" y1="784.01" x2="1655.85" y2="784.01" gradientTransform="translate(487.98 -1002.97) rotate(37.21)" xlink:href="#Degradado_sin_nombre_161"/>
    <linearGradient id="Degradado_sin_nombre_1742-3" data-name="Degradado sin nombre 1742" x1="1333.98" y1="438.91" x2="1424.96" y2="438.91" gradientTransform="translate(68.83 -231.69) rotate(15.9)" xlink:href="#Degradado_sin_nombre_1742"/>
    <linearGradient id="Degradado_sin_nombre_161-17" data-name="Degradado sin nombre 161" x1="1624.73" y1="356.58" x2="1757.31" y2="356.58" gradientTransform="translate(1590.44 -1500.8) rotate(76.06)" xlink:href="#Degradado_sin_nombre_161"/>
    <linearGradient id="Degradado_sin_nombre_1742-4" data-name="Degradado sin nombre 1742" x1="1602.91" y1="83.65" x2="1678.88" y2="83.65" gradientTransform="translate(780.22 -1163.02) rotate(54.75)" xlink:href="#Degradado_sin_nombre_1742"/>
    <linearGradient id="Degradado_sin_nombre_161-18" data-name="Degradado sin nombre 161" x1="2257.38" y1="353.93" x2="2416.15" y2="353.93" gradientTransform="translate(1692.48 -1615.75) rotate(75.01)" xlink:href="#Degradado_sin_nombre_161"/>
    <linearGradient id="Degradado_sin_nombre_1742-5" data-name="Degradado sin nombre 1742" x1="2198.6" y1="314.58" x2="2289.57" y2="314.58" gradientTransform="translate(888.57 -1263.22) rotate(53.7)" xlink:href="#Degradado_sin_nombre_1742"/>
    <linearGradient id="Degradado_sin_nombre_161-19" data-name="Degradado sin nombre 161" x1="1369.24" y1="330.13" x2="1487.35" y2="330.13" gradientTransform="translate(345.47 -978.46) rotate(35.6)" xlink:href="#Degradado_sin_nombre_161"/>
    <linearGradient id="Degradado_sin_nombre_1742-6" data-name="Degradado sin nombre 1742" x1="1371.55" y1="-35.77" x2="1439.23" y2="-35.77" gradientTransform="translate(-51.89 -195.74) rotate(14.29)" xlink:href="#Degradado_sin_nombre_1742"/>
    <linearGradient id="Degradado_sin_nombre_161-20" data-name="Degradado sin nombre 161" x1="2111.45" y1="-166.13" x2="2305.27" y2="-166.13" gradientTransform="translate(738.72 -1446.77) rotate(51.66)" xlink:href="#Degradado_sin_nombre_161"/>
    <linearGradient id="Degradado_sin_nombre_1742-7" data-name="Degradado sin nombre 1742" x1="2258.81" y1="-218.32" x2="2369.87" y2="-218.32" gradientTransform="translate(140.36 -804.49) rotate(30.35)" xlink:href="#Degradado_sin_nombre_1742"/>
    <linearGradient id="Degradado_sin_nombre_161-21" data-name="Degradado sin nombre 161" x1="1901.37" y1="169.6" x2="1999.26" y2="169.6" gradientTransform="translate(341.37 -28.18) rotate(-.16) scale(.86 1.07) skewX(-.36)" xlink:href="#Degradado_sin_nombre_161"/>
    <linearGradient id="Degradado_sin_nombre_1742-8" data-name="Degradado sin nombre 1742" x1="1928.95" y1="171.38" x2="1971.49" y2="171.38" gradientTransform="translate(341.37 -28.18) rotate(-.16) scale(.86 1.07) skewX(-.36)" xlink:href="#Degradado_sin_nombre_1742"/>
    <linearGradient id="Degradado_sin_nombre_161-22" data-name="Degradado sin nombre 161" x1="2126.05" y1="607.65" x2="2219.95" y2="607.65" gradientTransform="translate(341.37 -28.18) rotate(-.16) scale(.86 1.07) skewX(-.36)" xlink:href="#Degradado_sin_nombre_161"/>
    <linearGradient id="Degradado_sin_nombre_1742-9" data-name="Degradado sin nombre 1742" x1="2151.73" y1="607.65" x2="2194.27" y2="607.65" gradientTransform="translate(341.37 -28.18) rotate(-.16) scale(.86 1.07) skewX(-.36)" xlink:href="#Degradado_sin_nombre_1742"/>
    <linearGradient id="Degradado_sin_nombre_161-23" data-name="Degradado sin nombre 161" x1="1550.73" y1="762.19" x2="1645.1" y2="762.19" gradientTransform="translate(341.37 -28.18) rotate(-.16) scale(.86 1.07) skewX(-.36)" xlink:href="#Degradado_sin_nombre_161"/>
    <linearGradient id="Degradado_sin_nombre_1742-10" data-name="Degradado sin nombre 1742" x1="1576.54" y1="762.19" x2="1619.29" y2="762.19" gradientTransform="translate(341.37 -28.18) rotate(-.16) scale(.86 1.07) skewX(-.36)" xlink:href="#Degradado_sin_nombre_1742"/>
    <linearGradient id="Degradado_sin_nombre_161-24" data-name="Degradado sin nombre 161" x1="2148.58" y1="359.12" x2="2242.49" y2="359.12" gradientTransform="translate(341.37 -28.18) rotate(-.16) scale(.86 1.07) skewX(-.36)" xlink:href="#Degradado_sin_nombre_161"/>
    <linearGradient id="Degradado_sin_nombre_1742-11" data-name="Degradado sin nombre 1742" x1="2174.46" y1="358.83" x2="2217" y2="358.83" gradientTransform="translate(341.37 -28.18) rotate(-.16) scale(.86 1.07) skewX(-.36)" xlink:href="#Degradado_sin_nombre_1742"/>
    <linearGradient id="Degradado_sin_nombre_161-25" data-name="Degradado sin nombre 161" x1="2519.95" y1="191.44" x2="2638.05" y2="191.44" gradientTransform="translate(-235 -1547.03) rotate(36.67) scale(1.32 1.4) skewX(2.2)" xlink:href="#Degradado_sin_nombre_161"/>
    <linearGradient id="Degradado_sin_nombre_1742-12" data-name="Degradado sin nombre 1742" x1="2493.97" y1="253.26" x2="2561.65" y2="253.26" gradientTransform="translate(-785.73 -440.96) rotate(13.84) scale(1.31 1.41) skewX(-.93)" xlink:href="#Degradado_sin_nombre_1742"/>
    <linearGradient id="Degradado_sin_nombre_161-26" data-name="Degradado sin nombre 161" x1="991.66" y1="351.11" x2="1085.56" y2="351.11" gradientTransform="translate(303.55 224.67) rotate(-11.5) scale(.86 1.07) skewX(-.36)" xlink:href="#Degradado_sin_nombre_161"/>
    <linearGradient id="Degradado_sin_nombre_1742-13" data-name="Degradado sin nombre 1742" x1="1038.97" y1="417.21" x2="1081.51" y2="417.21" gradientTransform="translate(341.37 -28.18) rotate(-.16) scale(.86 1.07) skewX(-.36)" xlink:href="#Degradado_sin_nombre_1742"/>
    <linearGradient id="Degradado_sin_nombre_161-27" data-name="Degradado sin nombre 161" x1="1521.86" y1="501.69" x2="1974.47" y2="501.69" gradientTransform="matrix(1, 0, 0, 1, 0, 0)" xlink:href="#Degradado_sin_nombre_161"/>
    <linearGradient id="Degradado_sin_nombre_1742-14" data-name="Degradado sin nombre 1742" x1="1690.33" y1="516.1" x2="1779.57" y2="516.1" gradientTransform="translate(-623.57 -87.47) rotate(-2.26) scale(1.38 1.31) skewX(-4.4)" xlink:href="#Degradado_sin_nombre_1742"/>
  </defs>
  <g id="triangulos">
    <rect class="cls-11" x="1142.7" y="67.31" width="1280" height="720"/>
    <path class="cls-26" d="m1886.12,383.86s182.58-61.38,245.09-120.37c-22.8-36.67-44.9-76.01-44.9-76.01l-200.19,196.37Z"/>
    <path class="cls-19" d="m1929.87,434.4s144.09-12.17,206.23-12.17c-8.89-29.13-16.02-71.9-16.02-71.9l-190.21,84.07Z"/>
    <path class="cls-15" d="m1848.52,324.65s82.91-158.57,98.41-195.92c-32.78-15.26-62.08-29.6-62.08-29.6l-36.33,225.51Z"/>
    <path class="cls-27" d="m1559.03,486.37s-132.78-53.99-208.06-77.89c-4.36,30.15.16,72.92.16,72.92l207.9,4.97Z"/>
    <path class="cls-12" d="m1585.08,412.72s-58.44-155.41-107.44-215.16c-30.13,20.25-59.42,40.43-59.42,40.43l166.86,174.73Z"/>
    <path class="cls-17" d="m1567.97,561.02c-6.93,1.31-152.26,13.56-215.27,26.65,9.92,28.8,36.01,78.15,36.01,78.15l179.26-104.81Z"/>
    <path class="cls-25" d="m1779.08,621.6s-14.52,115.78-1.33,163.92c23.01-4.53,47.12-8.08,47.12-8.08l-45.79-155.84Z"/>
    <path class="cls-41" d="m1673.91,672.25s-71.74,74.23-86.77,111.15c17.39,7.6,31.47,15.06,31.47,15.06l55.29-126.21Z"/>
    <path class="cls-32" d="m1933.53,562.3s187.03,176.6,213.32,213.65c18.91-39.17,70.51-87.6,70.51-87.6l-283.83-126.05Z"/>
    <polygon class="cls-28" points="1601.92 603.87 1319.45 790.19 1481.94 808.31 1601.92 603.87"/>
    <polygon class="cls-16" points="1539.78 411.47 1153.85 109.34 1136.81 270.68 1539.78 411.47"/>
    <polygon class="cls-31" points="1930.14 499.03 2439.6 588.6 2422.62 387.29 1930.14 499.03"/>
    <polygon class="cls-1" points="1770.94 356.11 1824.84 72.47 1722.25 54.14 1770.94 356.11"/>
  </g>
  <g id="estrellas">
    <g>
      <path class="cls-38" d="m1465.61,100.75l-12.65-38.41c-2.74-8.3,6.28-15.56,13.81-11.12l37.48,22.12c3.07,1.81,6.9,1.75,9.91-.17l37.64-24.04c7-4.47,15.96,1.6,14.4,9.76l-8.37,43.81c-.69,3.6.77,7.28,3.73,9.44l39.04,28.39c7.12,5.18,3.94,16.42-4.83,17.1l-43.3,3.38c-3.87.3-7.17,2.94-8.31,6.65l-14.1,45.73c-2.54,8.23-13.85,9.08-17.59,1.31l-22.68-47.17c-1.45-3.01-4.37-5.03-7.7-5.33l-53.99-4.8c-8.66-.77-11.79-11.83-4.82-17.03l38.99-29.07c3.27-2.44,4.61-6.69,3.33-10.56Z"/>
      <path class="cls-6" d="m1486.84,108.87l-7.37-22.37c-1.47-4.47,3.38-8.37,7.43-5.98l21.75,12.84c1.65.98,3.71.94,5.33-.09l21.76-13.9c3.77-2.41,8.59.86,7.75,5.25l-4.84,25.33c-.37,1.94.41,3.92,2.01,5.08l22.61,16.44c3.83,2.78,2.12,8.83-2.6,9.2l-25.17,1.97c-2.08.16-3.86,1.58-4.47,3.58l-8.15,26.45c-1.37,4.43-7.45,4.88-9.46.71l-13.08-27.2c-.78-1.62-2.35-2.71-4.14-2.87l-31.13-2.76c-4.66-.41-6.35-6.36-2.6-9.16l22.57-16.83c1.76-1.31,2.48-3.6,1.79-5.68Z"/>
    </g>
    <path class="cls-35" d="m1238.42,753.76l-15.49-29.03c-.4-.75-1.02-1.28-1.71-1.47l-26.93-7.43c-2.26-.62-2.96-4.3-1.08-5.71l22.36-16.75c.58-.43.96-1.16,1.06-2l3.82-32.68c.32-2.75,3.25-3.3,4.56-.86l15.49,29.03c.4.75,1.02,1.28,1.71,1.47l26.93,7.43c2.26.62,2.96,4.3,1.08,5.71l-22.36,16.75c-.58.43-.96,1.16-1.06,2l-3.82,32.68c-.32,2.75-3.25,3.3-4.56.86Z"/>
    <path class="cls-36" d="m1230.42,727.69l-4.3-14.27c-.11-.37-.34-.66-.63-.81l-11.3-5.7c-.95-.48-.93-2.17.03-2.63l11.42-5.45c.29-.14.53-.43.65-.79l4.61-14.18c.39-1.19,1.74-1.18,2.1.02l4.3,14.27c.11.37.34.66.63.81l11.3,5.7c.95.48.93,2.17-.03,2.63l-11.42,5.45c-.29.14-.53.43-.65.79l-4.61,14.18c-.39,1.19-1.74,1.18-2.1-.02Z"/>
    <g>
      <path class="cls-37" d="m1227.11,566.94l-21.67-29.05c-4.68-6.28.92-15.01,8.58-13.37l38.13,8.15c3.13.67,6.36-.48,8.37-2.96l25.16-31.12c4.68-5.79,14.02-3.17,15.01,4.2l5.33,39.61c.44,3.26,2.72,5.97,5.85,6.96l41.25,13.04c7.52,2.38,8.01,12.83.75,15.91l-35.84,15.17c-3.21,1.36-5.26,4.53-5.18,8.02l1.01,42.87c.18,7.72-9.19,11.65-14.57,6.11l-32.68-33.64c-2.08-2.15-5.14-3.04-8.06-2.34l-47.25,11.26c-7.58,1.81-13.38-6.7-8.94-13.1l24.88-35.79c2.08-3,2.02-6.99-.17-9.92Z"/>
      <path class="cls-10" d="m1247.46,567.81l-12.62-16.92c-2.52-3.38.49-8.08,4.62-7.19l22.13,4.73c1.68.36,3.42-.26,4.51-1.59l14.55-17.99c2.52-3.11,7.54-1.71,8.08,2.26l3.08,22.9c.24,1.75,1.46,3.21,3.15,3.74l23.89,7.55c4.05,1.28,4.31,6.9.4,8.56l-20.83,8.82c-1.72.73-2.83,2.44-2.78,4.31l.58,24.8c.1,4.15-4.95,6.27-7.84,3.29l-18.84-19.4c-1.12-1.15-2.77-1.63-4.33-1.26l-27.24,6.49c-4.08.97-7.2-3.6-4.81-7.05l14.4-20.72c1.12-1.61,1.08-3.76-.09-5.34Z"/>
    </g>
    <g>
      <path class="cls-18" d="m1628.41,199.07l1.13-30.24c.24-6.54,8.46-9.28,12.58-4.2l20.53,25.28c1.68,2.07,4.39,3.02,7,2.46l32.67-7.06c6.08-1.31,10.78,5.28,7.56,10.6l-17.28,28.55c-1.42,2.35-1.36,5.31.16,7.59l20,30.09c3.65,5.49-1.51,12.54-7.84,10.74l-31.25-8.91c-2.8-.8-5.8.19-7.56,2.5l-21.8,28.41c-3.92,5.11-12.08,2.76-12.68-3.66l-3.63-39c-.23-2.49-1.76-4.67-4.01-5.74l-36.63-17.43c-5.88-2.8-5.19-11.37,1.05-13.2l34.93-10.24c2.93-.86,4.97-3.49,5.09-6.54Z"/>
      <path class="cls-5" d="m1641.19,210.3l.66-17.61c.13-3.52,4.55-4.99,6.77-2.26l11.91,14.67c.91,1.12,2.36,1.63,3.77,1.32l18.89-4.08c3.27-.71,5.8,2.84,4.07,5.7l-9.99,16.51c-.76,1.26-.73,2.85.09,4.08l11.58,17.42c1.96,2.95-.81,6.75-4.22,5.78l-18.17-5.18c-1.5-.43-3.12.11-4.07,1.35l-12.61,16.43c-2.11,2.75-6.5,1.48-6.82-1.97l-2.09-22.49c-.12-1.34-.94-2.51-2.16-3.09l-21.12-10.05c-3.16-1.5-2.79-6.12.56-7.1l20.22-5.93c1.57-.46,2.68-1.88,2.74-3.52Z"/>
    </g>
    <g>
      <path class="cls-21" d="m1926.39,700.92l.69-36.23c.15-7.83,9.92-11.3,14.97-5.31l25.13,29.81c2.06,2.44,5.32,3.52,8.43,2.79l38.96-9.17c7.25-1.71,13.02,6.08,9.28,12.52l-20.06,34.56c-1.65,2.84-1.51,6.38.36,9.09l24.6,35.58c4.49,6.49-1.53,15.05-9.16,13.03l-37.61-9.98c-3.37-.89-6.93.36-9,3.16l-25.48,34.49c-4.59,6.21-14.4,3.57-15.26-4.1l-5.2-46.61c-.33-2.97-2.2-5.55-4.93-6.79l-44.24-20.06c-7.1-3.22-6.47-13.5.97-15.83l41.59-13.03c3.48-1.09,5.88-4.29,5.95-7.94Z"/>
      <path class="cls-3" d="m1941.94,714.09l.4-21.1c.08-4.21,5.34-6.08,8.06-2.86l14.59,17.3c1.11,1.32,2.86,1.9,4.54,1.5l22.52-5.3c3.9-.92,7.01,3.27,4.99,6.74l-11.6,19.99c-.89,1.53-.81,3.43.19,4.89l14.25,20.61c2.41,3.49-.82,8.1-4.93,7.01l-21.86-5.8c-1.81-.48-3.73.19-4.84,1.7l-14.74,19.95c-2.47,3.34-7.75,1.92-8.21-2.21l-3-26.88c-.18-1.6-1.19-2.99-2.65-3.65l-25.5-11.56c-3.82-1.73-3.48-7.26.52-8.52l24.07-7.54c1.87-.59,3.16-2.31,3.2-4.27Z"/>
    </g>
    <g>
      <path class="cls-22" d="m1282.96,116.52l-16.72-21.15c-3.61-4.57.37-11.18,6.1-10.12l28.53,5.27c2.34.43,4.72-.49,6.17-2.38l18.06-23.67c3.36-4.4,10.36-2.65,11.25,2.81l4.79,29.34c.39,2.41,2.15,4.38,4.5,5.05l30.95,8.84c5.64,1.61,6.23,9.38.89,11.81l-26.33,12.03c-2.36,1.08-3.82,3.48-3.68,6.07l1.64,31.86c.3,5.73-6.59,8.85-10.71,4.85l-25-24.34c-1.59-1.55-3.89-2.15-6.04-1.57l-34.9,9.36c-5.6,1.5-10.09-4.7-6.92-9.56l17.75-27.13c1.49-2.27,1.35-5.24-.33-7.37Z"/>
      <path class="cls-8" d="m1298.11,116.75l-9.73-12.32c-1.94-2.46.2-6.02,3.28-5.45l16.56,3.06c1.26.23,2.54-.26,3.32-1.28l10.44-13.68c1.81-2.37,5.57-1.43,6.05,1.51l2.77,16.97c.21,1.3,1.15,2.36,2.42,2.72l17.92,5.12c3.04.87,3.35,5.04.48,6.36l-15.31,6.99c-1.27.58-2.05,1.87-1.98,3.26l.95,18.43c.16,3.08-3.55,4.76-5.76,2.61l-14.42-14.03c-.86-.84-2.09-1.16-3.25-.85l-20.12,5.4c-3.01.81-5.43-2.53-3.72-5.14l10.28-15.71c.8-1.22.73-2.82-.18-3.97Z"/>
    </g>
    <g>
      <path class="cls-30" d="m2191.3,160.16l-16.76-40.94c-3.62-8.85,5.66-17.47,14.21-13.2l42.6,21.26c3.49,1.74,7.67,1.37,10.8-.95l39.23-29.12c7.3-5.42,17.54.52,16.46,9.54l-5.76,48.45c-.47,3.98,1.4,7.88,4.8,10.01l44.79,27.98c8.17,5.1,5.56,17.61-3.96,19.03l-46.99,7.01c-4.2.63-7.6,3.76-8.56,7.9l-11.87,50.99c-2.14,9.18-14.42,10.97-19.09,2.79l-28.38-49.73c-1.81-3.17-5.16-5.16-8.81-5.22l-59.29-1.08c-9.51-.17-13.78-12-6.57-18.21l40.31-34.73c3.38-2.91,4.51-7.65,2.83-11.77Z"/>
      <path class="cls-4" d="m2215.09,167.39l-9.76-23.84c-1.95-4.76,3.04-9.4,7.65-7.1l24.72,12.34c1.88.94,4.13.74,5.81-.51l22.68-16.84c3.93-2.91,9.43.28,8.86,5.13l-3.33,28.02c-.25,2.14.75,4.24,2.58,5.39l25.94,16.2c4.39,2.74,2.99,9.47-2.13,10.24l-27.31,4.08c-2.26.34-4.09,2.02-4.61,4.25l-6.86,29.49c-1.15,4.94-7.76,5.9-10.27,1.5l-16.36-28.68c-.97-1.71-2.77-2.77-4.74-2.81l-34.18-.62c-5.12-.09-7.41-6.46-3.54-9.8l23.33-20.1c1.82-1.56,2.43-4.12,1.52-6.33Z"/>
    </g>
    <path class="cls-42" d="m2010.47,197.4l-9.48-31.51c-.24-.81-.75-1.46-1.39-1.78l-24.94-12.58c-2.1-1.06-6.52-3.95-4.4-4.96l29.68-12.87c.65-.31,1.17-.94,1.43-1.75l10.17-31.29c.86-2.63,3.84-2.6,4.64.05l9.48,31.51c.24.81.75,1.46,1.39,1.78l24.94,12.58c2.1,1.06,2.06,4.79-.06,5.81l-25.21,12.03c-.65.31-1.17.94-1.43,1.75l-10.17,31.29c-.86,2.63-3.84,2.6-4.64-.05Z"/>
    <path class="cls-14" d="m2010.23,172.88l-4.3-14.27c-.11-.37-.34-.66-.63-.81l-11.3-5.7c-.95-.48-.93-2.17.03-2.63l11.42-5.45c.29-.14.53-.43.65-.79l4.61-14.18c.39-1.19,1.74-1.18,2.1.02l4.3,14.27c.11.37.34.66.63.81l11.3,5.7c.95.48.93,2.17-.03,2.63l-11.42,5.45c-.29.14-.53.43-.65.79l-4.61,14.18c-.39,1.19-1.74,1.18-2.1-.02Z"/>
    <path class="cls-29" d="m2198.47,666.64l-9.48-31.51c-.24-.81-.75-1.46-1.39-1.78l-24.94-12.58c-2.1-1.06-2.06-4.79.06-5.81l25.21-12.03c.65-.31,1.17-.94,1.43-1.75l10.17-31.29c.86-2.63,3.84-2.6,4.64.05l9.48,31.51c.24.81.75,1.46,1.39,1.78l24.94,12.58c2.1,1.06,2.06,4.79-.06,5.81l-25.21,12.03c-.65.31-1.17.94-1.43,1.75l-10.17,31.29c-.86,2.63-3.84,2.6-4.64-.05Z"/>
    <path class="cls-40" d="m2200.03,640.19l-4.3-14.27c-.11-.37-.34-.66-.63-.81l-11.3-5.7c-.95-.48-.93-2.17.03-2.63l11.42-5.45c.29-.14.53-.43.65-.79l4.61-14.18c.39-1.19,1.74-1.18,2.1.02l4.3,14.27c.11.37.34.66.63.81l11.3,5.7c.95.48.93,2.17-.03,2.63l-11.42,5.45c-.29.14-.53.43-.65.79l-4.61,14.18c-.39,1.19-1.74,1.18-2.1-.02Z"/>
    <path class="cls-13" d="m1705.47,833.97l-9.53-31.66c-.25-.82-.75-1.46-1.4-1.79l-25.07-12.64c-2.11-1.06-2.07-4.82.06-5.84l25.34-12.09c.65-.31,1.17-.95,1.44-1.76l10.22-31.45c.86-2.64,3.86-2.61,4.66.05l9.53,31.66c.25.82.75,1.46,1.4,1.79l25.07,12.64c2.11,1.06,2.07,4.82-.06,5.84l-25.34,12.09c-.65.31-1.17.95-1.44,1.76l-10.22,31.45c-.86,2.64-3.86,2.61-4.66-.05Z"/>
    <path class="cls-24" d="m1707.04,807.39l-4.32-14.34c-.11-.37-.34-.66-.63-.81l-11.36-5.73c-.96-.48-.94-2.18.03-2.64l11.48-5.48c.3-.14.53-.43.65-.8l4.63-14.25c.39-1.2,1.75-1.18,2.11.02l4.32,14.34c.11.37.34.66.63.81l11.36,5.73c.96.48.94,2.18-.03,2.64l-11.48,5.48c-.3.14-.53.43-.65.8l-4.63,14.25c-.39,1.2-1.75,1.18-2.11-.02Z"/>
    <path class="cls-20" d="m2218.36,400.07l-9.48-31.51c-.24-.81-.75-1.46-1.39-1.78l-24.94-12.58c-2.1-1.06-2.06-4.79.06-5.81l25.21-12.03c.65-.31,1.17-.94,1.43-1.75l10.17-31.29c.86-2.63,3.84-2.6,4.64.05l9.48,31.51c.24.81.75,1.46,1.39,1.78l24.94,12.58c2.1,1.06,2.06,4.79-.06,5.81l-25.21,12.03c-.65.31-1.17.94-1.43,1.75l-10.17,31.29c-.86,2.63-3.84,2.6-4.64-.05Z"/>
    <path class="cls-33" d="m2220.09,373.31l-4.3-14.27c-.11-.37-.34-.66-.63-.81l-11.3-5.7c-.95-.48-.93-2.17.03-2.63l11.42-5.45c.29-.14.53-.43.65-.79l4.61-14.18c.39-1.19,1.74-1.18,2.1.02l4.3,14.27c.11.37.34.66.63.81l11.3,5.7c.95.48.93,2.17-.03,2.63l-11.42,5.45c-.29.14-.53.43-.65.79l-4.61,14.18c-.39,1.19-1.74,1.18-2.1-.02Z"/>
    <g>
      <path class="cls-39" d="m2298.55,699.13l-21.46-29.02c-4.64-6.27.84-15.63,8.39-14.34l37.59,6.46c3.08.53,6.27-.83,8.23-3.52l24.66-33.63c4.59-6.26,13.79-4.03,14.8,3.57l5.41,40.84c.45,3.36,2.7,6.05,5.79,6.92l40.68,11.36c7.42,2.07,7.94,12.9.8,16.48l-35.23,17.64c-3.15,1.58-5.16,4.98-5.07,8.59l1.17,44.45c.21,8-9.01,12.58-14.33,7.11l-32.32-33.21c-2.06-2.12-5.08-2.88-7.94-2.01l-46.49,14.18c-7.46,2.27-13.21-6.25-8.85-13.13l24.36-38.46c2.04-3.22,1.96-7.36-.2-10.29Z"/>
      <path class="cls-7" d="m2318.6,698.96l-12.49-16.9c-2.5-3.38.45-8.41,4.52-7.71l21.82,3.75c1.66.28,3.37-.45,4.43-1.89l14.26-19.45c2.47-3.37,7.42-2.17,7.96,1.92l3.13,23.62c.24,1.81,1.45,3.26,3.12,3.72l23.56,6.58c3.99,1.11,4.27,6.94.43,8.86l-20.48,10.25c-1.7.85-2.78,2.68-2.72,4.62l.67,25.71c.11,4.3-4.85,6.77-7.71,3.83l-18.63-19.15c-1.11-1.14-2.73-1.55-4.27-1.08l-26.8,8.18c-4.01,1.22-7.11-3.36-4.76-7.06l14.1-22.27c1.1-1.73,1.05-3.96-.11-5.53Z"/>
    </g>
    <path class="cls-23" d="m1255.29,464.67l-15.49-29.03c-.4-.75-1.02-1.28-1.71-1.47l-26.93-7.43c-2.26-.62-2.96-4.3-1.08-5.71l22.36-16.75c.58-.43.96-1.16,1.06-2l3.82-32.68c.32-2.75,3.25-3.3,4.56-.86l15.49,29.03c.4.75,1.02,1.28,1.71,1.47l26.93,7.43c2.26.62,2.96,4.3,1.08,5.71l-22.36,16.75c-.58.43-.96,1.16-1.06,2l-3.82,32.68c-.32,2.75-3.25,3.3-4.56.86Z"/>
    <path class="cls-34" d="m1247.29,438.61l-4.3-14.27c-.11-.37-.34-.66-.63-.81l-11.3-5.7c-.95-.48-.93-2.17.03-2.63l11.42-5.45c.29-.14.53-.43.65-.79l4.61-14.18c.39-1.19,1.74-1.18,2.1.02l4.3,14.27c.11.37.34.66.63.81l11.3,5.7c.95.48.93,2.17-.03,2.63l-11.42,5.45c-.29.14-.53.43-.65.79l-4.61,14.18c-.39,1.19-1.74,1.18-2.1-.02Z"/>
    <polygon class="cls-2" points="1667.95 454.19 1650.02 308.1 1756.68 404 1840.93 337.68 1817.62 429.99 1974.47 469.43 1831.96 513.34 1885.74 644.2 1762.91 577.14 1709.18 695.29 1679.6 550.99 1521.86 520.51 1667.95 454.19"/>
    <path class="cls-9" d="m1723.17,472.06l1.7-27.83c.34-5.56,7.7-8.3,11.27-4.2l19.18,22.01c1.46,1.67,3.85,2.34,6.18,1.73l31.36-8.21c5.43-1.42,9.49,3.93,6.52,8.6l-17.09,26.97c-1.31,2.06-1.31,4.57,0,6.43l18.53,26.38c3.14,4.47-1.58,10.71-7.18,9.5l-29.84-6.45c-2.47-.53-5.16.46-6.77,2.5l-21.41,27.09c-3.58,4.54-10.79,2.95-11.21-2.46l-2.67-35.25c-.16-2.1-1.47-3.87-3.46-4.67l-34.55-13.85c-5.17-2.07-4.41-9.38,1.18-11.25l33.62-11.25c2.62-.88,4.49-3.21,4.65-5.8Z"/>
  </g>
</svg>