<?xml version="1.0" encoding="UTF-8"?>
<svg id="Capa_1" data-name="Capa 1" xmlns="http://www.w3.org/2000/svg" xmlns:xlink="http://www.w3.org/1999/xlink" viewBox="0 0 520.04 456.42">
  <defs>
    <style>
      .cls-1 {
        fill: #fff;
      }

      .cls-2 {
        fill: #69a2bf;
        font-family: Pacifico-Regular, Pacifico;
        font-size: 57.07px;
      }

      .cls-3 {
        letter-spacing: 0em;
      }

      .cls-4 {
        fill: #741613;
      }

      .cls-5 {
        fill: url(#Degradado_sin_nombre_5-2);
      }

      .cls-6 {
        fill: url(#Degradado_sin_nombre_5);
      }

      .cls-7 {
        letter-spacing: -.01em;
      }
    </style>
    <radialGradient id="Degradado_sin_nombre_5" data-name="Degradado sin nombre 5" cx="438.74" cy="360.22" fx="438.74" fy="360.22" r="82.12" gradientUnits="userSpaceOnUse">
      <stop offset="0" stop-color="#f9ea32"/>
      <stop offset="1" stop-color="#f7db5f"/>
    </radialGradient>
    <radialGradient id="Degradado_sin_nombre_5-2" data-name="Degradado sin nombre 5" cx="799.99" cy="1674.48" fx="799.99" fy="1674.48" r="57.8" gradientTransform="translate(541.62 -1647.23) rotate(41.14)" xlink:href="#Degradado_sin_nombre_5"/>
  </defs>
  <ellipse class="cls-4" cx="261.87" cy="228.21" rx="227.05" ry="228.21"/>
  <path class="cls-6" d="m423.17,376.97c-8.85-11.5-56.29-3.02-64.2-16.79-8.1-14.1,17.45-21.52,40.53-26.75,21.61-4.89,17.72-8.1,17.82-13.41s-7.49-35.13,1.2-41.64c8.69-6.51,23.19,17.98,30.9,31.63,0,0,6.72,11.28,21.37,1.73,16.78-10.93,36.24-19.87,42.63-13.69,5.59,5.41-13.55,26.28-22.01,36.46-5.18,6.24-13.37,13.08-.69,22.36,12.68,9.29,35.33,26.64,27.82,34.51-7.51,7.88-36.3-3.22-41.6-3.75s-8.03-4.78-15.47,16.15c-7.94,22.36-18.36,46.92-31.44,37.18-12.78-9.51-.82-54.46-6.87-63.99Z"/>
  <path class="cls-5" d="m26.37,141.79c.63-10.19-28.44-27.66-26.25-38.63,2.24-11.23,19.22-3.33,33.87,4.59,13.72,7.41,13.14,3.91,15.66,1.14,2.52-2.77,12.3-22.09,19.92-21.52,7.62.57,3.97,20.27,1.73,31.07,0,0-1.66,9.09,10.53,10.81,13.96,1.97,28.41,6.25,28.94,12.49.46,5.46-19.35,7.65-28.55,9.13-5.63.91-13.14.74-10.72,11.54s6.39,30.48-1.23,31.18c-7.63.7-17.75-18.52-20.31-21.25s-2.04-6.26-15.68,1.4c-14.56,8.17-31.46,16.37-33.88,5.15-2.37-10.96,24.78-29.25,25.99-37.1Z"/>
  <text class="cls-2" transform="translate(184.86 321.27) rotate(-.68) scale(1.07 1)"><tspan x="0" y="0">desi</tspan><tspan class="cls-7" x="90.22" y="0">g</tspan><tspan class="cls-3" x="116.93" y="0">n</tspan></text>
  <g>
    <path class="cls-1" d="m120.41,267.07c-4.41,1.15-8.18.43-11.39-2.17-3.21-2.61-6.22-7.21-9.02-13.84s-5.8-15.38-8.96-26.27c-2.37-8.15-4.17-15.33-5.38-21.56-1.21-6.22-1.11-11.39.35-15.49,1.46-4.1,4.91-6.9,10.32-8.32,4.18-1.1,7.6-.94,10.2.42,2.6,1.36,4.65,3.5,6.14,6.39,1.49,2.89,2.71,6.16,3.68,9.8.97,3.64,1.88,7.27,2.74,10.9,1.5-1.07,2.96-1.98,4.38-2.75,1.42-.77,3.8-1.53,7.14-2.25,6.97-1.51,13.15-1.17,18.41.92,5.26,2.1,9.51,5.45,12.75,9.99,3.24,4.54,5.31,9.83,6.29,15.81.5,3.08.87,6.22,1.11,9.42.24,3.21.12,6.21-.34,9.01-.47,2.8-1.41,5.18-2.83,7.13-1.42,1.96-3.54,3.19-6.4,3.73-3.66.68-6.51.43-8.57-.79-2.06-1.22-3.62-3.24-4.68-6.07-1.06-2.83-2-6.19-2.81-10.09-.94-4.49-2.25-8.11-3.95-10.85-1.7-2.74-4.13-3.77-7.24-3.08-3.11.69-4.92,2.67-5.39,5.89-.48,3.23-.26,7.14.75,11.57.87,3.84,1.48,7.35,1.69,10.41.21,3.07-.34,5.62-1.62,7.67-1.29,2.05-3.73,3.53-7.34,4.46Z"/>
    <path class="cls-1" d="m210.25,251.32c-6.61.76-12.6.09-17.97-1.98-5.36-2.07-9.83-5.19-13.42-9.43-3.59-4.24-6.02-9.18-7.03-14.76-1.04-5.74-.34-11.19,2.09-16.15,2.43-4.95,6.28-9.16,11.57-12.54,5.29-3.38,11.67-5.42,18.89-6.16,7.13-.73,13.65.03,19.33,2.34,5.68,2.32,10.24,5.73,13.66,10.17,3.43,4.44,5.34,9.66,5.7,15.49.34,5.57-.98,10.8-3.75,15.55-2.76,4.76-6.65,8.63-11.65,11.69-5,3.06-10.82,5-17.43,5.77Zm-1.4-18.91c2.51-.24,4.61-1.34,6.33-3.31,1.72-1.97,2.49-4.16,2.3-6.57-.19-2.42-1.31-4.44-3.36-6.04-2.06-1.61-4.39-2.29-6.98-2.05-2.59.25-4.75,1.36-6.47,3.33-1.72,1.97-2.43,4.16-2.16,6.57.27,2.41,1.44,4.41,3.5,6.02,2.06,1.61,4.33,2.29,6.84,2.05Z"/>
    <path class="cls-1" d="m262.19,267.13c-3.41.02-6.07-1.26-8.01-3.86-1.95-2.6-3.36-6.01-4.24-10.23-.88-4.22-1.46-8.75-1.74-13.59-.28-4.84-.49-9.43-.62-13.75-.11-3.81-.12-7.9,0-12.28.11-4.37.57-8.55,1.4-12.51.83-3.96,2.35-7.23,4.59-9.78,2.24-2.55,5.38-3.86,9.38-3.87,3.1-.01,5.5.52,7.19,1.57,1.69,1.05,2.97,2.28,3.84,3.68,2.3-1.44,5.16-2.58,8.57-3.4,3.41-.82,7.08-1.15,10.98-.97,6.49.29,12.34,2.03,17.44,5.18,5.1,3.15,8.99,7.2,11.68,12.1,2.68,4.9,3.69,10.16,3.13,15.76-.56,5.6-2.59,10.57-5.97,14.95-3.39,4.38-7.61,7.75-12.66,10.16-5.06,2.41-10.47,3.47-16.33,3.21-3.61-.16-6.93-.73-9.98-1.72-3.05-.99-5.61-2.27-7.69-3.86-.06,4.33-.27,8.26-.63,11.81-.36,3.54-1.3,6.33-2.81,8.35-1.51,2.02-4,3.02-7.5,3.04Zm28.86-39.19c2.43.1,4.6-.63,6.52-2.22,1.92-1.59,2.96-3.5,3.09-5.74.13-2.25-.68-4.27-2.46-6.06-1.78-1.79-3.93-2.74-6.43-2.85-2.51-.11-4.73.66-6.65,2.28-1.92,1.63-2.91,3.57-2.97,5.82-.06,2.25.81,4.24,2.59,5.99,1.78,1.75,3.87,2.67,6.31,2.77Z"/>
    <path class="cls-1" d="m353.99,191.74c-4.88-.68-8.8-2.73-11.85-6.19-3.05-3.46-4.36-7.37-3.87-11.76.33-2.92,1.42-5.46,3.29-7.6,1.87-2.13,4.28-3.75,7.22-4.82,2.94-1.07,6.15-1.37,9.59-.89,3.34.47,6.29,1.63,8.83,3.46,2.53,1.84,4.44,4.05,5.71,6.63,1.27,2.58,1.64,5.32,1.15,8.22-.49,2.9-1.74,5.39-3.73,7.47-1.99,2.09-4.42,3.62-7.28,4.63-2.86,1-5.87,1.28-9.05.83Zm-8.73,62.37c-3.59-.5-6.13-1.83-7.64-4.03-1.51-2.2-2.33-5.37-2.44-9.52-.11-4.15.12-9.51.83-15.92.71-6.41,1.69-11.7,2.81-15.75,1.12-4.05,2.78-6.93,4.99-8.61,2.21-1.69,5.29-2.27,9.23-1.72,3.94.55,6.72,1.96,8.33,4.18,1.61,2.22,2.42,5.44,2.43,9.65.01,4.21-.56,9.56-1.55,15.93-.99,6.37-2.08,11.61-3.37,15.57-1.29,3.96-3,6.78-5.1,8.46-2.11,1.69-4.94,2.27-8.52,1.76Z"/>
    <path class="cls-1" d="m398.48,264.14c-6.64-1.58-12.19-4.09-16.74-7.62-4.55-3.54-7.87-7.73-9.94-12.64-2.08-4.91-2.67-10.22-1.66-15.93.97-5.54,3.36-10.4,7.25-14.53,3.89-4.13,8.84-7.07,14.83-8.76,6-1.69,12.58-1.73,19.63-.06,6.56,1.55,11.9,4.12,15.95,7.61,4.05,3.49,6.79,7.34,8.23,11.48,1.45,4.14,1.58,8.13.47,11.96-1.11,3.83-3,6.68-5.63,8.58-2.63,1.91-5.65,3.08-9.05,3.55-3.41.47-6.89.47-10.46.01-3.57-.46-6.92-1.2-10.05-2.25-3.13-1.05-5.72-2.14-7.78-3.3,1.11,2.82,2.81,4.95,5.11,6.41,2.29,1.46,4.83,2.47,7.62,3.02,2.79.55,5.39.95,7.74,1.09,2.92.17,5.23.89,6.81,2.22,1.57,1.33,2.13,2.93,1.72,4.79-.34,1.52-1.31,2.87-2.92,4.04-1.61,1.17-4.11,1.86-7.47,2.09-3.37.23-7.91-.38-13.66-1.74Zm-1.12-37.29c.64,1.56,1.8,2.81,3.45,3.77,1.65.95,3.41,1.56,5.28,1.83,1.86.26,3.52.18,4.97-.27,1.45-.45,2.34-1.34,2.68-2.68.36-1.43.04-2.87-.96-4.32-1-1.45-2.88-2.51-5.64-3.16-2.67-.63-4.89-.35-6.64.81-1.76,1.16-2.8,2.5-3.13,4.03Z"/>
  </g>
</svg>