<?xml version="1.0" encoding="UTF-8"?>
<svg id="Capa_2" data-name="Capa 2" xmlns="http://www.w3.org/2000/svg" viewBox="0 0 676.87 684.46">
  <defs>
    <style>
      .cls-1 {
        fill: #fff;
      }

      .cls-2 {
        fill: #556cab;
      }

      .cls-3 {
        fill: #e5f2fa;
      }

      .cls-4 {
        fill: #2c3062;
      }

      .cls-5 {
        fill: #242b57;
      }

      .cls-6 {
        fill: none;
        opacity: .99;
        stroke: #2c3062;
        stroke-linecap: round;
        stroke-linejoin: round;
        stroke-width: 11.34px;
      }

      .cls-7 {
        fill: #e5f2fc;
      }
    </style>
  </defs>
  <g id="MAPU">
    <g>
      <rect class="cls-7" width="676.87" height="684.46"/>
      <g>
        <path class="cls-6" d="m81,441.16c0-10,47.14-84.22-18.54-35.46-34.4,25.54,67.29-68.1-6.45-37.07-34.77,14.63,51.17-50.37-2.01-52.38-29.88-1.13,141.43-37.47,138.21-76.56-7.25-49.16-17.73-132.17,4.84-132.97,22.56-.81,32.24,3.22,74.14,61.25,46.74-20.55,55.61-22.56,55.61-22.56,0,0-2.82-30.62-.81-35.46,4.03-9.67,25.79,33.04,25.79,33.04,0,0,24.75-19.71,33.85-24.98,20.15-11.69-21.28,29.82-16.12,35.06,6.89,6.99,25.12-16.75,46.74-18.13,18.94-1.21-23.77,20.95-10.07,37.07,34.65,15.71,68.9,44.32,68.9,44.32,0,0,50.79-53.89,82.6-29.41,18.26,14.05,7.66,31.83-19.74,93.89-1.21,14.91-2.82,20.15,27.4,22.56s46.74,8.86,46.74,8.86l-17.73,11.69s-26.19,23.77,2.42,20.55c33.85-9.27,31.43-5.64,31.43-5.64,0,0-23.77,22.56-15.31,29.01,8.46,6.45,26.21-3.81,28.61,2.42,4.03,10.48-47.95,17.73-39.89,17.73"/>
        <path class="cls-2" d="m354.08,246.79c-5.46-4.17-3.95-9.1-5.05-15.88-1.13-6.96-6.46-17.85-13.35-19.38-3.75-.83-7.61,1.82-9.32,5.26s-1.73,7.47-1.43,11.3c2.24,29.26,14.41,57.42,20.07,86.22,3.16,16.09,8.03,30.42,6.17,46.71-.59,5.18-.45,11.88,4.4,13.77,4.12,1.6,8.73-2.09,9.9-6.35s-.89-8.67-.98-13.09c-.96-47.07-.06-67.82,19.1-94.98,7.11-10.08,16.01-19.55,18.71-31.57,1.29-5.73.82-12.36-3.29-16.55-5-5.1-13.71-4.65-19.8-.93s-10.18,9.9-14.06,15.89c-5.56,8.57-11.12,17.14-16.68,25.72"/>
        <path class="cls-4" d="m548.55,410.3c-24.98,9.66-74.46,25.42-84.97,28.81-15.61,5.03-32.33,11.66-47.02,18.91s-42.36,13.14-58.35,9.48c-1.17-.27-3.01-1.92-3.1-3.1-.08-1.14,2.94-4.68,4.01-5.11,6.54-2.63,9.41-9.61,12.72-15.83,5.83-10.94,4.61-11.01,6.02-18.23,2.2-11.28-3.26-19.56-9.64-29.15.94-5.98,1.9-12.06,3.17-18.06,2.1-9.98,5.05-19.73,10.14-28.43,5.72-9.77,13.11-17.92,20.6-26.44,14.75-16.76,38.12-23.28,60.35-20.24,22.23,3.04,30.01,6.04,47.59,19.87,16.29,12.83,29.35,20.97,42.12,28.99,3.68,2.32,24.01,17.69,27.53,20.24,5.36,6.18,24.19,6.61,19.51,13.31-2.68,3.84-21.66,13.14-26.07,14.77-20.24,7.48-16.25,8.25-24.61,10.21Z"/>
        <path class="cls-4" d="m339.26,387.74c-2.51-15.91-15.73-21.26-23.89-35.19-5.72-9.77-12.02-26.49-19.51-35.01-14.75-16.76-39.09-23.16-61.32-20.12-22.23,3.04-42.54,14.39-60.12,28.22-16.29,12.83-18.95,13.05-48.13,33.47-3.56,2.49-11.38,3.96-14.9,6.5-3.52,2.54-5.99,7.17-4.44,11.21,2.02,5.27,9.83,7.47,15.52,7.63-.03,5.3-5.66,7.8-10.21,10.58-5.39,3.28-12.4,12.73-11.67,18.96.73,6.23,2.38,9.89,8.39,11.85-5.36,6.18-10.9,12.58-6.22,19.27,2.68,3.84,9.38,1.08,13.86-.36,8.17-2.63,15.52-3.54,24.07-4.38,14.88-1.45,26.51-1.28,41.39-2.73,6.69-.65,14.42.64,21.15.55,11.04-.15,28.51,1.35,39.02,4.74,15.61,5.03,13.75,10.44,28.44,17.69,14.69,7.25,42.36,13.14,58.35,9.48,1.17-.27,3.01-1.92,3.1-3.1.08-1.14-2.94-4.68-4.01-5.11-6.54-2.63-12.87-.83-18.96-4.38-6.4-3.73-9.17-9.55-10.58-16.77-2.2-11.28.88-25.9,7.26-35.49,6.38-9.59,19.36-15.74,31.78-12.4"/>
        <path class="cls-7" d="m488.69,354.89c-4.58,2.75-12.05-.83-6.98-6.71,8.95-10.38,17.28-11.82,17.28-11.82,0,0,3.31-1.61,6.8,1.79,3.86,3.76-4.83,9.85-4.83,9.85,0,0-8.23,4.48-12.26,6.89Z"/>
        <path class="cls-7" d="m505.06,374.59c-2.71.22-17.87-.84-10.03-7.42,7.84-6.57,19.81-6.57,22.5-5.65,3.46,1.18,10.2,5.23-.76,10.03-2.51,1.1-6.49,2.61-11.72,3.03Z"/>
        <path class="cls-7" d="m512.19,402.01c-4.29,1.16-25.45,3.12-13.23-11.72,8.8-10.68,35.99-9.52,35.99-9.52,0,0,13.49-.51,13.4,2.7-.06,2.23-26.51,15.94-36.16,18.54Z"/>
        <ellipse class="cls-1" cx="291.12" cy="362.43" rx="9.95" ry="12.22"/>
        <ellipse class="cls-1" cx="403.78" cy="374.8" rx="12.1" ry="9.07" transform="translate(-122.7 537.09) rotate(-60)"/>
        <ellipse class="cls-4" cx="335.63" cy="429.77" rx="23.85" ry="24.36"/>
        <path class="cls-3" d="m329.98,430.53c-.94-2.87-.9-7.02,2.11-8.01.21-2.54,7.59,1.18,7.08-4.3,0,0-.84-2.95-4.72-3.46-2.33-.3-2.48-.25-4.77.26-3.56.79-6.2,3.78-7.51,7.02-1.43,3.54-1.55,7.54-.34,11.16.22.64.52,1.33,1.15,1.64.72.35,3.52.99,4.21.58,2.03-1.2,3.21-1.66,2.7-3.88"/>
        <path class="cls-7" d="m202.68,363.67c4.93,2.06,11.81-2.56,5.94-7.65-10.35-8.98-18.8-9.2-18.8-9.2,0,0-3.51-1.12-6.47,2.75-3.28,4.28,6.2,9.05,6.2,9.05,0,0,8.79,3.24,13.13,5.05Z"/>
        <path class="cls-7" d="m182.13,384.96c4.04.99,27.14,3.81,16.69-6.05-10.45-9.86-28.51-13.07-32.77-12.71-5.46.46-16.49,3.42-.96,12.03,3.56,1.97,9.24,4.83,17.04,6.73Z"/>
        <path class="cls-7" d="m185.57,416.85c4.41-.52,24.79-6.56,7.93-15.79-12.14-6.65-36.95,4.53-36.95,4.53,0,0-12.71,4.54-11.44,7.48.88,2.04,30.53,4.95,40.46,3.78Z"/>
        <path class="cls-5" d="m210.56,204.01c8.55.9,16.81-2.98,24.3-7.07,3.63-1.99,7.25-4.07,10.37-6.74,3.13-2.67,5.78-5.98,7.05-9.81,1.3-3.92,2-5.65-.12-9.22-1.06-1.79-2.78-3.61-4.3-5.06-2.18-2.08-6.29-7.79-8.67-9.67-3.02-4.19-13.9-13.5-18.84-15.33-2.54-.94-5.25-1.67-7.96-1.42s-5.44,1.62-6.64,3.98c-.49.97-.71,2.04-.9,3.11-2.4,13.03-2.56,26.45-.48,39.53.99,6.22,2.61,12.62,6.77,17.47"/>
        <path class="cls-5" d="m525.77,214.54c-2.72-.85-5.61.63-8.04,2.1-7.48,4.51-14.68,9.46-21.53,14.8-1.45,1.13-2.96,2.39-3.41,4.11-.55,2.09.69,4.26,2.35,5.7,1.67,1.44,3.75,2.38,5.6,3.62,2.18,1.47,4.03,3.37,5.39,5.55,1.99,3.2,2.93,6.93,5.11,10.02s6.38,5.46,10.01,3.98c2.09-.85,3.45-2.75,4.67-4.57,7.27-10.83,13.72-22.85,13.7-35.61,0-1.44-.09-2.89-.61-4.24-1.46-3.82-6.12-5.84-10.44-5.75s-8.4,1.84-12.34,3.55"/>
      </g>
      <g>
        <path class="cls-2" d="m186.04,577.64c-.26-1.77.29-3.29.63-4.85.35-1.63.66-3.28.93-4.96.54-3.36.94-6.81,1.21-10.3.53-6.94.58-14.04.34-21.15-.07-1.97-.15-3.94-.26-5.91-.05-.13-.06-.28-.05-.42,0-.07,0-.15.01-.22-.29-5.05-.72-10.09-1.29-15.1-.33-2.91-.94-6.34,1.45-8.87,1.17-1.24,3.24-2.13,5.11-2.48,1.15-.21,2.69-.26,3.78-.28,1.68-.04,3.96-.18,5.76.18.23.05,3.48-.39,6.08,1.79.75.63,1.47,1.3,2.17,1.97.79.76,1.59,1.52,2.38,2.29,3.13,3.04,6.23,6.18,9.39,9.36,2.21,2.22,4.66,4.5,7.81,5.75,2.61-1.02,4.75-2.81,6.71-4.66,3.21-3.02,6.37-6.17,9.55-9.36.81-.81,1.61-1.62,2.42-2.44.72-.73,1.54-1.38,2.21-2.15,3.29-3.81,10.24-2.2,11.87-2.15,1.06.03,2.64.09,3.78.35,1.84.42,3.92,1.55,5.09,3.13,2.37,3.22,1.73,7.58,1.36,11.22-.63,6.26-1.11,12.53-1.46,18.8,0,.09,0,.19,0,.28.01.18,0,.35-.05.51-.13,2.44-.24,4.89-.33,7.33-.32,8.82-.36,17.67.11,26.56.24,4.47.6,8.96,1.12,13.46.26,2.24.56,4.48.9,6.72.33,2.15.88,4.39.6,6.5,0,.07-.02.14-.03.2,0,.05,0,.1-.01.15-.3,3.11-4.05,4.14-7.11,3.59-1.24-.22-2.88-.71-4.01-.8-.96-.08-2.69-.38-3.71-.64-1.22-.31-2.98-.29-4.49-.67-2.32-.58-4.99-1.73-6.1-3.96-.84-1.69-.73-3.53-.47-5.12.34-2.07.79-4.1,1.12-6.18.67-4.14,1.18-8.33,1.55-12.57.74-8.42.95-16.97.85-25.53-.07-6.31-.3-12.62-.68-18.91-.13-2.14-3.12-3.15-4.65-1.59-.01.01-.02.03-.04.04-7.67,3.87-9.85,17.09-14.75,16.38-1.17-.17-2.3.48-3.38.04-.27-.01-.55-.25-.83-.29-2.56-.33-5.09-2.29-6.07-4.46-.26-.59-3.99-11.78-8.36-14.12-.02-.01-.03-.03-.04-.05-1.5-1.61-4.49-1.01-4.65.89-.47,5.58-.78,11.15-.94,16.73-.22,7.58-.13,15.19.48,22.92.31,3.89.75,7.81,1.35,11.78.3,1.99.71,4,1.01,6.01.23,1.54.32,3.26-.53,4.4-1.13,1.51-3.76,1.3-6.04.76-1.48-.35-3.09-1.15-4.4-1.46-.95-.22-2.58-.73-3.62-1.13-1.08-.41-2.65-.74-3.9-1.13-2.94-.91-6.59-3.4-6.85-5.96,0-.04,0-.08,0-.12,0-.05-.02-.11-.03-.17Zm3.45,1.97,18.33-44.55s0,0,0,0c0-.03,0-.05,0-.08,0,.02,0,.05,0,.07Zm46.02,4.58s0,.06,0,.09c0,0,0,0,0,0,0-.03,0-.06,0-.08Zm.04,20.69s.05,0,.07,0c-.02-.12-.04-.24-.06-.36,0,.12,0,.24-.01.36Zm17.93,38.83"/>
        <path class="cls-2" d="m283.18,597.09c-.67-2.79-.44-5.57.04-8.24.47-2.65,1.1-5.28,1.76-7.88.78-3.07,3.66-15.35,3.96-18.54.72-7.77,1.68-15.54,3.17-23.23,1.32-6.82,2.98-13.71,5.79-20.18,2.14-4.92,5.15-9.96,9.98-12.95,5.73-3.55,13.29-3.02,19.15-.07,6.18,3.1,10.09,9.4,12.66,15.52,3.41,8.11,5.15,16.94,6.39,25.57,1.92,13.27,2.5,27.89,5.65,39.97.56,2.16,1.23,4.66,1.38,7.05.1,1.67,2.46,10.23-4.48,13.53-4.31,1.28-10.15,1.36-11.04,1.2-.86-.16-1.96-.22-2.92-.47-2.11-.55-4.34-1.5-5.7-3.24-1.3-1.66-1.84-3.75-2.04-5.76-.24-2.37.09-4.74.49-7.06.25-1.42.53-2.85.72-4.26.16-1.15.3-2.37.42-3.52.21-2.06.2-4.23.03-6.35-.34-4.19-1.51-8.55-4.24-11.96-1.1-1.37-2.45-2.6-4.08-3.33-1.63-.73-3.43-.82-5.09-.31-4.02,1.23-6.16,5.29-6.71,9.09-.32,2.2-.09,4.4.48,6.6.6,2.32,1.35,4.61,1.86,6.96.99,4.48,1.39,9.3-.59,13.4-.8,1.67-2,3.16-3.49,4.28-.7.53-1.47.98-2.29,1.33-.78.33-1.6.53-2.44.73-1.38.33-2.76.65-4.22.69-1.6.05-8.94-.81-9.86-1.37-.1,0-.21-.03-.32-.12-2.33-1.83-3.77-4.43-4.41-7.08Zm.64-2.76c0-.22,0-.43,0-.65.01-.82.05-1.64.11-2.46-.11,1.03-.16,2.06-.11,3.11Zm23.68-17.48s.07.08.1.12c-.03-.17-.06-.35-.09-.52,0,.13,0,.27,0,.4Zm3.26-41.93c.31,1.43,1.12,3.04,1.94,4.36.06.06.12.12.18.18.49.45,1.15.86,1.78,1.08.85.3,1.62.39,2.53.35,1.31-.05,2.53-.47,3.54-1.22.37-.35.71-.73,1.04-1.15.43-.56.87-1.19,1.16-1.8.24-.5.39-1.11.5-1.7.31-1.51.26-3.22-.11-4.74-.2-.8-.45-1.51-.81-2.19-.37-.7-.75-1.24-1.29-1.78-1.05-1.05-2.4-1.62-3.9-1.63-.17,0-.29-.06-.37-.16-1.42.24-2.72.99-3.72,2.06-1.09,1.16-1.81,2.67-2.21,4.23-.33,1.32-.53,2.9-.26,4.12Zm2.92,14.17s.05,0,.07,0c.19-.2.04-.27-.07,0Zm1.25-2.19s-.07-.03-.11-.05c.19.17.23.18.11.05Z"/>
        <path class="cls-2" d="m421.52,527.68c2.19,6.83,2.16,14.06-.07,21.09-2.27,7.18-7.04,13.73-13.49,18.53-6.45,4.8-14.4,7.39-22.31,8.05.05.79.11,1.58.17,2.37.36,4.61.85,9.2,1.51,13.76.33,2.29.78,4.55,1.11,6.83.26,1.76.37,3.77-.49,5.49-1.14,2.27-3.84,3.15-6.19,3.46-1.53.21-11.41.7-12.92.71-.99,0-2.09-.15-3.01-.47-.71-.25-1.42-.57-2.01-1.05-1.09-.89-1.54-2.17-1.7-3.52-.27-2.24.3-4.53.64-6.76.36-2.32.67-4.64.95-6.97.55-4.68.94-9.37,1.21-14.06.52-9.33.52-18.68.27-27.98-.26-9.45-.82-19.01-1.68-28.43-.35-3.84-.96-8.42,1.43-11.8.88-1.25,2.17-2.3,3.62-2.88.52-.22,1.07-.38,1.62-.47,1.68-.55,3.6-.6,5.19-.03.54.04,2.85.02,3.45,0,.65-.04,1.28.03,1.88.18,8.74-.75,20.03,1.73,27.32,6.61,6.39,4.28,11.27,10.33,13.51,17.32Zm-55.67,76.24,32.01-73.7c-.21-.42-.52-.9-.79-1.23-.1-.12-.31-.33-.46-.48-.09-.08-.18-.15-.27-.22,0,0-.01,0-.02-.01-.02-.01-.03-.02-.05-.03-.04-.03-.08-.05-.12-.08-.1-.06-.19-.11-.29-.16-.04-.02-.09-.04-.13-.06,0,0,0,0-.01,0-.02,0-.04-.01-.05-.02-.1-.03-.21-.06-.32-.09-.04,0-.2-.03-.22-.04-.1,0-.2-.01-.3,0-.06,0-.11,0-.17.01-.02,0-.11.01-.12.01-.13.02-.44.11-.63.18,0,0,0,0-.01,0-.09.05-.18.11-.27.17-.02.01-.02.02-.03.02,0,0-.01.01-.04.03-.04.04-.08.07-.12.11-.09.08-.18.17-.27.27-.11.12-.1.12-.18.22-.15.21-.29.44-.41.67-.12.23-.22.47-.31.73-.23.94-.32,1.92-.35,2.85-.04,1.27.09,2.5.37,3.69.13.38.28.75.46,1.09.25.47.5.82.85,1.15.21.19.27.24.49.36.1.06.21.11.31.15.01,0,.02,0,.02,0,0,0,.02,0,.04.01.05.01.1.03.15.04.43.11.82.08,1.27-.05.27-.08.45-.15.65-.25.12-.06.23-.13.34-.2.05-.04.11-.07.16-.11.02-.01.04-.03.06-.05t0,0c.8-.64,1.22-1.47,1.48-2.42.55-2.03.22-4.43-.71-6.27Zm-3.02-3.41s.04,0,.06,0c0,0-.01-.01-.02-.02-.01,0-.03.01-.04.02Z"/>
        <path class="cls-2" d="m428.7,512.19c-.19-1.03-.26-2.11,0-3.14.23-.91,1.01-1.58,1.39-2.44,2.16-4.84,17.35-4.31,21.65-3.34,2.28.51,4.51,1.55,5.79,3.31,1.47,2.03,1.67,4.64,1.01,6.93-2.34,8.12-1.13,24.92-.95,26.89.11.19.16.41.13.66-.01.12.22,2.82.39,4.03.44,3.08,1.1,6.24,2.63,8.89,1.4,2.43,3.56,4.25,6.61,4.97.79.19,1.64.29,2.5.33.7.04,1.6-.25,2.26-.45,1.44-.44,2.64-1.11,3.91-1.83,5.37-3.02,6.08-9.4,6.19-9.65.27-.6.26-1.83.4-2.73.64-4.16,3.73-20.37,1.06-24.24-.81-1.18-1.59-2.39-2.34-3.62-1.31-2.17-2.33-4.56-2.05-7.08.24-2.19,1.46-4.13,3.77-5.3,1.96-.99,4.31-1.37,6.59-1.5,2.3-.13,4.62,0,6.91.22.93.09,1.86.2,2.78.31.35.04,6.24-.08,9.69,2.94,1.41,1.24,1.29,2.96.82,4.51-.42,1.4-1.27,2.73-2.19,4.03-1.79,2.54-5.58,11.01-5.86,14.51-.2,2.53-.09,5.33-.11,7.99-.04,5.47-.14,10.96-1.07,16.59-.8,4.83-2.2,9.78-4.55,14.77-2.32,4.94-5.6,9.94-9.99,14.49-2.6,2.7-5.9,5.41-9.46,7.15-.57.41-1.16.79-1.78,1.14-2.3,1.3-4.72,2.09-7.1,2.42-.36.15-.73.29-1.1.42-6.34,2.18-12.32-.14-16.48-3.29-4.24-3.22-7.35-7.64-9.54-12.55-2.23-5.01-3.53-10.51-4.27-16.12-.88-6.69-.93-13.55-1.04-20.37-.11-6.47-.26-12.95-1.16-19.37-.16-.32-.34-.63-.51-.93-1.78-3.07-4.27-6.01-4.93-9.57Zm25.81,12.86s0,.02,0,.03c0,0,0,.01.01.02,0-.02-.01-.03-.02-.05Zm39.08-21.38c.77.07,1.55.15,2.25.19.03,0,.07-.01.1-.02-.78-.07-1.56-.13-2.34-.17Zm1.33,65.45c-.04.07-.08.14-.13.21,0,0,0,0,0,0-.01.04-.02.08-.03.12.05-.11.11-.22.16-.33Zm5.26-20.15c.02.1.03.19.04.29.03-.27.05-.54.07-.81-.04.17-.08.35-.12.52Z"/>
      </g>
    </g>
  </g>
</svg>