<?xml version="1.0" encoding="UTF-8"?>
<svg id="Capa_2" data-name="Capa 2" xmlns="http://www.w3.org/2000/svg" viewBox="0 0 679.97 687.14">
  <defs>
    <style>
      .cls-1 {
        fill: #fff;
      }

      .cls-2 {
        letter-spacing: 0em;
      }

      .cls-3 {
        fill: #e94e1b;
      }

      .cls-4 {
        fill: #951b81;
        font-family: BarjonFree-Regular, 'Barjon Free';
        font-size: 226.82px;
      }

      .cls-5 {
        letter-spacing: -.02em;
      }
    </style>
  </defs>
  <g id="NUVO">
    <g>
      <rect class="cls-1" width="679.97" height="687.14"/>
      <path class="cls-3" d="m501.6,191.75h-45.32l-.02-.27-.06-.33-.03-.33-.03-.33-.06-.33-.04-.29-.06-.33-.03-.33-.06-.33-.07-.3-.06-.33-.03-.33-.07-.3-.06-.33-.06-.33-.1-.31-.06-.33-.07-.3-.06-.33-.1-.31-.07-.3-.09-.34-.07-.3-.1-.31-.09-.34-.1-.31-.07-.3-.1-.31-.1-.31-.1-.31-.1-.31-.13-.32-.1-.31-.1-.31-.1-.31-.13-.32-.1-.31-.14-.28-.1-.31-.13-.32-.14-.28-.1-.31-.14-.28-.13-.32-.14-.28-.13-.32-.14-.28-.14-.28-.13-.32-.14-.28-.14-.28-.17-.29-.14-.28-.14-.28-.17-.29-.14-.28-.17-.29-.17-.29-.14-.28-.17-.29-.18-.26-.17-.29-.15-.25-.17-.29-.18-.26-.17-.29-.18-.26-.17-.29-.21-.27-.18-.26-.18-.26-.18-.26-.21-.27-.18-.26-.21-.27-.18-.26-.21-.27-.18-.26-.22-.23-.18-.26-.21-.27-.22-.23-.21-.27-.19-.22-.22-.23-.21-.27-.22-.23-.22-.23-.22-.23-.22-.23-.22-.23-.22-.23-.22-.23-.25-.24-.22-.23-.22-.23-.23-.2-.26-.24-.23-.2-.26-.24-.23-.2-.26-.21-.22-.23-.26-.21-.23-.2-.26-.21-.23-.2-.26-.21-.26-.21-.26-.21-.24-.16-.26-.21-.26-.21-.27-.17-.26-.21-.24-.16-.27-.17-.26-.21-.27-.17-.27-.17-.27-.17-.27-.17-.27-.17-.27-.17-.3-.18-.28-.14-.27-.17-.27-.17-.28-.14-.27-.17-.31-.15-.06-.05-.07-.02-.09-.06-.09-.06-.09-.06-.1-.02-.09-.06-.09-.06-.12-.07-.09-.06-.12-.07-.12-.1-.12-.07-.12-.07-.12-.07-.12-.1-.12-.07-.15-.11-.12-.07-.15-.11-.15-.11-.16-.07-.12-.1-.15-.11-.18-.12-.15-.11-.15-.11-.14-.14-.18-.12-.15-.11-.14-.14-.18-.12-.17-.15-.15-.11-.17-.15-.17-.15-.17-.15-.17-.15-.14-.14-.17-.15-.17-.15-.16-.18-.17-.15-.2-.19-.17-.15-.16-.18-.16-.18-.16-.18-.16-.18-.16-.18-.2-.19-.16-.18-.16-.18-.16-.22-.16-.18-.16-.22-.2-.19-.16-.22-.16-.22-.16-.22-.16-.22-.16-.22-.16-.22-.16-.22-.15-.25-.16-.22-.16-.22-.15-.25-.12-.21-.15-.25-.15-.25-.15-.25-.12-.21-.15-.25-.12-.24-.15-.25-.12-.24-.11-.27-.15-.25-.12-.24-.12-.24-.11-.27-.12-.24-.11-.27-.12-.24-.08-.27-.12-.24-.11-.28-.08-.23-.11-.27-.08-.27-.08-.23-.11-.27-.08-.27-.08-.27-.08-.23-.08-.27-.04-.26-.08-.27-.08-.27-.05-.23-.08-.27-.04-.26-.04-.26-.05-.23-.04-.26-.04-.26-.04-.26-.05-.23-.04-.26-.04-.26-.02-.22-.04-.26-.02-.22-.04-.26-.02-.22-.02-.22v-.25s-.03-.22-.03-.22l-.02-.22-.02-.22-.02-.22-.02-.22v-.21s0-.22,0-.22v-.21s0-.22,0-.22v-.18s-.01-.22-.01-.22v-.18s.02-.21.02-.21v-.18s.01-.18.01-.18v-.18s.01-.18.01-.18v-.18s.01-.18.01-.18v-.18s0-.14,0-.14v-.18s.04-.13.04-.13v-.14s0-.18,0-.18l.03-.13v-.11s.02-.13.02-.13v-.14s.02-.1.02-.1v-.14s.02-.1.02-.1l.02-.1v-.11s.01-.1.01-.1l.02-.1.02-.07v-.11s.03-.31.03-.31l.08-.34v-.32s.05-.34.05-.34l.04-.31.04-.31.05-.34v-.32s.05-.34.05-.34v-.32s.04-.31.04-.31v-.35s.02-.32.02-.32v-.32s.02-.35.02-.35v-.32s0-.32,0-.32v-.35s.02-.32.02-.32v-.32s0-.32,0-.32l-.03-.33v-.35s-.02-.33-.02-.33v-.32s-.02-.33-.02-.33l-.03-.33v-.32s-.02-.33-.02-.33l-.03-.33-.03-.33-.03-.33-.03-.33-.06-.33-.03-.33-.03-.33-.06-.33-.03-.33-.07-.3-.03-.33-.06-.33-.06-.33-.04-.29-.06-.33-.06-.33-.07-.3-.06-.33-.07-.3-.09-.34-.06-.33-.07-.3-.1-.31-.06-.33-.1-.31-.07-.3-.09-.34-.07-.3-.1-.31-.1-.31-.09-.34-.1-.31-.1-.31-.1-.31-.1-.31-.1-.31-.13-.32-.1-.31-.11-.27-.13-.32-.1-.31-.13-.32-.11-.27-.13-.32-.13-.32-.11-.27-.13-.32-.14-.28-.14-.28-.13-.32-.14-.28-.14-.28-.13-.32-.17-.29-.14-.28-.14-.28-.17-.29-.14-.28-.17-.29-.14-.28-.17-.29-.14-.28-.18-.26-.17-.29-.17-.29-.15-.25-.17-.29-.18-.26-.17-.29-.18-.26-.17-.29-.21-.27-.18-.26-.18-.26-.18-.26-.21-.27-.18-.26-.18-.26-.21-.27-.18-.26-.21-.27-.18-.26-.22-.23-.21-.27-.19-.22-.21-.27-.22-.23-.21-.27-.22-.23-.22-.23-.21-.27-.22-.23-.22-.23-.22-.23-.22-.23-.22-.23-.22-.23-.26-.21-.22-.23-.22-.23-.23-.2-.26-.24-.23-.2-.26-.24-.23-.2-.26-.21-.22-.23-.26-.21-.23-.2-.26-.21-.26-.21-.23-.2-.27-.17-.26-.21-.23-.2-.26-.21-.27-.17-.26-.21-.27-.17-.27-.17-.26-.21-.27-.17-.27-.17-.27-.17-.27-.17-.27-.17-.27-.17-.27-.17-.27-.17-.28-.14-.27-.17-.28-.14-.3-.18-.28-.14-.27-.17-.28-.14-.31-.15-.28-.14-.28-.14-.28-.14-.31-.15-.28-.14-.31-.15-.29-.11-.28-.14-.31-.15-.29-.11-.28-.14-.32-.11-.29-.11-.32-.11-.28-.14-.32-.11-.29-.11-.32-.11-.29-.07-.32-.11-.29-.11-.32-.11-.29-.07-.32-.11-.29-.07-.32-.11-.29-.07-.33-.08-.29-.07-.33-.08-.29-.07-.33-.08-.29-.07-.33-.08-.29-.07-.33-.05-.29-.07-.33-.05-.29-.07-.33-.05-.3-.04-.33-.08-.3-.04-.33-.05-.3-.04-.33-.05-.3-.04h-.34s-.3-.05-.3-.05l-.33-.05h-.31s-.3-.04-.3-.04h-.34s-.3-.05-.3-.05h-.34s-.31-.02-.31-.02h-.31s-.34-.02-.34-.02h-.31s-.31-.01-.31-.01h-.31s-.34-.02-.34-.02h-.31s-.32.02-.32.02h-.31s-.34-.02-.34-.02l-.32.03-.32.03h-.31s-.32.02-.32.02l-.32.03-.32.03-.32.03-.32.03-.32.03-.32.03-.32.03-.32.03-.33.06-.32.03-.32.06-.32.03-.33.06-.29.07-.32.03-.33.06-.29.07-.33.06-.32.06-.29.07-.32.06-.29.07-.33.1-.29.07-.32.06-.3.1-.32.06-.3.1-.3.1-.32.06-.3.1-.3.1-.3.1-.3.1-.3.1-.3.1-.3.1-.3.1-.31.14-.3.1-.3.1-.31.14-.3.1-.28.15-.3.1-.31.14-.28.15-.31.14-.27.11-.31.14-.28.15-.31.14-.27.15-.28.15-.28.18-.31.14-.28.15-.28.15-.28.18-.28.15-.28.18-.28.15-.28.18-.25.19-.28.15-.28.18-.05.06-.07.02-.08.05-.08.05-.08.05-.08.05-.08.05-.12.08-.08.05-.11.04-.09.08-.12.08-.11.04-.12.08-.12.08-.12.08-.12.08-.15.07-.12.08-.15.07-.15.07-.12.08-.15.07-.16.1-.15.07-.19.06-.16.1-.15.07-.19.09-.19.06-.16.1-.19.06-.19.09-.19.06-.19.09-.19.06-.23.09-.19.06-.23.09-.19.09-.22.05-.23.09-.22.05-.23.09-.22.05-.23.09-.22.05-.23.09-.25.05-.22.05-.26.08-.25.04-.22.05-.25.05-.26.08-.25.04-.25.04-.25.04-.25.04-.25.04h-.28s-.25.05-.25.05l-.25.04h-.28s-.25.05-.25.05l-.28.04h-.28s-.24.01-.24.01l-.28.04h-.28s-.24.01-.24.01h-.28s-.28,0-.28,0h-.28s-.28,0-.28,0h-.28s-.28,0-.28,0l-.27-.03h-.28s-.27-.03-.27-.03h-.28s-.27-.03-.27-.03l-.27-.03-.27-.03-.27-.03-.27-.03-.27-.03-.27-.03-.27-.03-.26-.06-.27-.03-.26-.06-.27-.03-.26-.06-.26-.06-.26-.06-.26-.06-.26-.06-.23-.06-.26-.06-.26-.06-.25-.1-.23-.06-.25-.1-.23-.06-.25-.1-.23-.06-.25-.1-.22-.09-.22-.09-.22-.09-.22-.09-.22-.09-.22-.09-.22-.09-.22-.09-.22-.09-.18-.12-.22-.09-.19-.08-.21-.12-.19-.08-.18-.11-.22-.09-.18-.12-.19-.08-.15-.11-.19-.08-.18-.12-.16-.07-.18-.12-.15-.11-.16-.07-.15-.11-.15-.11-.16-.07-.15-.11-.15-.11-.12-.07-.15-.11-.12-.07-.12-.1-.12-.1-.12-.07-.12-.1-.12-.07-.08-.09-.12-.07-.09-.06-.08-.09-.09-.06-.09-.06-.08-.09-.09-.06-.06-.05-.09-.06-.06-.05-.06-.05-.12-.1-.26-.21-.26-.21-.26-.21-.24-.16-.26-.21-.26-.21-.27-.17-.26-.21-.27-.17-.27-.17-.23-.2-.27-.17-.27-.17-.27-.17-.3-.18-.27-.17-.27-.17-.28-.14-.27-.17-.27-.17-.28-.14-.27-.17-.31-.15-.27-.17-.28-.14-.28-.14-.31-.15-.28-.14-.28-.14-.31-.15-.28-.14-.28-.14-.31-.15-.29-.11-.28-.14-.32-.11-.28-.14-.32-.11-.28-.14-.29-.11-.32-.11-.29-.11-.32-.11-.29-.11-.32-.11-.29-.11-.33-.08-.29-.11-.32-.11-.29-.07-.32-.11-.29-.07-.33-.08-.29-.11-.33-.08-.29-.07-.33-.08-.29-.07-.33-.08-.3-.04-.33-.08-.33-.08-.3-.04-.33-.08-.3-.04-.33-.08-.3-.04-.33-.05-.29-.07-.33-.05-.3-.04-.3-.04-.33-.05h-.31s-.33-.05-.33-.05l-.3-.04h-.34s-.3-.05-.3-.05h-.31s-.33-.05-.33-.05h-.31s-.34-.02-.34-.02h-.31s-.3-.04-.3-.04h-.34s-.31-.02-.31-.02l-.32.03h-.31s-.34-.02-.34-.02h-.31s-.32.02-.32.02h-.31s-.35.02-.35.02h-.31s-.32.02-.32.02l-.32.03h-.31s-.32.02-.32.02l-.32.03-.32.03-.32.03-.32.03-.32.06-.32.03-.32.03-.32.06-.32.03-.32.06-.28.04-.33.06-.32.06-.32.03-.29.07-.32.06-.33.06-.29.07-.33.06-.3.1-.32.06-.29.07-.33.1-.29.07-.32.06-.3.1-.3.1-.33.06-.3.1-.3.1-.3.1-.3.1-.3.1-.33.1-.3.1-.3.1-.27.11-.31.14-.3.1-.3.1-.31.14-.3.1-.28.15-.31.14-.27.11-.31.14-.31.14-.28.15-.27.15-.31.14-.28.15-.31.14-.27.15-.28.15-.28.18-.27.15-.28.15-.28.18-.28.14-.28.18-.28.15-.28.18-.28.18-.24.15-.28.18-.28.18-.25.19-.28.18-.25.19-.28.18-.25.19-.25.19-.25.19-.28.18-.26.22-.25.19-.25.19-.26.22-.25.19-.26.22-.22.2-.26.22-.25.19-.23.23-.26.22-.22.19-.26.22-.23.23-.26.22-.23.23-.23.23-.23.23-.23.23-.23.23-.23.23-.23.23-.23.23-.23.23-.23.26-.19.24-.23.23-.2.27-.23.23-.19.24-.23.26-.19.24-.2.27-.19.24-.2.27-.2.27-.19.24-.2.27-.2.27-.19.24-.2.27-.17.28-.2.27-.16.24-.2.27-.17.28-.17.28-.2.27-.17.28-.17.28-.17.28-.17.28-.17.28-.14.29-.17.28-.17.28-.14.29-.18.31-.14.29-.17.28-.14.29-.14.29-.18.31-.14.29-.14.29-.14.29-.14.32-.14.29-.1.29-.14.32-.14.29-.1.29-.14.32-.1.29-.14.29-.11.33-.1.29-.11.33-.1.29-.11.33-.1.29-.11.33-.1.29-.07.3-.11.33-.1.29-.08.34-.1.29-.08.34-.07.3-.08.34-.1.29-.08.34-.07.3-.08.34-.04.31-.08.34-.07.3-.08.34-.04.31-.08.34-.04.31-.05.34-.07.3-.05.34-.04.31-.04.31-.05.34-.04.31-.05.34-.04.31v.35s-.05.31-.05.31v.32s-.05.34-.05.34v.32s-.04.31-.04.31v.35s-.02.32-.02.32v.32s-.02.35-.02.35v.32s0,.32,0,.32v.32s-.02.35-.02.35v.32s.02.33.02.33v.32s.02.33.02.33v.18s.01.08.01.08l-.02.1.02.08v.11s-.01.1-.01.1v.11s.02.11.02.11v.11s.01.14.01.14l-.02.1v.14s.01.11.01.11v.14s0,.14,0,.14v.14s0,.18,0,.18v.14s0,.18,0,.18v.14s-.04.17-.04.17v.18s-.01.18-.01.18v.18s-.01.18-.01.18v.18s-.02.21-.02.21l-.04.17v.21s-.03.21-.03.21l-.04.17v.21s-.03.21-.03.21l-.05.2-.02.24-.05.2v.21s-.07.23-.07.23v.21s-.07.23-.07.23l-.05.2-.05.23-.05.23-.02.24-.05.24-.05.23-.09.23-.05.24-.05.23-.06.27-.09.23-.05.23-.1.26-.05.24-.09.26-.09.23-.06.27-.09.23-.1.26-.09.26-.12.22-.09.26-.1.26-.12.22-.09.26-.13.25-.09.26-.13.25-.12.22-.13.25-.13.25-.13.25-.13.25-.12.22-.13.25-.16.24-.13.25-.15.21-.13.25-.16.24-.15.21-.16.24-.15.21-.16.24-.16.24-.15.21-.15.21-.19.24-.15.21-.15.21-.19.2-.19.24-.15.21-.19.2-.18.2-.19.2-.14.18-.19.2-.18.2-.19.2-.18.17-.19.2-.21.16-.18.17-.19.2-.18.17-.21.16-.18.17-.18.17-.21.16-.17.14-.18.17-.21.16-.17.14-.21.16-.17.14-.17.14-.2.13-.17.14-.2.13-.17.14-.2.13-.17.14-.16.1-.2.13-.16.1-.16.1-.16.1-.2.13-.16.1-.15.07-.16.1-.16.1-.16.1-.15.07-.16.1-.15.07-.15.07-.12.08-.15.07-.15.07-.12.08-.12.08-.15.07-.11.04-.12.08-.11.04-.11.04-.11.04-.12.08-.11.04-.08.05h-.11s-.08.06-.08.06l-.11.04-.07.02-.08.05-.07.02-.08.05-.3.1-.27.15-.3.1-.31.14-.28.15-.31.14-.27.11-.31.14-.28.15-.28.15-.31.14-.28.18-.27.15-.28.15-.31.14-.28.18-.28.15-.28.15-.28.18-.25.19-.28.15-.28.18-.28.18-.24.15-.28.18-.28.18-.25.19-.28.18-.25.19-.25.19-.28.18-.25.19-.25.19-.26.22-.25.19-.25.19-.26.22-.25.19-.26.22-.25.19-.26.22-.25.19-.23.23-.26.22-.22.2-.26.22-.23.23-.23.23-.26.22-.23.23-.23.23-.23.23-.23.23-.23.23-.23.23-.23.23-.23.23-.23.23-.2.27-.23.23-.19.24-.23.26-.19.24-.23.26-.19.24-.2.27-.19.24-.23.26-.19.24-.2.27-.2.27-.16.24-.2.27-.2.27-.16.24-.2.27-.2.27-.17.28-.17.28-.2.27-.17.28-.17.28-.17.28-.17.28-.17.28-.17.28-.17.28-.17.28-.14.29-.17.28-.17.28-.14.29-.17.28-.14.32-.14.29-.14.29-.17.28-.14.32-.14.29-.14.29-.1.29-.14.32-.14.29-.14.29-.11.33-.14.29-.11.33-.14.29-.1.29-.11.33-.1.29-.11.33-.1.29-.11.33-.1.29-.1.29-.11.33-.07.3-.11.33-.07.3-.11.33-.07.3-.11.33-.07.3-.08.34-.07.3-.08.34-.07.3-.08.34-.07.3-.05.34-.07.3-.08.34-.04.31-.08.34-.04.31-.05.34-.04.31-.07.3-.05.34-.04.31-.05.34-.04.31v.35s-.05.31-.05.31l-.04.31v.35s-.05.31-.05.31v.35s-.05.31-.05.31v.32s-.02.35-.02.35v.32s0,.32,0,.32v.32s-.02.35-.02.35v.32s0,.32,0,.32v.32s.02.36.02.36v.32s0,.32,0,.32l.03.33.03.33v.32s.02.36.02.36l.03.33.03.33.03.33.03.33.03.33v.04s-.11,0-.11,0h-89.84c0,14.32,1.38,28.31,3.95,41.86,18.98,100.13,104.68,175.73,207.57,175.73s188.59-75.59,207.57-175.73c2.57-13.55,3.95-27.54,3.95-41.86h-44.41Zm-235.14.02v-.02h.12v-.16s0-.18,0-.18v-.2s0-.18,0-.18v-.18s0-.18,0-.18v-.2s0-.18,0-.18l.02-.17v-.2s.03-.17.03-.17v-.2s.03-.17.03-.17l.02-.17v-.2s.03-.17.03-.17l.03-.19.02-.17.02-.19.04-.17.02-.17.03-.19.02-.17.04-.19.02-.17.04-.19.04-.17.03-.19.04-.17.04-.19.04-.17.04-.19.04-.17.04-.19.04-.17.06-.18.04-.17.06-.18.04-.17.06-.18.04-.17.06-.18.06-.16.06-.16.06-.18.06-.16.06-.18.06-.16.06-.18.06-.16.08-.16.06-.18.08-.16.06-.18.08-.16.08-.16.08-.18.06-.16.08-.16.08-.16.08-.18.09-.15.08-.16.08-.16.08-.18.09-.16.08-.16.09-.16.09-.15.08-.16.09-.15.09-.16.09-.16.09-.16.09-.15.09-.16.09-.16.09-.15.11-.15.09-.16.09-.15.11-.15.11-.15.09-.14.11-.15.11-.15.09-.14.11-.15.11-.15.11-.13.13-.15.11-.13.11-.15.11-.13.13-.15.11-.13.13-.15.11-.13.13-.13.11-.15.13-.13.13-.13.13-.13.13-.13.13-.13.13-.13.13-.13.13-.13.13-.13.14-.12.13-.13.13-.13.14-.12.12-.11.14-.12.13-.13.14-.1.14-.12.14-.1.14-.12.14-.1.14-.12.14-.1.14-.1.14-.12.14-.1.14-.1.16-.1.14-.1.14-.1.16-.1.14-.1.16-.1.16-.1.14-.09.16-.1.16-.1.15-.08.14-.1.16-.1.15-.08.15-.08.16-.1.17-.08.15-.08.15-.08.16-.1.17-.08.15-.08.15-.08.17-.08.15-.06.17-.08.15-.08.17-.08.17-.06.15-.08.17-.06.05-.03h.04s.05-.04.05-.04h.04s.06-.03.06-.03l.05-.03h.06s.05-.03.05-.03l.06-.02.07-.04.06-.02.06-.02.06-.02.07-.04.06-.02.09-.04.07-.04.07-.04.09-.04.09-.04.07-.04.09-.04.09-.04.09-.06.09-.04.09-.06.09-.06.09-.06.09-.04.09-.06.11-.07.09-.06.09-.06.09-.06.11-.07.09-.06.09-.08.11-.07.09-.08.11-.07.09-.08.11-.07.09-.08.09-.08.12-.09.09-.08.12-.09.1-.09.09-.08.12-.09.1-.09.1-.09.12-.09.1-.09.1-.11.1-.09.12-.09.1-.11.1-.09.1-.11.1-.11.1-.11.08-.1.1-.11.1-.11.1-.11.09-.12.11-.13.1-.11.09-.12.09-.12.11-.13.09-.12.09-.12.09-.14.09-.14.09-.12.09-.14.09-.12.09-.14.07-.14.09-.12.07-.14.09-.14.07-.14.07-.12.07-.14.07-.14.07-.14.07-.14.07-.12.07-.14.05-.15.07-.14.05-.15.07-.12.05-.15.05-.15.07-.12.05-.15.05-.15.05-.13.03-.15.05-.13.05-.15.03-.13.05-.15.03-.13.05-.13.03-.15.03-.13.03-.13.05-.13.03-.13.03-.13v-.14s.04-.13.04-.13l.03-.13.03-.11.03-.13v-.12s.04-.13.04-.13v-.12s.03-.11.03-.11v-.14s.04-.11.04-.11v-.12s.02-.12.02-.12l.02-.09v-.12s.02-.12.02-.12l.02-.09v-.12s.01-.1.01-.1v-.1s0-.1,0-.1v-.1s0-.1,0-.1l.02-.09v-.08s0-.1,0-.1v-.08s0-.1,0-.1v-.08s0-.08,0-.08v-.08s0-.06,0-.06v-.08s.01-.06.01-.06v-.08s0-.06,0-.06v-.06s-.01-.06-.01-.06v-.06s0-.06,0-.06v-.04s0-.06,0-.06v-.04s0-.1,0-.1l-.02-.18v-.18s-.01-.18-.01-.18v-.18s0-.2,0-.2v-.18s0-.18,0-.18v-.18s0-.2,0-.2v-.18s0-.18,0-.18v-.2s.03-.17.03-.17v-.18s.03-.19.03-.19v-.18s.02-.17.02-.17v-.2s.03-.17.03-.17l.03-.19.02-.17.02-.19.02-.17.02-.17.03-.19.04-.17.02-.19.02-.17.04-.19.02-.17.04-.19.04-.17.04-.19.02-.17.04-.19.04-.17.04-.19.06-.16.04-.19.04-.17.04-.19.06-.16.04-.19.06-.16.06-.18.04-.17.06-.16.06-.18.06-.16.06-.18.06-.16.06-.18.06-.16.06-.18.08-.16.06-.16.08-.18.06-.16.08-.16.08-.18.06-.16.08-.16.08-.18.08-.16.08-.16.08-.16.1-.17.08-.16.08-.16.09-.16.08-.16.1-.17.08-.16.09-.16.09-.16.08-.16.09-.16.09-.16.09-.15.09-.16.09-.16.11-.15.09-.15.09-.16.11-.15.09-.14.11-.15.09-.16.11-.15.11-.13.11-.15.11-.15.11-.13.11-.15.11-.15.11-.13.11-.15.11-.13.13-.15.11-.13.13-.13.11-.15.13-.13.11-.13.13-.15.13-.13.13-.13.13-.13.13-.13.13-.13.13-.13.13-.13.13-.13.13-.13.14-.12.13-.13.14-.12.12-.11.14-.12.13-.13.14-.1.14-.12.12-.11.14-.12.14-.1.14-.12.14-.1.14-.1.14-.12.16-.1.14-.1.14-.1.14-.1.16-.1.14-.1.16-.1.14-.1.16-.1.16-.1.14-.09.16-.1.16-.1.15-.08.16-.1.15-.08.16-.1.15-.08.15-.08.16-.1.15-.08.15-.08.17-.08.15-.08.17-.08.15-.08.15-.08.17-.08.17-.08.15-.06.17-.08.15-.08.17-.06.17-.08.17-.06.17-.06.17-.08.15-.06.17-.06.17-.06.19-.05.17-.06.17-.06.17-.06.17-.06.17-.06.18-.03.17-.06.17-.06.18-.03.16-.04.19-.05.16-.04.18-.03.17-.06.18-.03.16-.04.18-.03.18-.03.16-.04.18-.02.18-.03.18-.03.16-.02.18-.03.18-.02.18-.03.18-.02.18-.02.18-.03.18-.02.18-.02.18-.02.18-.02.18-.02h.17s.18-.01.18-.01l.18-.02h.17s.2,0,.2,0h.17s.18-.01.18-.01h.17s.19.01.19.01h.17s.18-.01.18-.01h.17s.19,0,.19,0l.17.02h.17s.19.01.19.01h.17s.19.03.19.03h.17s.17.02.17.02h.19s.17.03.17.03l.19.03h.17s.19.03.19.03l.17.02.17.02.19.03.16.04.19.03.17.02.18.04.17.02.18.05.17.02.18.04.18.05.17.02.18.04.16.04.18.04.16.04.18.04.16.06.18.05.16.04.18.06.16.04.18.06.16.06.18.04.16.06.18.06.16.06.18.06.16.06.18.06.16.06.16.08.18.06.16.08.18.06.16.08.16.06.17.08.16.08.16.08.17.08.16.08.16.08.17.08.16.08.16.08.15.1.17.08.15.1.16.08.15.1.15.1.16.08.15.1.15.1.17.1.15.1.15.1.15.1.13.11.15.1.15.1.15.12.15.1.15.12.15.12.13.09.15.12.15.12.15.12.06.06.03.03.03.03.05.03.03.03.05.03.05.05.05.03.05.03.05.05.05.03.07.04.05.05.07.04.06.06.07.04.06.06.06.06.07.04.08.06.07.04.08.06.08.06.09.04.08.06.08.06.09.04.08.06.1.06.09.04.1.06.1.05.08.06.1.05.1.06.12.05.1.06.1.05.12.07.1.05.12.05.1.06.12.05.12.05.12.05.12.05.12.05.12.05.12.05.12.05.12.05.14.05.13.03.14.05.13.03.14.05.13.03.14.05.15.04.15.04.13.03.15.04.15.04.15.04.15.04.15.04.15.02.15.04.15.02.15.04.15.02.15.02.15.02.15.02.15.02.15.02.15.02.15.02h.15s.15.02.15.02h.15s.15.02.15.02h.15s.15,0,.15,0h.15s.15,0,.15,0h.15s.15,0,.15,0h.14s.15,0,.15,0l.16-.02h.14s.15,0,.15,0l.16-.02.14-.02h.15s.14-.03.14-.03l.14-.03h.15s.14-.03.14-.03l.14-.03.14-.02.14-.03.14-.02.14-.04.14-.02.12-.03.14-.03.15-.04.12-.03.14-.03.13-.05.12-.03.13-.05.12-.03.13-.05.12-.03.13-.05.12-.03.11-.05.13-.05.1-.03.13-.05.1-.03.11-.05.1-.03.11-.05.1-.03.09-.06.1-.03.11-.05.09-.04.09-.06.1-.03.09-.04.09-.06.09-.04.07-.04.09-.04.09-.04.07-.04.09-.04.07-.04.07-.04.07-.04.07-.04.06-.02.07-.04.05-.05.06-.02.04-.03.07-.04.05-.03.04-.03.05-.03.05-.03.05-.03h.04s.03-.04.03-.04l.16-.1.15-.08.14-.1.16-.1.15-.08.16-.1.15-.08.16-.1.15-.08.15-.08.17-.08.16-.1.15-.08.15-.08.17-.08.15-.08.17-.08.15-.06.17-.08.15-.08.17-.08.17-.06.15-.08.17-.06.17-.08.17-.06.17-.06.17-.08.17-.06.17-.06.17-.06.17-.06.17-.06.17-.06.17-.06.17-.06.18-.03.17-.06.17-.06.18-.03.17-.06.18-.03.16-.04.19-.05.16-.04.18-.03.16-.04.18-.03.18-.03.16-.04.18-.03.18-.02.16-.04.18-.03.18-.02.18-.03.18-.02.18-.03.18-.02.18-.02.18-.02.18-.02.18-.02.18-.02.18-.02.18-.02.18-.02h.17s.18-.01.18-.01l.18-.02h.19s.17.01.17.01l.18-.02h.17s.19,0,.19,0h.17s.17,0,.17,0h.17s.19,0,.19,0h.17s.17,0,.17,0h.19s.17.03.17.03h.19s.17.03.17.03h.17s.19.03.19.03l.17.02h.19s.17.03.17.03l.19.03.17.02.19.03.17.02.18.04.17.02.19.03.16.04.19.03.16.04.19.03.16.04.18.04.16.04.18.04.16.04.18.04.16.04.18.04.16.04.18.06.16.04.18.06.16.04.18.06.16.06.18.06.16.04.18.06.16.06.18.06.16.08.18.06.16.06.18.06.16.08.16.06.17.08.16.08.16.06.17.08.16.08.17.08.16.08.16.08.16.08.17.08.16.08.15.1.16.08.17.1.16.08.15.1.16.08.15.1.15.1.15.1.15.1.15.1.15.1.15.1.15.1.15.12.15.1.15.1.15.12.15.1.15.12.13.11.15.12.15.1.13.11.15.12.15.12.13.11.15.11.12.13.15.12.13.11.14.13.13.11.14.13.13.11.12.13.12.13.15.12.12.13.12.13.12.13.12.13.12.13.12.13.12.15.12.13.12.13.12.15.12.13.12.15.11.13.12.15.12.13.1.14.12.15.1.14.12.15.1.14.1.14.12.15.1.14.1.14.1.14.12.15.1.16.1.14.1.16.1.14.1.16.08.14.1.16.1.16.1.14.08.16.1.16.08.16.1.16.08.16.1.16.08.16.08.16.1.16.07.18.08.16.08.16.07.18.08.16.08.16.07.18.06.15.07.18.07.18.06.15.07.18.06.17.07.18.06.15.06.17.07.18.06.17.06.17.06.17.06.17.06.17.05.19.06.17.06.17.04.17.05.19.04.17.06.17.03.19.06.17.04.17.03.19.05.19.04.17.03.19.04.17.03.19.03.19.02.16.03.19.03.19.02.18.04.17.02.18.03.19.02.18.02.18.03.19.02.18.02.18.02.18.02.18.02.18v.18s.01.18.01.18l.02.18v.18s.01.18.01.18v.2s0,.18,0,.18v.18s0,.18,0,.18v.18s0,.2,0,.2v.18s0,.18,0,.18v.2s0,.18,0,.18v.18s0,.2,0,.2l-.02.17v.18s-.03.19-.03.19v.18s-.03.19-.03.19l-.02.17-.02.17-.02.19v.18s-.05.19-.05.19l-.02.17v.06s0,.04,0,.04v.06s-.03.06-.03.06v.06s0,.06,0,.06v.06s-.01.08-.01.08v.06s-.01.08-.01.08l-.02.08v.06s-.01.08-.01.08v.1s0,.08,0,.08l-.02.08v.1s0,.08,0,.08v.1s0,.1,0,.1v.1s0,.1,0,.1v.1s0,.1,0,.1v.1s-.01.12-.01.12v.1s0,.12,0,.12v.1s0,.12,0,.12v.12s0,.12,0,.12v.12s0,.12,0,.12v.12s.02.12.02.12v.12s.02.12.02.12v.14s.02.12.02.12v.12s.03.14.03.14v.12s.03.14.03.14v.12s.03.14.03.14l.02.14.03.13.02.14.02.14.02.14.03.13.02.14.02.14.04.15.03.13.04.15.04.15.02.14.04.15.05.13.04.15.04.15.06.15.05.13.04.15.06.15.05.13.06.15.06.13.04.15.07.13.06.15.07.13.06.15.07.13.06.13.08.14.06.15.07.13.08.14.07.13.08.14.07.12.08.14.08.14.08.14.07.12.08.14.09.12.09.12.08.14.09.12.09.12.09.12.09.12.09.12.09.12.09.12.11.11.09.12.09.1.09.12.09.1.09.1.11.11.09.1.09.1.09.1.09.1.09.1.1.08.11.11.1.08.09.1.1.08.1.08.08.08.1.08.1.08.1.08.1.08.08.06.1.08.1.06.08.08.08.06.1.06.08.08.08.06.08.06.1.06.08.06.06.06.09.04.08.06.08.06.07.04.08.06.07.04.06.06.07.04.07.04.07.04.06.06.07.04.05.03.07.04.05.03.05.03h.05s.05.05.05.05l.05.03.05.03h.04s.03.04.03.04l.17.08.15.1.16.08.15.1.15.1.16.08.17.1.15.1.15.1.15.1.15.1.15.1.15.1.15.11.15.1.13.09.15.12.15.1.15.12.15.12.13.09.15.12.15.12.15.12.13.11.15.12.13.11.15.12.12.13.15.12.13.11.14.13.13.11.14.13.13.11.12.13.12.13.14.13.12.13.12.13.12.13.12.13.12.13.12.13.12.13.12.15.12.13.11.12.12.15.12.13.12.15.1.14.12.13.1.14.12.15.1.14.12.15.1.14.12.15.1.14.1.14.1.14.12.15.1.16.1.14.1.16.1.14.1.16.08.14.1.16.1.14.1.16.08.16.1.16.1.16.08.16.1.16.08.16.08.16.1.16.08.16.08.16.07.18.08.16.08.16.07.18.08.16.07.18.08.16.06.17.08.16.07.18.06.17.08.16.06.17.07.18.06.17.06.17.06.17.07.18.06.17.06.17.06.17.06.17.04.17.06.17.05.19.06.17.04.17.05.19.04.17.06.17.03.19.04.17.03.19.06.17.03.19v.07s-.1,0-.1,0l.02.12.04.17.02.18.03.19.04.17.03.19.02.18.03.19.02.16.03.19.02.18.02.18.03.19.02.18.02.18.02.18.02.18.02.18.02.18v.18s.01.18.01.18l.02.18v.2s0,.18,0,.18v.18s0,.18,0,.18l.02.18v.2s0,.18,0,.18v.18s0,.18,0,.18v.2s0,.18,0,.18l-.02.17v.2s0,.18,0,.18l-.02.17v.2s-.03.17-.03.17v.2s-.03.17-.03.17l-.02.17-.02.19-.02.17-.03.19-.02.17-.02.19-.02.17-.03.19-.04.17-.02.17-.04.19-.02.17-.04.19-.04.17-.04.19-.02.17-.04.19-.04.17-.04.19-.06.16-.04.19-.04.17-.06.18-.04.17-.04.19-.06.16-.06.18-.04.17-.06.18-.06.16-.06.18-.06.16-.06.16-.06.18-.08.16-.06.18-.06.16-.08.16-.06.18-.08.16-.06.18-.08.16-.08.16-.08.16-.08.18-.08.16-.08.16-.08.18-.08.16-.08.16-.09.16-.08.16-.1.17-.08.16-.09.15-.09.16-.08.16-.09.16-.09.15-.09.16-.09.15-.09.15-.09.16-.11.15-.09.15-.09.15-.11.15-.09.14-.11.15-.11.15-.09.16-.11.13-.11.15-.11.15-.11.13-.11.15-.11.15-.11.13-.11.15-.13.13-.11.13-.11.15-.13.13-.13.15-.11.13-.13.13-.13.13-.11.15-.13.13-.13.13-.13.13-.13.13-.13.13-.13.13-.14.12-.13.13-.13.13-.14.1-.13.13-.14.12-.13.13-.14.1-.14.12-.13.13-.14.1-.14.1-.14.12-.14.1-.14.12-.14.1-.14.1-.14.1-.16.12-.14.1-.14.1-.16.1-.14.1-.16.1-.14.09-.16.1-.16.1-.14.1-.15.08-.16.1-.16.1-.15.08-.16.1-.15.08-.15.08-.16.1-.15.08-.15.08-.17.08-.15.08-.15.08-.17.08-.15.08-.17.08-.15.08-.17.08-.15.06-.17.08-.17.08-.17.06h-.02s-.05.04-.05.04h-.06s-.05.03-.05.03l-.04.03h-.04s-.06.03-.06.03l-.06.02-.04.03-.06.02-.06.02-.07.04-.06.02-.07.04-.08.02-.07.04-.07.04-.08.02-.07.04-.09.04-.09.06-.09.04-.07.04-.09.06-.09.04-.09.06-.09.04-.09.06-.11.05-.09.06-.09.06-.09.06-.09.08-.11.05-.09.08-.11.05-.09.08-.09.08-.11.05-.09.08-.11.07-.1.09-.09.08-.11.07-.1.09-.11.07-.1.09-.09.08-.12.09-.1.09-.12.09-.1.09-.1.09-.1.09-.12.09-.1.11-.1.09-.1.09-.1.11-.1.11-.1.09-.1.11-.1.11-.1.11-.09.12-.1.11-.1.11-.09.12-.1.11-.09.14-.1.11-.09.12-.09.14-.1.11-.09.14-.09.12-.09.14-.09.12-.07.14-.09.14-.09.12-.07.14-.09.14-.07.12-.07.14-.09.14-.07.14-.07.14-.07.12-.07.14-.05.15-.07.14-.07.14-.05.13-.07.14-.05.15-.07.14-.05.13-.05.15-.05.15-.05.13-.05.15-.05.15-.05.13-.03.15-.05.13-.03.13-.05.15-.03.13-.03.13-.05.15-.03.13-.03.13-.03.13-.03.13-.03.13-.03.13-.03.11v.14s-.04.13-.04.13l-.03.11v.12s-.04.13-.04.13v.12s-.03.11-.03.11v.12s-.03.11-.03.11v.12s-.02.12-.02.12v.12s-.03.09-.03.09v.12s-.01.1-.01.1v.12s-.01.1-.01.1l-.02.09v.1s0,.1,0,.1v.08s0,.1,0,.1v.08s0,.1,0,.1v.08s0,.08,0,.08l-.02.07v.08s0,.08,0,.08v.08s0,.06,0,.06v.06s0,.08,0,.08v.06s0,.06,0,.06v.02s0,.04,0,.04v.04s0,.06,0,.06v.04s.01.06.01.06v.08s0,.18,0,.18v.2s0,.18,0,.18l.02.18v.18s0,.18,0,.18v.2s0,.18,0,.18v.18s0,.2,0,.2v.18s-.02.17-.02.17v.2s-.03.17-.03.17v.18s-.03.19-.03.19v.18s-.02.17-.02.17l-.03.19-.02.17v.2s-.03.17-.03.17l-.04.19-.02.17-.02.19-.02.17-.02.17-.04.19-.02.17-.04.19-.04.17-.03.19-.04.17-.04.19-.04.17-.04.19-.04.17-.04.19-.04.17-.04.19-.06.16-.04.19-.06.16-.04.19-.06.16-.06.18-.04.17-.06.18-.06.16-.06.16-.06.18-.06.16-.08.18-.06.16-.06.18-.08.16-.06.16-.08.18-.06.16-.08.16-.08.18-.08.16-.08.16-.08.18-.08.16-.08.16-.08.16-.08.18-.09.15-.08.16-.08.16-.09.15-.09.16-.08.16-.1.17-.09.16-.09.16-.09.15-.09.16-.09.16-.09.15-.09.16-.09.14-.11.15-.09.15-.11.15-.09.15-.11.15-.11.13-.09.16-.11.15-.11.13-.11.15-.11.15-.11.13-.11.15-.13.13-.11.15-.11.13-.13.15-.11.13-.13.13-.11.15-.13.13-.13.13-.11.13-.13.15-.13.13-.13.13-.13.13-.13.13-.13.13-.14.12-.13.13-.13.13-.14.1-.13.13-.13.13-.14.12-.14.1-.13.13-.14.12-.14.1-.14.12-.14.1-.14.1-.14.12-.14.1-.14.1-.14.12-.14.1-.16.1-.14.1-.14.1-.16.1-.14.1-.16.1-.14.1-.15.08-.16.1-.16.1-.14.09-.16.1-.15.08-.16.1-.15.08-.16.1-.15.08-.15.08-.18.1-.15.08-.15.08-.17.08-.15.08-.15.08-.17.08-.15.06-.17.08-.17.08-.15.08-.17.06-.17.08-.15.06-.17.08-.17.06-.17.06-.17.08-.17.06-.17.06-.17.06-.17.06-.17.06-.17.06-.19.05-.16.04-.17.06-.17.06-.18.03-.17.06-.18.03-.17.06-.16.04-.18.03-.18.03-.16.04-.18.03-.16.04-.18.03-.18.03-.16.04-.18.03-.18.02-.18.03-.18.03-.18.02-.16.02-.18.03-.18.02-.18.02-.18.02-.18.02-.18.02-.18.02-.18.02h-.2s-.18.03-.18.03h-.17s-.18.01-.18.01l-.18.02h-.17s-.19-.01-.19-.01l-.18.02h-.17s-.17,0-.17,0h-.19s-.17-.01-.17-.01h-.17s-.19,0-.19,0h-.17s-.17,0-.17,0l-.19-.03h-.17s-.17,0-.17,0l-.19-.03-.17-.02h-.19s-.17-.03-.17-.03l-.19-.03-.17-.02-.17-.02-.19-.03-.17-.02-.19-.03-.17-.02-.18-.04-.17-.02-.19-.03-.16-.04-.19-.03-.16-.04-.18-.04-.16-.04-.18-.04-.18-.04-.16-.04-.18-.04-.16-.04-.18-.04-.16-.04-.18-.06-.16-.04-.18-.06-.16-.04-.18-.06-.16-.06-.18-.06-.16-.04-.18-.06-.16-.06-.18-.06-.16-.08-.16-.06-.18-.06-.16-.08-.18-.06-.16-.08-.16-.06-.17-.08-.16-.06-.17-.08-.16-.08-.16-.08-.17-.08-.16-.08-.16-.08-.15-.1-.17-.08-.16-.08-.15-.1-.16-.08-.15-.1-.17-.08-.15-.1-.15-.1-.15-.1-.15-.1-.15-.1-.15-.1-.15-.1-.15-.1-.15-.1-.15-.1-.15-.12-.15-.1-.13-.11-.15-.1-.15-.12-.15-.12-.15-.1-.13-.11-.15-.12-.06-.06-.03-.03-.05-.03-.03-.03-.05-.03-.03-.05-.05-.03-.05-.03-.05-.05-.05-.03-.07-.04-.05-.05-.07-.04-.05-.05-.07-.04-.06-.06-.07-.04-.08-.06-.06-.06-.07-.04-.08-.06-.07-.04-.08-.06-.08-.06-.09-.04-.08-.06-.08-.06-.1-.05-.08-.06-.1-.06-.09-.04-.1-.06-.1-.05-.1-.06-.11-.05-.1-.06-.1-.05-.12-.07-.1-.05-.1-.05-.12-.07-.12-.05-.11-.05-.12-.05-.12-.07-.12-.05-.12-.05-.12-.05-.12-.05-.15-.04-.12-.05-.12-.05-.14-.05-.13-.03-.14-.05-.13-.03-.14-.05-.13-.03-.15-.04-.15-.04-.14-.05-.15-.04-.13-.03-.15-.02-.15-.04-.15-.04-.15-.02-.15-.04-.15-.04-.15-.02-.15-.02-.15-.02-.15-.04-.15-.02-.17-.02h-.15s-.15-.02-.15-.02l-.15-.02-.15-.02h-.15s-.15-.02-.15-.02h-.15s-.15,0-.15,0h-.15s-.15-.02-.15-.02h-.14s-.15,0-.15,0h-.15s-.16.02-.16.02h-.15s-.14,0-.14,0l-.16.02h-.15s-.14.03-.14.03h-.15s-.14.03-.14.03l-.14.03h-.15s-.14.03-.14.03l-.14.03-.14.02-.16.02-.14.02-.14.03-.12.03-.14.02-.15.04-.14.02-.12.03-.14.04-.12.03-.12.03-.14.04-.12.03-.13.05-.12.03-.13.05-.1.03-.13.05-.13.05-.1.03-.13.05-.1.03-.11.05-.1.03-.11.05-.1.03-.11.05-.11.05-.1.03-.09.04-.09.06-.1.03-.09.06-.09.04-.09.04-.09.06-.09.04-.09.04-.07.04-.09.04-.07.04-.07.04-.09.04-.07.04-.06.02-.05.05-.07.04-.06.02-.05.05-.06.02-.05.03-.05.03-.07.04-.05.03h-.02s-.05.04-.05.04l-.04.03-.05.03-.14.09-.16.1-.16.1-.15.08-.16.1-.15.08-.16.1-.15.08-.16.1-.15.08-.15.08-.15.08-.17.08-.15.08-.15.08-.17.08-.15.08-.17.08-.15.08-.17.08-.15.06-.17.08-.17.06-.17.08-.15.06-.17.08-.17.06-.17.06-.17.08-.17.06-.17.06-.17.06-.17.06-.17.06-.18.03-.17.06-.17.06-.17.06-.18.03-.17.06-.18.03-.17.06-.16.04-.18.03-.16.04-.19.05-.18.03-.16.04-.18.03-.18.02-.16.04-.18.03-.18.03-.18.02-.18.03-.16.02-.18.03-.18.02-.18.02-.18.03-.18.02-.18.02-.18.02-.18.02-.18.02-.18.02h-.17s-.2,0-.2,0l-.18.02h-.17s-.18.01-.18.01h-.17s-.19,0-.19,0l-.18.02h-.17s-.17,0-.17,0h-.19s-.17-.01-.17-.01h-.17s-.19-.01-.19-.01h-.17s-.17-.02-.17-.02h-.19s-.17-.03-.17-.03h-.17s-.19-.03-.19-.03h-.17s-.19-.03-.19-.03l-.17-.02-.19-.03-.17-.02-.19-.03-.17-.02-.19-.03-.17-.02-.19-.03-.16-.04-.19-.03-.16-.04-.19-.03-.16-.04-.18-.04-.17-.02-.18-.04-.16-.04-.18-.05-.16-.04-.18-.04-.16-.06-.18-.04-.16-.04-.18-.06-.16-.04-.18-.06-.16-.04-.18-.06-.16-.06-.18-.06-.16-.06-.18-.06-.16-.06-.18-.06-.16-.06-.18-.06-.16-.08-.16-.06-.17-.08-.16-.06-.17-.08-.16-.08-.16-.06-.17-.08-.16-.08-.16-.08-.17-.08-.16-.08-.16-.08-.15-.1-.17-.08-.15-.1-.16-.08-.15-.1-.16-.08-.15-.1-.17-.1-.16-.08-.15-.1-.15-.1-.15-.1-.15-.1-.15-.12-.15-.1-.15-.1-.15-.1-.13-.11-.15-.1-.15-.12-.15-.1-.15-.12-.13-.11-.15-.12-.15-.12-.15-.12-.13-.11-.15-.11-.13-.11-.15-.12-.13-.11-.14-.13-.13-.11-.14-.13-.13-.11-.12-.13-.15-.12-.12-.13-.12-.13-.12-.13-.14-.13-.12-.13-.12-.13-.12-.13-.12-.13-.12-.13-.12-.13-.12-.15-.11-.12-.12-.13-.12-.15-.12-.13-.1-.14-.12-.15-.12-.13-.1-.14-.12-.15-.1-.14-.1-.14-.12-.15-.1-.14-.1-.14-.12-.15-.1-.16-.1-.14-.1-.14-.1-.16-.1-.14-.1-.14-.1-.16-.1-.16-.1-.14-.08-.16-.1-.16-.1-.16-.08-.14-.1-.16-.08-.16-.1-.16-.08-.16-.1-.16-.08-.16-.07-.18-.08-.16-.08-.16-.07-.18-.08-.16-.08-.16-.07-.18-.08-.16-.07-.18-.06-.15-.07-.18-.07-.18-.06-.15-.07-.18-.06-.17-.07-.18-.06-.17-.06-.17-.06-.17-.06-.17-.07-.18-.06-.17-.04-.17-.06-.17-.06-.17-.06-.17-.05-.19-.04-.17-.06-.17-.03-.19-.06-.17-.04-.17-.05-.19-.04-.17-.03-.19-.04-.17-.03-.19-.03-.19-.04-.17-.03-.19-.03-.19-.04-.17-.02-.18-.03-.19-.02-.18-.03-.19-.02-.16-.03-.19-.02-.18-.02-.18-.02-.18-.02-.18-.02-.18-.02-.18-.02-.18-.02-.18v-.14s-.02-.04-.02-.04v-.2s0-.18,0-.18v-.18s-.01-.18-.01-.18v-.18s0-.18,0-.18v-.2s0-.18,0-.18v-.18s0-.18,0-.18v-.2s0-.18,0-.18v-.18s.03-.19.03-.19v-.18s0-.18,0-.18l.03-.19v-.18s.02-.17.02-.17l.02-.19v-.18s.03-.19.03-.19l.02-.17.03-.19.02-.17.02-.17v-.06s.02-.04.02-.04v-.06s0-.06,0-.06v-.06s0-.06,0-.06v-.06s.03-.07.03-.07v-.06s.01-.08.01-.08v-.08s.02-.07.02-.07v-.08s.02-.07.02-.07v-.08s0-.1,0-.1v-.08s.02-.09.02-.09v-.08s0-.1,0-.1v-.1s0-.1,0-.1v-.1s0-.1,0-.1v-.12s0-.1,0-.1v-.12s.01-.1.01-.1v-.12s0-.1,0-.1v-.12s0-.12,0-.12v-.12s-.02-.12-.02-.12v-.12s0-.12,0-.12v-.12s-.02-.14-.02-.14v-.12s-.04-.13-.04-.13v-.14s-.02-.12-.02-.12l-.02-.14v-.12s-.03-.14-.03-.14v-.12s-.03-.14-.03-.14l-.02-.14-.03-.13-.02-.14-.02-.14-.02-.14-.05-.13-.02-.14-.02-.14-.04-.15-.02-.14-.05-.13-.04-.15-.04-.15-.04-.15-.05-.13-.04-.15-.04-.15-.04-.15-.07-.13-.04-.15-.06-.15-.05-.13-.06-.15-.07-.13-.06-.15-.05-.13-.06-.15-.08-.14-.07-.14-.06-.15-.07-.13-.07-.14-.08-.14-.06-.13-.08-.14-.06-.13-.08-.14-.08-.14-.07-.12-.08-.14-.08-.14-.09-.12-.09-.12-.06-.13-.09-.12-.09-.12-.08-.14-.09-.12-.11-.12-.09-.1-.09-.12-.09-.12-.09-.12-.09-.1-.09-.12-.11-.11-.09-.1-.09-.12-.09-.1-.09-.1-.09-.1-.11-.11-.1-.08-.09-.1-.09-.1-.1-.08-.09-.1-.1-.08-.1-.08-.1-.08-.1-.08-.1-.08-.1-.08-.08-.08-.1-.08-.1-.08-.08-.06-.1-.08-.08-.06-.1-.08-.08-.06-.1-.06-.08-.06-.08-.06-.08-.06-.08-.06-.08-.06-.08-.06-.07-.04-.08-.06-.08-.06-.07-.04-.06-.06-.09-.04-.07-.04-.06-.06-.07-.04-.05-.03-.07-.04-.07-.04-.05-.03-.05-.03-.07-.04-.05-.03-.05-.03h-.04s-.05-.04-.05-.04l-.03-.03h-.05s-.15-.11-.15-.11l-.16-.08-.15-.1-.17-.08-.15-.1-.15-.1-.16-.08-.15-.1-.15-.1-.15-.1-.15-.1-.15-.1-.15-.12-.15-.1-.15-.1-.15-.12-.15-.1-.15-.12-.13-.09-.15-.12-.15-.12-.15-.12-.13-.09-.15-.12-.15-.12-.13-.11-.14-.13-.13-.11-.15-.12-.13-.11-.14-.13-.13-.11-.14-.13-.13-.11-.12-.13-.14-.13-.13-.11-.12-.13-.12-.13-.12-.13-.12-.13-.12-.13-.12-.13-.12-.13-.12-.15-.12-.13-.12-.13-.12-.15-.12-.13-.1-.14-.12-.13-.12-.15-.1-.14-.12-.13-.1-.14-.12-.15-.1-.14-.12-.15-.1-.14-.1-.14-.12-.15-.1-.16-.1-.14-.1-.14-.1-.16-.1-.14-.1-.14-.1-.16-.1-.16-.1-.14-.08-.16-.1-.16-.1-.14-.08-.16-.1-.16-.08-.16-.1-.16-.08-.16-.1-.16-.08-.16-.08-.16-.07-.18-.1-.16-.08-.16-.07-.18-.08-.16-.06-.15-.07-.18-.08-.16-.07-.18-.07-.18-.06-.15-.07-.18-.06-.17-.07-.18-.06-.15-.06-.17-.07-.18-.06-.17-.06-.17-.06-.17-.06-.17-.06-.17-.06-.17-.05-.19-.06-.17-.04-.17-.06-.17-.05-.19-.04-.17-.06-.17-.03-.19-.04-.17-.05-.19-.04-.17-.03-.19-.04-.17-.03-.19-.03-.19-.04-.17-.03-.19-.02-.18-.04-.17-.03-.19-.02-.18-.03-.19-.02-.18-.03-.19-.02-.16-.02-.18-.02-.18-.02-.18-.02-.18-.02-.18-.02-.18-.02-.18v-.2s0-.18,0-.18l-.02-.18-.02-.18v-.18s0-.18,0-.18v-.2s0-.18,0-.18Zm67.14,172.8c-78.75,0-144.81-55.74-163.01-130.95h73.57l.15.21.15.25.16.22.16.22.12.24.16.22.16.22.15.25.15.25.12.21.15.25.15.25.12.24.15.25.12.24.15.25.12.24.12.24.11.27.12.24.15.25.11.28.08.23.11.28.12.24.11.27.08.23.11.27.08.27.12.24.08.27.08.27.08.27.08.23.08.27.08.27.08.27.08.23.04.26.08.27.04.26.04.26.08.23.04.26.04.26.04.26.05.23.04.26.04.26.02.22.04.26.02.22.04.26.02.22v.25s.06.23.06.23l.02.22v.25s.03.22.03.22l.02.22v.21s0,.22,0,.22l.02.22v.21s0,.22,0,.22v.18s.01.22.01.22v.18s-.02.21-.02.21l.03.18v.21s-.02.18-.02.18v.18s-.01.18-.01.18v.18s-.01.18-.01.18v.14s-.04.17-.04.17v.14s0,.18,0,.18v.14s-.03.13-.03.13v.14s-.03.13-.03.13v.14s-.03.13-.03.13v.11s-.02.13-.02.13l-.02.1v.11s-.01.1-.01.1l-.02.1v.11s0,.07,0,.07l-.02.1-.04.31-.04.31-.05.34-.04.31-.04.34v.32s-.05.34-.05.34l-.04.31v.32s-.05.34-.05.34v.32s0,.32,0,.32l-.05.34v.32s0,.32,0,.32v.35s-.02.32-.02.32v.32s0,.32,0,.32l.02.36v.32s0,.32,0,.32l.03.33v.32s.02.33.02.33v.35s.02.33.02.33l.03.33.03.33.03.33.03.33.03.33.03.33.03.33.03.33.06.33.04.29.06.33.03.33.06.33.03.33.07.3.06.33.06.33.07.3.06.33.06.33.07.3.06.33.07.3.09.34.07.3.1.31.06.33.1.31.07.3.09.34.1.31.1.31.1.31.07.3.1.31.13.32.1.31.1.31.1.31.1.31.13.32.1.31.13.32.11.27.13.32.13.32.11.27.13.32.14.28.13.32.14.28.14.28.13.32.14.28.14.28.13.32.14.28.17.29.14.28.17.29.14.28.17.29.15.25.17.29.17.29.14.28.18.26.17.29.17.29.18.26.18.26.17.29.18.26.18.26.17.29.21.27.18.26.18.26.21.27.18.26.18.26.21.27.18.26.22.23.21.27.18.26.22.23.21.27.22.23.19.22.21.27.22.23.22.23.22.23.22.23.22.23.22.23.26.24.22.23.22.23.22.23.26.21.22.23.23.2.25.24.23.2.26.24.23.2.26.21.23.2.26.21.23.2.26.21.26.21.26.21.23.2.26.21.27.17.26.21.27.17.23.2.27.17.27.17.27.17.26.21.27.17.27.17.27.17.27.17.28.14.3.18.27.17.28.14.27.17.28.14.27.17.31.15.27.17.28.14.28.14.31.15.28.14.28.14.31.15.29.11.28.14.31.15.29.11.31.15.29.11.28.14.32.11.29.11.32.11.29.11.32.11.29.11.32.11.29.11.32.11.29.07.32.11.29.07.32.11.29.07.33.08.29.11.33.08.29.07.33.08.29.07.33.08.3.04.33.08.29.07.33.05.29.07.33.05.29.07.33.05.3.04.33.05.3.04.33.05.3.04.33.05.3.04.33.05h.31s.33.05.33.05h.31s.3.04.3.04h.34s.3.05.3.05h.31s.34.02.34.02h.31s.31.01.31.01h.34s.31.02.31.02h.31s.32-.02.32-.02h.34s.31.02.31.02l.32-.03h.31s.32-.02.32-.02l.35-.02h.31s.32-.02.32-.02l.32-.03.32-.03.32-.03.32-.03.32-.03.32-.06.32-.03.32-.03.32-.06.28-.04.33-.06.32-.03.33-.06.32-.06.29-.07.32-.03.32-.06.29-.07.33-.06.33-.1.29-.07.32-.06.29-.07.3-.1.33-.06.3-.1.33-.06.3-.1.3-.1.3-.1.33-.06.3-.1.3-.1.3-.1.3-.1.3-.1.31-.14.3-.1.3-.1.31-.14.27-.11.31-.14.3-.1.31-.14.27-.11.31-.14.28-.15.31-.14.28-.15.31-.14.28-.15.28-.15.31-.14.27-.15.28-.15.27-.15.28-.18.28-.14.28-.18.28-.15.28-.18.28-.15.28-.18.28-.18.24-.15.08-.05.08-.05.08-.05.04-.03.08-.05.12-.08.08-.05.08-.05.11-.04.09-.08.11-.04.12-.08.09-.08.11-.04.12-.08.15-.07.12-.08.12-.08.15-.07.12-.08.15-.07.15-.07.16-.1.15-.07.15-.07.16-.1.19-.06.16-.1.15-.07.19-.06.19-.09.19-.09.19-.06.19-.09.19-.06.19-.09.19-.06.23-.09.19-.06.23-.09.23-.09.19-.06.23-.09.22-.05.23-.09.22-.05.26-.08.22-.05.22-.05.26-.08.22-.05.25-.04.26-.08.25-.04.22-.05.25-.04.25-.04.28-.04.25-.04.25-.04.25-.04h.28s.25-.05.25-.05l.25-.04h.28s.25-.05.25-.05h.28s.28-.04.28-.04h.24s.28-.01.28-.01l.28-.04h.28s.28,0,.28,0h.24s.27.02.27.02h.28s.28,0,.28,0h.28s.27.03.27.03h.28s.27.03.27.03l.27.03.27.03h.28s.3.04.3.04l.27.03.26.06.27.03.27.03.27.03.26.06.26.06.27.03.26.06.26.06.27.03.23.06.26.06.25.1.26.06.26.06.23.06.25.1.23.06.25.1.23.06.25.1.22.09.22.09.26.06.22.09.22.09.22.09.22.09.21.12.22.09.19.08.22.09.21.12.19.08.19.08.21.12.19.08.18.12.19.08.18.12.19.08.18.12.16.07.18.12.15.11.19.08.15.11.15.11.16.07.15.11.15.11.12.07.15.11.12.07.12.1.15.11.12.07.12.1.12.07.08.09.12.07.08.09.12.07.09.06.08.09.09.06.09.06.05.08.09.06.06.05.09.06.06.05.12.1.26.21.23.2.27.17.26.21.26.21.27.17.23.2.27.17.26.21.27.17.27.17.27.17.27.17.27.17.27.17.27.17.27.17.27.17.27.17.31.15.27.17.28.14.27.17.28.14.31.15.27.17.28.14.28.14.31.15.28.14.28.14.31.15.29.11.31.15.29.11.28.14.32.11.28.14.32.11.29.11.28.14.32.11.29.11.32.11.29.07.32.11.29.11.32.11.29.07.32.11.29.07.32.11.29.07.33.08.29.07.33.08.29.07.33.08.33.08.29.07.33.08.29.07.33.05.29.07.33.05.3.04.33.08.3.04.33.05.3.04.33.05.3.04.3.04.33.05.3.04h.34s.3.05.3.05l.33.05h.31s.31,0,.31,0l.33.05h.31s.31,0,.31,0h.34s.31.02.31.02h.31s.34.02.34.02h.31s.31.01.31.01l.32-.03h.34s.31.02.31.02l.32-.03.32-.03h.31s.32-.02.32-.02l.35-.02.32-.03.32-.03.32-.03.32-.03.32-.03.32-.03.32-.03.32-.06.28-.04.32-.03.32-.06.33-.06.32-.03.32-.06.29-.07.32-.06.32-.06.29-.07.32-.06.29-.07.32-.06.32-.06.29-.07.3-.1.33-.06.3-.1.33-.06.3-.1.3-.1.29-.07.33-.1.3-.1.3-.1.3-.1.3-.1.3-.1.3-.1.31-.14.3-.1.3-.1.31-.14.27-.11.31-.14.3-.1.27-.15.31-.14.31-.14.27-.11.31-.14.28-.15.28-.15.31-.14.28-.15.28-.15.32-.17.27-.15.28-.15.28-.18.28-.15.28-.18.28-.15.28-.18.24-.15.28-.18.28-.18.28-.15.25-.19.28-.18.25-.19.28-.18.25-.19.25-.19.28-.18.25-.19.26-.22.25-.19.25-.19.26-.22.25-.19.25-.19.26-.22.25-.19.26-.22.23-.23.25-.19.26-.22.23-.23.23-.23.25-.19.23-.23.23-.23.26-.22.23-.23.23-.23.23-.23.23-.23.23-.23.23-.26.19-.24.23-.23.23-.23.2-.27.23-.23.19-.24.23-.26.19-.24.2-.27.23-.23.2-.27.19-.24.2-.27.2-.27.19-.24.2-.27.17-.28.19-.24.2-.27.17-.28.2-.27.17-.28.2-.27.16-.24.17-.28.17-.28.17-.28.17-.28.17-.28.17-.28.17-.28.18-.31.14-.29.17-.28.17-.28.14-.29.14-.29.17-.28.14-.32.14-.29.14-.29.14-.29.14-.32.14-.29.14-.29.14-.32.14-.29.1-.29.14-.32.1-.29.14-.29.11-.33.1-.29.14-.32.1-.29.11-.33.1-.29.1-.29.11-.33.07-.3.11-.33.1-.29.08-.34.1-.29.08-.34.1-.29.08-.34.07-.3.08-.34.07-.3.08-.34.07-.3.08-.34.07-.3.05-.34.07-.3.08-.34.04-.31.08-.34.04-.31.04-.31.05-.34.04-.31.08-.34.04-.31v-.35s.05-.31.05-.31l.05-.34.04-.31v-.32s.05-.34.05-.34v-.32s.04-.31.04-.31v-.35s.05-.31.05-.31v-.32s.02-.35.02-.35v-.32s0-.32,0-.32v-.35s.02-.32.02-.32v-.32s-.02-.33-.02-.33v-.32s-.02-.36-.02-.36v-.32s0-.14,0-.14v-.11s-.03-.08-.03-.08l.02-.1-.02-.08v-.11s-.02-.11-.02-.11l.02-.1v-.14s-.01-.11-.01-.11v-.11s-.01-.14-.01-.14v-.14s0-.14,0-.14l.03-.13v-.14s0-.14,0-.14v-.18s0-.14,0-.14v-.18s0-.14,0-.14v-.18s.01-.18.01-.18l.04-.17v-.18s.02-.21.02-.21v-.18s.02-.21.02-.21l.04-.17v-.21s.03-.21.03-.21v-.21s.06-.2.06-.2v-.21s.06-.2.06-.2v-.21s.07-.23.07-.23v-.21s.06-.2.06-.2l.05-.23.02-.24.05-.2.05-.23.05-.24.05-.23.05-.23.05-.23.05-.24.09-.26.05-.23.05-.23.1-.26.05-.23.09-.23.06-.27.09-.23.09-.26.1-.26.09-.23.09-.26.1-.26.09-.23.13-.25.09-.26.13-.25.09-.23.13-.25.13-.25.09-.26.13-.25.12-.22.13-.25.13-.25.16-.24.13-.25.12-.22.16-.24.13-.25.15-.21.16-.24.13-.25.15-.21.16-.24.15-.21.16-.24.19-.2.16-.24.15-.21.19-.2.16-.24.19-.2.15-.21.18-.2.19-.2.15-.21.18-.2.19-.2.19-.2.18-.17.19-.2.18-.2.18-.17.18-.17.19-.2.21-.16.18-.17.18-.17.18-.17.21-.16.18-.17.21-.16.17-.14.18-.17.2-.13.18-.17.2-.13.17-.14.18-.17.2-.13.17-.14.19-.09.17-.14.17-.14.19-.09.17-.14.19-.09.17-.14.16-.1.16-.1.16-.1.19-.09.16-.1.15-.07.16-.1.15-.07.16-.1.12-.08.15-.07.16-.1.15-.07.12-.08.15-.03.12-.08.12-.08.15-.04.12-.08.11-.04.12-.08.11-.04.11-.04.08-.05.11-.04.11-.04.07-.02.08-.05.08-.05h.11s.08-.06.08-.06l.04-.03.3-.1.31-.14.31-.14.27-.11.31-.14.28-.14.31-.14.27-.15.31-.14.28-.15.28-.15.31-.14.28-.15.27-.15.28-.18.28-.15.28-.15.28-.18.28-.15.21-.13h61.14c-18.2,75.21-84.26,130.95-163.01,130.95Z"/>
      <text class="cls-4" transform="translate(118.9 560.94) scale(1.03 1)"><tspan x="0" y="0">nu</tspan><tspan class="cls-5" x="230.44" y="0">v</tspan><tspan class="cls-2" x="330.93" y="0">o</tspan></text>
    </g>
  </g>
</svg>