<?xml version="1.0" encoding="utf-8"?>
<!-- Generator: Adobe Illustrator 27.1.0, SVG Export Plug-In . SVG Version: 6.00 Build 0)  -->
<svg version="1.1" xmlns="http://www.w3.org/2000/svg" xmlns:xlink="http://www.w3.org/1999/xlink" x="0px" y="0px"
	 viewBox="0 0 792 612" style="enable-background:new 0 0 792 612;" xml:space="preserve">
<style type="text/css">
	.st0{fill:#69C6E0;stroke:#000000;stroke-width:3;stroke-miterlimit:10;}
	.st1{fill:#F18518;stroke:#000000;stroke-width:3;stroke-miterlimit:10;}
	.st2{stroke:#000000;stroke-width:0.7087;stroke-miterlimit:10;}
	.st3{fill:none;stroke:#000000;stroke-width:0.25;stroke-miterlimit:10;}
	.st4{stroke:#000000;stroke-width:0.25;stroke-miterlimit:10;}
	.st5{fill:none;stroke:#000000;stroke-width:2.8346;stroke-miterlimit:10;}
	.st6{fill:#FFD302;stroke:#000000;stroke-width:3;stroke-miterlimit:10;}
	.st7{fill:#FFFFFF;}
	.st8{fill:#DADADA;}
</style>
<g id="Capa_2">
	<path class="st0" d="M608.87,536.15l-0.3,50.82l119.81,1.63l1.05-51.74l9.88,0.06c0,0,18.41-29.16-7.97-43.39
		c-1.05-18.75-17.15-87.66-17.15-87.66s20.9,2.38,32.39-17.31c23.33-39.99-26.51-110.55-27.93-109.34c0,0,24.61-82.26-9.27-112.92
		c-15.87-14.37-109.41-37.18-118.91,55.09c-3.84,37.24,19.45,56.05,19.45,56.05s-35.17,5.73-41.35,90.34
		c-1.55,21.2,14.88,38.82,50.03,37.38c4.42,41.05-7.6,87.67-7.6,87.67S589,507.12,595.36,535.6
		C608.87,536.15,608.87,536.15,608.87,536.15z"/>
	<path class="st1" d="M423.27,532.47l1.17,50.8l119.81-1.82l-0.44-51.75l9.88-0.23c0,0,5.77-42.85-26.58-43.69
		c-1.59-18.71-2.14-40.99-2.14-40.99s31.81-0.56,34.74-23.17c3.03-23.41-37.83-150.23-37.83-150.23s22.28-69.39-8.8-111.55
		c-12.7-17.23-117.54-40.77-112.56,51.86c-2.32,20.57,16.35,62.11,16.35,62.11s-21.81,24.75-27.15,117.2
		c-10.95,30.56,2.39,63.36,37.66,56.02c5.6,40.91,5.6,40.91,5.6,40.91s-25.06,5.24-23.23,44.37
		C423.27,532.47,423.27,532.47,423.27,532.47z"/>
</g>
<g id="Capa_1">
	<g>
		<g>
			<path d="M430.46,228.1c0.07-0.67,1.48-0.33,1.28-1.07c-0.04-0.15-0.31-0.35-0.43-0.47c-0.24-0.25-0.48-0.47-0.76-0.67
				c-0.64-0.48-1.37-0.82-2.15-0.99c-1.57-0.35-3.2-0.09-4.66,0.58c-3.21,1.48-4.63,4.97-5.09,8.27c-0.56,4.05-0.11,7.79,1.99,11.34
				c1.8,3.04,3.88,6.44,6.95,8.35c1.7,1.06,3.8,1.6,5.8,1.35c1.83-0.23,4.42-1.33,4.22-3.56c-0.2-2.25-3.75-2.27-3.54,0
				c0.38-0.47,0.36-0.55-0.06-0.24c-0.19,0.1-0.39,0.17-0.6,0.22c-0.39,0.1-0.77,0.13-1.17,0.11c-0.83-0.03-1.63-0.27-2.36-0.65
				c-1.65-0.85-2.87-2.37-3.91-3.87c-1.11-1.6-2.26-3.25-3.09-5.02c-0.89-1.91-1.01-3.94-0.88-6.01c0.17-2.9,1.02-7.04,4.52-7.47
				c1.75-0.21,2.12,1.03,3.41,1.83c1.78,1.1,3.86,0,4.06-2.02C434.23,225.83,430.68,225.84,430.46,228.1L430.46,228.1z"/>
		</g>
	</g>
	<g>
		<g>
			<path d="M434.06,247.38c4.51,10.33,10.29,21.11,21.26,25.65c4.85,2.01,10.48,2.58,15.46,0.68c5.34-2.03,9.28-6.25,12.68-10.69
				c4.3-5.6,7.89-11.71,10.69-18.19c0.38-0.88,0.25-1.89-0.64-2.42c-0.74-0.45-2.04-0.24-2.42,0.64c-2.29,5.31-5.1,10.38-8.42,15.11
				c-2.96,4.22-6.33,8.63-10.89,11.2c-9.26,5.22-19.98-0.6-25.94-8.05c-3.75-4.69-6.33-10.24-8.72-15.71
				c-0.39-0.88-1.66-1.07-2.42-0.64C433.79,245.47,433.68,246.51,434.06,247.38L434.06,247.38z"/>
		</g>
	</g>
	<g>
		<g>
			<path d="M492.04,251.12c5.37-1.57,10.87-5.06,13.46-10.19c2.23-4.42,1.64-10.98-3.49-13.09c-2.43-1-5.33-0.65-7.25,1.2
				c-0.58,0.56,0.3,1.44,0.88,0.88c2.05-1.97,5.48-1.75,7.54,0.09c2.18,1.94,2.77,5.22,2.1,7.97c-1.51,6.11-7.88,10.28-13.58,11.94
				C490.94,250.14,491.26,251.35,492.04,251.12L492.04,251.12z"/>
		</g>
	</g>
	<g>
		<path d="M427.77,227.37c1.33,1.82,3.31,3.15,5.5,3.7c2.01-6.51-3.73-13.81-1.07-20.09c-0.69-0.2-1.37-0.39-2.06-0.59
			c0.86-6.47,2.42-13.96,8.29-16.81c2.11-1.03,4.77-1.23,6.73,0.06c1.68-2.06,3.94-4.34,6.55-3.8c1.27,0.26,2.3,1.17,3.17,2.13
			c4.33,4.8,6.43,12.05,12.37,14.6c-0.04-2.9-0.07-5.79-0.11-8.69c-0.47,1-0.11,2.33,0.81,2.95s2.28,0.47,3.04-0.34
			c1.74-1.87-0.36-4.76-2.33-6.38c3.32,7.08,6.81,14.38,12.72,19.5c1.21-1.4,1.81-3.3,1.64-5.15c0.71,2.67,2.4,5.07,4.67,6.65
			c0.5-1.03,0.99-2.06,1.49-3.09c3.63,4.98,6.61,10.44,8.83,16.19c2.39-2.04,6.42-0.1,7.48,2.86c1.06,2.95,0.05,6.23-1.2,9.11
			c-1.35,3.14-3.07,6.26-5.8,8.31c-2.25,1.7-5.04,2.55-7.39,4.1c-5.67,3.73-8.03,11.75-5.29,17.96c0.84-2.01,1.68-4.02,2.52-6.03
			c1.29,2.4,2.83,4.67,4.59,6.76c0.75-2.27,1.51-4.54,2.26-6.8c0.68,1.91,1.91,3.62,3.5,4.88c0.23-2.06,1.19-4.02,2.66-5.47
			c2.1,1.57,4.01,3.4,5.68,5.42c2.15-3.83,2.92-8.27,3.64-12.61c1.02-6.11,2.05-12.26,2.12-18.46c0.11-9.94-2.23-19.72-4.56-29.38
			c-1.06-4.38-2.14-8.83-4.4-12.73c-2.32-4.01-5.76-7.24-9.16-10.4c-2-1.87-4.03-3.75-6.39-5.14c-2.71-1.59-5.89-2.56-8.03-4.86
			c-2.47-2.67-3.73-7.16-7.34-7.61c-2.15-0.27-4.11,1.16-6.19,1.79c-4.01,1.22-8.24-0.56-12.39-1.12
			c-10.8-1.44-21.36,5.97-26.4,15.64c-5.04,9.66-5.5,21.07-4.54,31.92c0.24,2.75,0.6,5.57,1.9,8c1.3,2.43,3.77,4.43,6.53,4.41"/>
		<g>
			<path d="M427.23,227.68c1.5,1.97,3.48,3.34,5.88,3.98c0.33,0.09,0.67-0.11,0.77-0.44c1.94-6.76-3.7-13.49-1.07-20.09
				c0.13-0.32-0.14-0.68-0.44-0.77c-0.69-0.2-1.37-0.39-2.06-0.59c0.15,0.26,0.29,0.51,0.44,0.77c0.53-3.93,1.2-8.05,3.13-11.58
				c2.01-3.67,6.72-7.36,10.97-4.79c0.22,0.13,0.58,0.11,0.76-0.1c1.82-2.2,4.58-5.04,7.52-2.9c2.03,1.47,3.43,3.93,4.74,6.01
				c2.39,3.81,4.77,7.99,9.06,9.91c0.41,0.19,0.95-0.03,0.94-0.54c-0.04-2.9-0.07-5.79-0.11-8.69c-0.01-0.74-0.99-0.81-1.23-0.17
				c-1.06,2.8,2.25,5.43,4.64,3.44c2.7-2.24-0.19-5.88-2.09-7.49c-0.55-0.47-1.29,0.11-0.98,0.76c3.33,7.09,6.83,14.37,12.82,19.63
				c0.23,0.2,0.66,0.28,0.88,0c1.3-1.61,1.96-3.51,1.82-5.59c-0.41,0.06-0.82,0.11-1.23,0.17c0.82,2.87,2.54,5.28,4.96,7.02
				c0.26,0.19,0.72,0.06,0.86-0.22c0.5-1.03,0.99-2.06,1.49-3.09c-0.36,0-0.72,0-1.08,0c3.59,4.96,6.54,10.34,8.77,16.04
				c0.18,0.47,0.66,0.58,1.04,0.28c1.37-1.07,3.21-0.68,4.55,0.24c1.69,1.17,2.35,3.07,2.31,5.07c-0.05,2.31-0.94,4.57-1.89,6.65
				c-0.85,1.88-1.84,3.73-3.17,5.32c-2.74,3.27-6.87,4.12-10.17,6.61c-2.56,1.93-4.4,4.71-5.33,7.76c-1.07,3.48-0.91,7.2,0.52,10.55
				c0.24,0.56,0.97,0.27,1.14-0.15c0.84-2.01,1.68-4.02,2.52-6.03c-0.38,0.05-0.76,0.1-1.14,0.15c1.33,2.45,2.9,4.74,4.68,6.89
				c0.32,0.39,0.91,0.13,1.04-0.28c0.75-2.27,1.51-4.54,2.26-6.8c-0.4,0-0.8,0-1.21,0c0.77,2.03,1.98,3.77,3.66,5.15
				c0.45,0.37,0.99,0.11,1.07-0.44c0.26-1.93,1.13-3.64,2.48-5.03c-0.25,0.03-0.5,0.07-0.76,0.1c2.06,1.56,3.9,3.35,5.55,5.33
				c0.26,0.31,0.8,0.2,0.98-0.13c1.84-3.36,2.71-7.06,3.37-10.8c0.71-4,1.38-8.01,1.87-12.05c1.02-8.38,0.52-16.62-1.03-24.91
				c-0.77-4.1-1.73-8.17-2.71-12.23c-0.91-3.8-1.8-7.62-3.37-11.21c-1.5-3.42-3.75-6.37-6.33-9.05c-2.58-2.67-5.32-5.34-8.26-7.62
				c-2.8-2.17-6.23-3.2-9.06-5.29c-2.48-1.83-3.49-4.83-5.54-7.03c-2.06-2.22-4.62-2.29-7.31-1.18c-1.98,0.82-3.74,1.51-5.93,1.43
				c-2.06-0.07-4.06-0.6-6.07-1.02c-6.52-1.38-12.85-0.3-18.52,3.23c-5.66,3.53-9.96,8.85-12.56,14.95
				c-2.92,6.87-3.82,14.42-3.73,21.83c0.04,3.68,0.2,7.45,0.81,11.09c0.55,3.24,1.85,6.44,4.66,8.34c1.19,0.8,2.55,1.23,3.98,1.26
				c0.8,0.02,0.8-1.23,0-1.25c-3.76-0.09-6.13-3.46-7.03-6.77c-0.93-3.43-1.02-7.17-1.14-10.7c-0.24-7.18,0.34-14.51,2.79-21.31
				c4.33-12.02,16.07-22.27,29.5-19.66c3.31,0.64,6.68,1.71,10.08,1.03c3.03-0.6,6.15-3.45,9.04-0.93c1.92,1.68,2.86,4.23,4.53,6.14
				c2.13,2.44,5.28,3.45,8.02,5c3.09,1.74,5.64,4.31,8.2,6.73c2.58,2.45,5.12,5.01,7.02,8.04c2.01,3.21,3.14,6.83,4.08,10.47
				c0.96,3.75,1.85,7.52,2.67,11.3c1.88,8.62,3.06,17.31,2.29,26.14c-0.39,4.48-1.15,8.92-1.89,13.35
				c-0.7,4.14-1.47,8.31-3.51,12.03c0.33-0.04,0.65-0.08,0.98-0.13c-1.72-2.07-3.66-3.9-5.81-5.52c-0.22-0.16-0.58-0.08-0.76,0.1
				c-1.6,1.64-2.54,3.64-2.85,5.91c0.36-0.15,0.71-0.29,1.07-0.44c-1.51-1.24-2.64-2.77-3.34-4.6c-0.22-0.57-1-0.61-1.21,0
				c-0.75,2.27-1.51,4.54-2.26,6.8c0.35-0.09,0.7-0.18,1.04-0.28c-1.71-2.06-3.21-4.28-4.49-6.63c-0.28-0.52-0.95-0.31-1.14,0.15
				c-0.84,2.01-1.68,4.02-2.52,6.03c0.38-0.05,0.76-0.1,1.14-0.15c-1.53-3.61-1.35-7.82,0.28-11.37c0.79-1.72,1.89-3.29,3.29-4.57
				c1.63-1.49,3.65-2.38,5.61-3.35c1.94-0.96,3.73-2.06,5.2-3.66c1.42-1.56,2.51-3.39,3.42-5.29c1.66-3.46,3.56-8.05,1.64-11.8
				c-1.49-2.91-5.46-4.59-8.22-2.43c0.35,0.09,0.7,0.18,1.04,0.28c-2.27-5.81-5.24-11.29-8.9-16.34c-0.25-0.34-0.86-0.46-1.08,0
				c-0.5,1.03-0.99,2.06-1.49,3.09c0.29-0.07,0.57-0.15,0.86-0.22c-2.15-1.54-3.66-3.73-4.39-6.27c-0.19-0.66-1.27-0.56-1.23,0.17
				c0.11,1.73-0.36,3.35-1.46,4.7c0.29,0,0.59,0,0.88,0c-5.91-5.19-9.34-12.38-12.63-19.38c-0.33,0.25-0.65,0.5-0.98,0.76
				c1.17,1,2.8,2.56,2.79,4.23c-0.01,2.72-4.31,2.03-3.26-0.73c-0.41-0.06-0.82-0.11-1.23-0.17c0.04,2.9,0.07,5.79,0.11,8.69
				c0.31-0.18,0.63-0.36,0.94-0.54c-5.09-2.28-7.3-7.78-10.34-12.08c-1.4-1.98-3.2-4.49-5.8-4.78c-2.83-0.31-5.06,2.05-6.7,4.03
				c0.25-0.03,0.5-0.07,0.76-0.1c-4.24-2.56-9.27,0.23-11.82,3.85c-2.69,3.83-3.51,8.73-4.12,13.26c-0.05,0.34,0.08,0.67,0.44,0.77
				c0.69,0.2,1.37,0.39,2.06,0.59c-0.15-0.26-0.29-0.51-0.44-0.77c-2.67,6.7,3.01,13.36,1.07,20.09c0.26-0.15,0.51-0.29,0.77-0.44
				c-2.06-0.56-3.83-1.71-5.13-3.41C427.83,226.42,426.75,227.04,427.23,227.68L427.23,227.68z"/>
		</g>
	</g>
	<g>
		<path d="M431.79,176.7c-1.47-5.32,1.29-11.49,6.24-13.94"/>
		<g>
			<path d="M432.39,176.54c-1.36-5.12,1.23-10.84,5.95-13.23c0.72-0.36,0.09-1.44-0.63-1.08c-5.21,2.64-8.02,9.01-6.52,14.64
				C431.39,177.64,432.6,177.32,432.39,176.54L432.39,176.54z"/>
		</g>
	</g>
	<g>
		<path d="M437.4,172.61c-0.7,0.11-0.67-1.05-0.28-1.64c2.48-3.82,6.28-6.77,10.59-8.23"/>
		<g>
			<path d="M437.4,171.99c-0.28,0.02,0.12,0.07,0.09,0.1c-0.01,0.01-0.02-0.26-0.02-0.25c0.01-0.18,0.07-0.35,0.15-0.5
				c0.3-0.54,0.71-1.06,1.1-1.54c0.78-0.98,1.65-1.88,2.6-2.69c1.92-1.65,4.15-2.93,6.55-3.75c0.76-0.26,0.43-1.47-0.33-1.21
				c-2.97,1.02-5.7,2.67-7.96,4.86c-1.1,1.07-2.15,2.28-2.96,3.58c-0.51,0.82-0.69,2.75,0.78,2.65
				C438.2,173.18,438.2,171.93,437.4,171.99L437.4,171.99z"/>
		</g>
	</g>
	<g>
		<path d="M457.02,220.52c-2.98,0.32-5.94-0.55-8.9-1.02s-6.25-0.45-8.64,1.35c0.32,0.05,0.64,0.1,0.95,0.16"/>
		<g>
			<path d="M457.02,219.27c-6,0.55-12.66-3.47-18.17,0.5c-0.77,0.55-0.87,2.09,0.3,2.28c0.32,0.05,0.64,0.1,0.95,0.16
				c0.67,0.11,1.34-0.18,1.54-0.87c0.17-0.6-0.21-1.43-0.87-1.54c-0.32-0.05-0.64-0.1-0.95-0.16c0.1,0.76,0.2,1.52,0.3,2.28
				c2.16-1.55,4.86-1.62,7.41-1.26c3.17,0.44,6.27,1.4,9.5,1.1C458.61,221.63,458.63,219.12,457.02,219.27L457.02,219.27z"/>
		</g>
	</g>
	<g>
		<path d="M471.68,220.43c5.03-2.85,11.28-1.74,16.94-0.56"/>
		<g>
			<path d="M472.32,221.51c4.89-2.69,10.8-1.51,15.98-0.44c1.57,0.33,2.24-2.08,0.66-2.41c-5.89-1.23-12.36-2.36-17.9,0.69
				C469.64,220.12,470.9,222.28,472.32,221.51L472.32,221.51z"/>
		</g>
	</g>
	<g>
		<path d="M465.04,236.25c0.81,0.17,1.15,1.11,1.34,1.92c0.73,3.17,1.21,6.39,1.44,9.63c0.01,0.18,0.05,0.39,0.21,0.46
			c0.16,0.07,0.34-0.23,0.17-0.27"/>
		<g>
			<path d="M464.57,237.96c0.26,0.07,0.05,0.01-0.08-0.05c-0.05-0.02-0.09-0.06-0.11-0.11c-0.07-0.11-0.06-0.08,0.04,0.07
				c0.07,0.03,0.12,0.23,0.03,0.01c0.05,0.12,0.09,0.26,0.13,0.38c0.19,0.64,0.31,1.31,0.45,1.97c0.28,1.39,0.53,2.85,0.7,4.22
				c0.09,0.73,0.17,1.46,0.23,2.19c0.07,0.77,0,1.7,0.41,2.38c0.57,0.94,1.77,1.32,2.74,0.71c0.97-0.61,1.34-2.22,0.35-3
				c-0.75-0.59-1.77-0.73-2.51,0c-0.61,0.61-0.76,1.91,0,2.51c0.02,0.02,0.04,0.03,0.06,0.05c-0.17-0.42-0.35-0.84-0.52-1.25
				c0,0.03,0,0.06,0,0.08c0.08-0.3,0.16-0.6,0.24-0.89c-0.02,0.03-0.03,0.06-0.05,0.09c0.21-0.21,0.42-0.42,0.64-0.64
				c-0.03,0.02-0.06,0.04-0.08,0.06c0.3-0.08,0.6-0.16,0.89-0.24c-0.03,0-0.06,0-0.1,0c0.3,0.08,0.6,0.16,0.89,0.24
				c-0.03-0.03-0.07-0.05-0.1-0.08c0.21,0.21,0.42,0.42,0.64,0.64c0.12,0.59,0.16,0.68,0.11,0.28c-0.01-0.15-0.02-0.31-0.04-0.46
				c-0.02-0.31-0.05-0.62-0.08-0.92c-0.06-0.62-0.13-1.23-0.21-1.85c-0.17-1.31-0.36-2.61-0.6-3.91c-0.39-2.12-0.65-5.2-3.14-5.88
				c-0.92-0.25-1.93,0.32-2.18,1.24C463.07,236.7,463.64,237.7,464.57,237.96L464.57,237.96z"/>
		</g>
	</g>
	<g>
		<path d="M462,257.32c-0.1-0.18-0.42,0.04-0.35,0.24s0.29,0.29,0.5,0.35c1.93,0.55,3.94,0.83,5.95,0.84c0.2,0,0.43-0.01,0.55-0.17
			s-0.02-0.46-0.2-0.39"/>
		<g>
			<path d="M463.26,256.07c-0.87-0.98-2.46-0.64-3.1,0.41c-0.6,1-0.18,2.32,0.83,2.87c0.56,0.3,1.23,0.43,1.85,0.57
				c0.54,0.12,1.09,0.22,1.65,0.31c1.21,0.18,2.48,0.36,3.71,0.3c1.17-0.06,2.25-0.81,2.27-2.08c0.01-0.53-0.22-1.07-0.59-1.46
				c-0.52-0.53-1.19-0.63-1.9-0.5c-0.91,0.16-1.51,1.33-1.24,2.18c0.32,0.98,1.2,1.41,2.18,1.24c0.02,0,0.04-0.01,0.07-0.01
				c-0.31,0-0.63,0-0.94,0c0.02,0.01,0.04,0.01,0.06,0.02c-0.26-0.15-0.52-0.3-0.78-0.46c-0.4-1.59-0.11-2.42,0.88-2.48
				c-0.06,0-0.11,0-0.17,0c-0.13,0-0.27,0-0.4-0.01c-0.29-0.01-0.58-0.02-0.87-0.04c-0.27-0.02-0.53-0.04-0.8-0.07
				c-0.13-0.01-0.27-0.03-0.4-0.04c-0.37-0.04,0.35,0.05-0.13-0.02c-0.55-0.08-1.1-0.18-1.65-0.31c-0.26-0.06-0.52-0.12-0.78-0.19
				c-0.13-0.03-0.26-0.08-0.39-0.11c-0.17-0.06-0.12-0.03,0.16,0.08c0.15,0.11,0.29,0.24,0.4,0.39c0.08,0.3,0.16,0.6,0.24,0.89
				c-0.64,0.47-1.29,0.95-1.93,1.42c-0.26-0.15-0.52-0.3-0.78-0.46c0.01,0.02,0.03,0.03,0.04,0.05c0.62,0.69,1.88,0.68,2.51,0
				C463.94,257.83,463.92,256.81,463.26,256.07L463.26,256.07z"/>
		</g>
	</g>
	<g>
		<path d="M440.78,230.73c0.08,0.11-0.21,0.13-0.2,0c0.01-0.14,0.18-0.2,0.31-0.22c5.04-1.04,10.18-1.61,15.32-1.69"/>
		<g>
			<path d="M439.01,230.73c0,0.02,0,0.04,0,0.07c0.43-0.57,0.87-1.14,1.3-1.71c-0.03,0.01-0.05,0.02-0.08,0.03c0.31,0,0.63,0,0.94,0
				c-0.03-0.01-0.06-0.01-0.09-0.02c0.35,0.27,0.71,0.54,1.06,0.81c-0.01-0.02-0.03-0.05-0.04-0.07c0,0.6,0,1.19,0,1.79
				c0.02-0.04,0.04-0.08,0.06-0.11c-0.21,0.21-0.42,0.42-0.64,0.64c-0.27,0.09-0.22,0.1,0.13,0.01c0.15-0.03,0.3-0.06,0.45-0.09
				c0.3-0.06,0.59-0.12,0.89-0.17c0.64-0.12,1.29-0.23,1.94-0.34c1.19-0.19,2.38-0.35,3.58-0.48c2.56-0.28,5.13-0.44,7.7-0.48
				c2.28-0.04,2.28-3.58,0-3.54c-3.59,0.06-7.17,0.36-10.72,0.87c-1.67,0.24-3.44,0.42-5.07,0.88c-1.03,0.29-1.86,1.28-1.55,2.4
				c0.27,0.99,1.38,1.64,2.38,1.31c0.73-0.25,1.31-0.9,1.3-1.71c0-0.02,0-0.04,0-0.07C442.52,228.45,438.98,228.45,439.01,230.73
				L439.01,230.73z"/>
		</g>
	</g>
	<g>
		<path d="M473.25,228.47c2.17-1.24,4.46-2.27,6.83-3.05c1.14-0.38,2.3-0.7,3.49-0.85c1.61-0.2,3.25-0.07,4.81,0.37"/>
		<g>
			<path d="M474.15,230c2.12-1.21,4.34-2.21,6.67-2.96c2.36-0.76,4.67-1.05,7.09-0.39c2.2,0.6,3.14-2.82,0.94-3.42
				c-5.69-1.54-11.59,0.92-16.49,3.71C470.38,228.07,472.16,231.13,474.15,230L474.15,230z"/>
		</g>
	</g>
	
		<ellipse transform="matrix(0.9997 -0.023 0.023 0.9997 -5.2323 10.5174)" class="st2" cx="454.65" cy="232.75" rx="2.32" ry="3.81"/>
	
		<ellipse transform="matrix(0.9997 -0.023 0.023 0.9997 -5.1713 11.1794)" class="st2" cx="483.46" cy="230.42" rx="2.32" ry="3.81"/>
	<g>
		<path d="M429.74,245.76c0.11,0,0.22-0.01,0.33-0.01"/>
		<g>
			<path d="M429.74,246.39c0.11,0,0.22-0.01,0.33-0.01c0.09,0,0.17-0.01,0.24-0.05c0.08-0.03,0.14-0.07,0.2-0.13
				c0.06-0.06,0.1-0.12,0.13-0.2c0.04-0.07,0.06-0.15,0.05-0.24c-0.01-0.06-0.01-0.11-0.02-0.17c-0.03-0.11-0.08-0.2-0.16-0.28
				c-0.04-0.03-0.08-0.07-0.13-0.1c-0.1-0.06-0.2-0.08-0.32-0.09c-0.11,0-0.22,0.01-0.33,0.01c-0.09,0-0.17,0.01-0.24,0.05
				c-0.08,0.03-0.14,0.07-0.2,0.13c-0.06,0.06-0.1,0.12-0.13,0.2c-0.04,0.07-0.06,0.15-0.05,0.24c0.01,0.06,0.01,0.11,0.02,0.17
				c0.03,0.11,0.08,0.2,0.16,0.28c0.04,0.03,0.08,0.07,0.13,0.1C429.52,246.36,429.62,246.39,429.74,246.39L429.74,246.39z"/>
		</g>
	</g>
	<g>
		<path d="M430.35,245.77c-1.33-2.29-1.79-5.07-1.28-7.66"/>
		<g>
			<path d="M431.88,244.88c-0.16-0.28-0.31-0.57-0.45-0.87c-0.2-0.42,0.08,0.22-0.05-0.11c-0.06-0.16-0.13-0.32-0.18-0.49
				c-0.2-0.57-0.35-1.16-0.45-1.76c-0.01-0.09-0.03-0.17-0.04-0.26c0.03,0.23,0.04,0.28,0.02,0.15c-0.01-0.15-0.03-0.3-0.05-0.45
				c-0.02-0.3-0.04-0.61-0.03-0.91c0-0.3,0.01-0.61,0.04-0.91c0.01-0.12,0-0.67,0.01-0.18c-0.01-0.16,0.06-0.35,0.09-0.51
				c0.17-0.91-0.25-1.96-1.24-2.18c-0.87-0.2-1.99,0.26-2.18,1.24c-0.59,3.09-0.11,6.28,1.46,9.03c0.46,0.81,1.63,1.15,2.42,0.64
				C432.06,246.78,432.37,245.74,431.88,244.88L431.88,244.88z"/>
		</g>
	</g>
	<g>
		<path d="M427.2,234.19c0.73,2.32,2.11,4.43,3.95,6.03"/>
		<g>
			<path d="M425.49,234.66c0.83,2.61,2.34,5,4.4,6.81c0.7,0.61,1.83,0.74,2.51,0c0.61-0.67,0.74-1.85,0-2.51
				c-0.45-0.39-0.87-0.81-1.26-1.25c-0.1-0.11-0.19-0.22-0.29-0.34c-0.04-0.05-0.08-0.1-0.12-0.15c-0.14-0.17,0.25,0.33,0.07,0.09
				c-0.18-0.24-0.35-0.48-0.51-0.73c-0.32-0.48-0.6-0.98-0.85-1.5c-0.06-0.13-0.13-0.27-0.19-0.4c-0.13-0.28,0.12,0.31,0.04,0.11
				c-0.02-0.06-0.05-0.12-0.07-0.18c-0.11-0.29-0.22-0.59-0.31-0.88c-0.28-0.88-1.24-1.54-2.18-1.24
				C425.85,232.77,425.19,233.72,425.49,234.66L425.49,234.66z"/>
		</g>
	</g>
	<g>
		<g>
			<path d="M494.64,240.67c0.2,0.23,0.46,0.44,0.74,0.57c0.2,0.1,0.43,0.19,0.64,0.27c0.02,0.01,0.05,0.02,0.07,0.03
				c0.03,0.01,0.06,0.02,0.08,0.02c0.24,0.05,0.48,0.07,0.72,0.1c0.05,0.01,0.1,0.01,0.15,0.01c0.03,0,0.05,0,0.08,0
				c0.24-0.02,0.5-0.06,0.74-0.1c0.05-0.01,0.1-0.02,0.15-0.04c0.26-0.08,0.5-0.2,0.74-0.31c0.28-0.13,0.53-0.35,0.77-0.55
				c0.05-0.04,0.09-0.07,0.13-0.12c0.18-0.19,0.33-0.41,0.49-0.62c0.15-0.2,0.23-0.42,0.32-0.65c0.1-0.23,0.19-0.45,0.25-0.69
				c0.09-0.36,0.12-0.74,0.17-1.1c0.02-0.17,0.03-0.33,0.05-0.5c0.01-0.34-0.06-0.66-0.21-0.96c-0.1-0.31-0.27-0.57-0.51-0.8
				c-0.22-0.24-0.49-0.41-0.8-0.51c-0.3-0.16-0.61-0.23-0.96-0.21c-0.22,0.03-0.44,0.06-0.66,0.09c-0.42,0.12-0.79,0.33-1.09,0.64
				c-0.13,0.17-0.26,0.33-0.39,0.5c-0.22,0.39-0.34,0.8-0.34,1.25c-0.01,0.19-0.03,0.38-0.05,0.57c0.03-0.22,0.06-0.44,0.09-0.66
				c-0.04,0.26-0.09,0.52-0.19,0.77c0.08-0.2,0.17-0.39,0.25-0.59c-0.06,0.14-0.14,0.27-0.23,0.39c0.13-0.17,0.26-0.33,0.39-0.5
				c-0.06,0.08-0.13,0.14-0.21,0.2c0.17-0.13,0.33-0.26,0.5-0.39c-0.09,0.06-0.18,0.12-0.28,0.16c0.2-0.08,0.4-0.17,0.59-0.25
				c-0.1,0.04-0.2,0.07-0.31,0.09c0.22-0.03,0.44-0.06,0.66-0.09c-0.09,0.01-0.19,0.01-0.28,0c0.22,0.03,0.44,0.06,0.66,0.09
				c-0.07-0.01-0.15-0.03-0.22-0.06c0.2,0.08,0.39,0.17,0.59,0.25c-0.06-0.03-0.12-0.06-0.17-0.1c0.17,0.13,0.33,0.26,0.5,0.39
				c-0.04-0.03-0.08-0.07-0.11-0.11c-0.22-0.24-0.49-0.41-0.8-0.51c-0.3-0.16-0.61-0.23-0.96-0.21c-0.34-0.01-0.66,0.06-0.96,0.21
				c-0.31,0.1-0.57,0.27-0.8,0.51c-0.13,0.17-0.26,0.33-0.39,0.5c-0.22,0.39-0.34,0.8-0.34,1.25c0.03,0.22,0.06,0.44,0.09,0.66
				C494.12,240,494.34,240.36,494.64,240.67L494.64,240.67z"/>
		</g>
	</g>
	<path class="st3" d="M381.48,529.4"/>
	<g>
		<path d="M630.03,253.87c0.86,1.13,0.52,2.82-0.39,3.91s-2.25,1.69-3.54,2.26c-4.99,2.17-11.3,3.98-15.45,0.46
			c-2.07-1.76-3.05-4.46-3.93-7.03c-1.48-4.29-2.97-8.92-1.71-13.27c1.16-4.01,4.44-7,6.53-10.61c5.51-9.52,2.21-22.05,6.84-32.04
			c1.72-3.72,4.46-6.87,7.28-9.84c5.66-5.97,12.02-11.61,19.76-14.39c3.59-1.29,7.39-1.93,11.18-2.32
			c12.95-1.36,27.45,0.6,36.22,10.23c2.16,2.38,3.88,5.13,5.41,7.95c6.69,12.4,9.83,27.26,5.84,40.77c-0.2,0.69-0.42,1.46-0.07,2.09
			c0.36,0.65,1.16,0.87,1.83,1.16c4.38,1.89,4.96,7.81,4.47,12.55c-0.22,2.15-0.55,4.36-1.64,6.23c-1.17,2.01-3.11,3.43-5.01,4.77
			c-2.82,1.98-5.88,3.96-9.32,4.07c-3.44,0.11-7.19-2.48-7.02-5.92c0.07-1.51,0.96-3,2.33-3.64c0.86-0.41,1.83-0.47,2.77-0.64
			c7.43-1.32,12.33-10.42,9.35-17.35c-0.32-0.75-0.8-1.53-1.58-1.75c-1.23-0.34-2.3,0.87-2.98,1.95c-2.63,4.12-4.91,8.47-6.83,12.97
			c0.7-3.53,1.4-7.05,2.1-10.58c-1.21,0.65-2.13-1.24-2.22-2.61c-0.27-4.3-0.54-8.6-0.82-12.9c-0.06-0.95-0.13-1.92-0.5-2.8
			c-0.74-1.73-2.52-2.74-4.19-3.63c-8.79-4.69-17.58-9.37-26.37-14.06c-0.94-0.5-1.92-1.01-2.98-1.1c-2.01-0.16-3.88,1.33-4.75,3.15
			s-0.93,3.92-0.85,5.94c0.26,6.73,1.94,13.4,4.9,19.44c-3.28-0.09-5.27-3.66-6.07-6.85c-1.42-5.68-1.19-11.77,0.66-17.33
			c-1.38,0.08-2.3,1.43-2.89,2.68c-3.24,6.86-3.33,15.13-0.24,22.05c-2.51-2.27-3.64-5.76-3.75-9.14s0.68-6.72,1.48-10.01
			c-4.32,0.71-6.1,5.85-7.02,10.14c-0.87,4.05-1.74,8.1-2.61,12.15c-1.46-4.07-2.13-8.42-1.96-12.75
			c-2.13,5.16-3.88,10.48-5.23,15.9c-0.95,3.79-1.36,8.58,1.82,10.86c-0.7,1.95-3.92,1.09-4.79-0.8c-0.87-1.88-0.51-4.12-1.18-6.08
			s-3.46-3.48-4.73-1.84c-0.51,0.65-0.53,1.55-0.48,2.38c0.47,6.91,5.57,13.26,12.21,15.23"/>
	</g>
	<g>
		<g>
			<path d="M660.03,171.64c0.59-1.16,1.13-2.43,2.07-3.36c0.92-0.91,2.14-1.46,3.35-1.89c2.76-0.98,5.66-1.6,8.57-1.91
				c0.79-0.08,0.8-1.33,0-1.25c-3.17,0.33-6.35,0.97-9.34,2.11c-1.23,0.47-2.43,1.06-3.39,1.98c-1.07,1.02-1.68,2.4-2.34,3.69
				C658.59,171.73,659.66,172.36,660.03,171.64L660.03,171.64z"/>
		</g>
	</g>
	<g>
		<g>
			<path d="M605.99,209.9c3.21,0.64,5.95,2.8,7.32,5.76c0.14,0.31,0.58,0.38,0.86,0.22c0.31-0.18,0.37-0.55,0.22-0.86
				c-1.5-3.22-4.58-5.64-8.07-6.34C605.54,208.54,605.2,209.75,605.99,209.9L605.99,209.9z"/>
		</g>
	</g>
	<g>
		<g>
			<path d="M604.86,215.46c1.88-0.47,3.69,0.73,4.94,2.03c1.37,1.43,2.44,3.13,3.98,4.39c0.62,0.51,1.51-0.37,0.88-0.88
				c-1.71-1.4-2.82-3.34-4.43-4.83c-1.53-1.41-3.6-2.44-5.71-1.91C603.74,214.45,604.07,215.66,604.86,215.46L604.86,215.46z"/>
		</g>
	</g>
	<g>
		<g>
			<path d="M624.06,267.11c2.31-1.73,3.67-4.59,3.41-7.49c-0.03-0.34-0.27-0.62-0.62-0.62c-0.32,0-0.65,0.29-0.62,0.62
				c0.22,2.43-0.82,4.94-2.79,6.41c-0.27,0.2-0.41,0.54-0.22,0.86C623.36,267.15,623.79,267.32,624.06,267.11L624.06,267.11z"/>
		</g>
	</g>
	<g>
		<g>
			<path d="M652.16,168.58c2.03,1.88,4.59,3.04,7.33,3.37c0.34,0.04,0.62-0.32,0.62-0.62c0-0.37-0.29-0.58-0.62-0.62
				c-2.39-0.29-4.68-1.37-6.44-3.01C652.46,167.15,651.57,168.03,652.16,168.58L652.16,168.58z"/>
		</g>
	</g>
	<g>
		<g>
			<path d="M629.98,256.76c6.97,6.14,14.47,12.57,23.61,15.12c4.9,1.37,9.82,1.2,14.77,0.18c4.18-0.87,8.32-2.27,12.04-4.39
				c4.13-2.35,7.72-5.69,9.84-9.98c1.01-2.04-2.05-3.83-3.06-1.79c-3.49,7.06-10.99,10.67-18.33,12.42
				c-4.36,1.04-8.77,1.47-13.17,0.44c-4.17-0.98-8.01-2.94-11.58-5.28c-4.14-2.72-7.91-5.95-11.61-9.22
				C630.78,252.75,628.26,255.24,629.98,256.76L629.98,256.76z"/>
		</g>
	</g>
	<g>
		<g>
			<path d="M653.54,265.61c3.43,0.42,7.09-0.55,9.87-2.6c0.74-0.55,1.19-1.56,0.64-2.42c-0.47-0.73-1.63-1.23-2.42-0.64
				c-0.64,0.47-1.31,0.89-2.03,1.23c-0.07,0.03-0.65,0.28-0.26,0.12c-0.14,0.06-0.28,0.11-0.42,0.16c-0.37,0.14-0.75,0.26-1.13,0.36
				c-0.38,0.1-0.77,0.18-1.16,0.25c-0.49,0.09,0.37-0.03-0.12,0.02c-0.2,0.02-0.39,0.04-0.59,0.05c-0.79,0.05-1.59,0.03-2.37-0.07
				c-0.92-0.11-1.81,0.9-1.77,1.77C651.82,264.9,652.55,265.49,653.54,265.61L653.54,265.61z"/>
		</g>
	</g>
	<g>
		<g>
			<path d="M654.72,249.01c0.31,0.84,0.67,1.67,1.13,2.45c0.45,0.77,0.99,1.5,1.57,2.18c0.28,0.33,0.84,0.52,1.25,0.52
				c0.43,0,0.95-0.19,1.25-0.52c0.31-0.34,0.54-0.78,0.52-1.25c-0.02-0.49-0.2-0.88-0.52-1.25c-0.13-0.15-0.26-0.31-0.38-0.47
				c0.09,0.12,0.18,0.24,0.28,0.36c-0.65-0.85-1.2-1.78-1.62-2.76c0.06,0.14,0.12,0.28,0.18,0.42c-0.09-0.21-0.17-0.41-0.24-0.62
				c-0.16-0.44-0.4-0.81-0.81-1.06c-0.38-0.22-0.94-0.32-1.37-0.18c-0.43,0.14-0.84,0.4-1.06,0.81
				C654.68,248.05,654.55,248.57,654.72,249.01L654.72,249.01z"/>
		</g>
	</g>
	<g>
		<g>
			<path d="M669.2,225.46c3.94-1.4,8.8-3.06,12.77-1c0-1.02,0-2.04,0-3.06c-0.34,0.19-0.68,0.39-1.02,0.58
				c-1.98,1.13-0.2,4.19,1.79,3.06c0.34-0.19,0.68-0.39,1.02-0.58c1.12-0.64,1.19-2.44,0-3.06c-4.95-2.57-10.54-1.12-15.5,0.64
				c-0.9,0.32-1.5,1.21-1.24,2.18C667.26,225.1,668.29,225.79,669.2,225.46L669.2,225.46z"/>
		</g>
	</g>
	<g>
		<g>
			<path d="M636.98,227.1c0.34-0.16,0.51-0.23,0.97-0.4c0.41-0.15,0.83-0.29,1.26-0.41c0.42-0.12,0.85-0.23,1.28-0.32
				c0.32-0.07,0.9-0.17,1.07-0.19c0.16-0.02,0.74-0.08,1.08-0.1c0.44-0.03,0.88-0.04,1.32-0.04c0.44,0,0.88,0.02,1.32,0.05
				c0.19,0.01,0.38,0.03,0.56,0.05c0.13,0.01,0.25,0.03,0.37,0.04c-0.16-0.02-0.13-0.02,0.09,0.02c0.91,0.14,1.95-0.23,2.18-1.24
				c0.19-0.84-0.26-2.03-1.24-2.18c-4.14-0.63-8.23-0.07-12.05,1.66c-0.85,0.38-1.12,1.68-0.64,2.42
				C635.12,227.34,636.08,227.51,636.98,227.1L636.98,227.1z"/>
		</g>
	</g>
	<g>
		<g>
			<path d="M632.94,235.55c-0.05-0.02-0.11-0.04-0.16-0.06c0.35,0.27,0.71,0.54,1.06,0.81c-0.03-0.04-0.05-0.08-0.08-0.12
				c0.08,0.3,0.16,0.6,0.24,0.89c0,0.02-0.16,0.5-0.19,0.48c0.03,0.02,0.46-0.29,0.51-0.32c0.34-0.21,0.69-0.4,1.05-0.59
				c0.71-0.37,1.45-0.66,2.22-0.9c1.53-0.48,3.11-0.74,4.71-0.75c3.24-0.04,6.36,0.87,9.05,2.68c1.9,1.27,3.68-1.8,1.79-3.06
				c-3.84-2.57-8.61-3.58-13.18-2.98c-2.28,0.3-4.47,0.96-6.51,2.03c-0.97,0.51-2.1,1.09-2.65,2.07c-0.75,1.32-0.19,2.73,1.2,3.25
				c0.9,0.33,1.94-0.37,2.18-1.24C634.45,236.74,633.84,235.89,632.94,235.55L632.94,235.55z"/>
		</g>
	</g>
	<g>
		<g>
			<path d="M665.25,234.97c-0.05,0.02-0.1,0.05-0.14,0.07c0.46-0.06,0.91-0.12,1.37-0.18c0.04,0.01,0.08,0.03,0.12,0.04
				c0.21,0.21,0.42,0.42,0.64,0.64c-0.03-0.05-0.06-0.1-0.1-0.15c0.08,0.3,0.16,0.6,0.24,0.89c-0.49,0.69-0.51,0.86-0.06,0.5
				c0.18-0.12,0.37-0.24,0.56-0.35c0.37-0.23,0.75-0.45,1.14-0.66c0.67-0.37,1.36-0.71,2.06-1.03c1.46-0.65,2.99-1.14,4.54-1.52
				c2.11-0.51,6.29-1.32,6.8,1.75c0.16,0.94,1.33,1.47,2.18,1.24c1-0.28,1.39-1.23,1.24-2.18c-0.39-2.35-2.51-4.12-4.76-4.62
				c-2.63-0.59-5.46,0.06-7.98,0.82c-2.44,0.74-4.82,1.8-7,3.13c-1.11,0.68-2.32,1.44-2.25,2.91c0.08,1.67,1.82,2.43,3.21,1.75
				c0.86-0.42,1.09-1.64,0.64-2.42C667.16,234.72,666.11,234.54,665.25,234.97L665.25,234.97z"/>
		</g>
	</g>
	
		<ellipse transform="matrix(5.858711e-03 -1 1 5.858711e-03 401.0776 879.3767)" class="st4" cx="642.81" cy="237.97" rx="4.42" ry="5.31"/>
	
		<ellipse transform="matrix(5.858711e-03 -1 1 5.858711e-03 431 906.5851)" class="st4" cx="671.46" cy="236.53" rx="4.42" ry="5.31"/>
	<path class="st5" d="M456.51,271.05l-2.2,9.01c0,0,10.5,6.15,25.05-0.19c-2.81-14.31-1.27-14.59-1.27-14.59"/>
	<path class="st5" d="M454.3,281.07c0,0-29.95,0.5-37.72,27.97c-5.38,43.3-8,64.33-9.27,74.55c-1.2,9.66-1.2,9.66-1.2,9.66
		s11.63,7.75,24.31,3.26c2.32-15.13,9.06-87.23,9.06-87.23l4.31,87.69l60.31,0.14l-15.86-92l24.93,88.36c0,0,16.51,4.2,25.48-4.02
		c-3.94-13.46-26.49-89.47-26.49-89.47s-6.11-21.41-32.83-19.09C452.63,283.2,454.3,281.07,454.3,281.07z"/>
	<path class="st5" d="M447.73,396.47c0,0-4.53,90.78,7.12,99.49c13.93-0.13,20.62,0.29,20.62,0.29l-2.01-87.36l17.27,87.01
		l20.99-0.1c0,0-3.36-65-13.12-99.51C451.12,396.23,447.73,396.47,447.73,396.47z"/>
	<path class="st5" d="M533.2,398.96c0,0,10.67,10.74,10.59,15.77c-2.69,0.91-8.57-6.62-8.57-6.62s5.35,10.44,4.52,13.52
		c-3.87,1.71-8.89-11.89-8.89-11.89s3.21,13.21,0.08,16.69c-4.42-0.24-4.08-15.92-4.08-15.92s-2.31,12.91-3.58,14.39
		c-3.85-1.61-0.81-13.44-0.81-13.44s-0.75,6.66-3.42,8.42c-5.26,2.16-0.46-11.4-0.46-11.4l1.12-12.29l-0.85-2.16
		c0,0,11.7-0.9,11-0.8c-0.7,0.1,0,0,0,0L533.2,398.96z"/>
	<path class="st5" d="M454.56,495.91c0,0,0.83,4.63,0.08,8.17c-0.37,1.73-1.11,3.2-2.51,3.74c-4.28,1.67-20.6-0.54-21.29,12.35
		c-0.01,0.54-0.02,1.04-0.04,1.5c-0.18,5.88-0.66,5.74-0.66,5.74l42.38-1.53c0-0.08-0.41-27.93-0.43-29.45
		C466.24,496.26,460.4,496.08,454.56,495.91z"/>
	<path d="M440.56,509.2c0,0,3.5,2.24,5.06,5.44c3.27,0.11,3.27,0.11,3.27,0.11s-3.15-5.67-4.27-6.02
		C443.5,508.39,440.56,509.2,440.56,509.2z"/>
	<path d="M448.46,508.57c0,0,3.5,2.24,5.06,5.44c3.27,0.11,3.27,0.11,3.27,0.11s-3.15-5.67-4.27-6.02
		C451.4,507.77,448.46,508.57,448.46,508.57z"/>
	<path class="st5" d="M454.88,503.71c-1.23-0.17-1.13,3.26-2.55,3.82c-4.34,1.71-20.91-0.56-21.61,12.59
		c-0.01,0.55-0.02,1.06-0.04,1.53c-0.18,6-0.67,5.85-0.67,5.85l43.02-1.56c0-0.08-0.83-19.47-0.71-21.75
		C467.39,505.02,466.99,505.38,454.88,503.71z"/>
	<path class="st5" d="M405.78,403.22c0,0-11.58,11.25-11.24,16.27c3.09,0.78,9.4-7.03,9.4-7.03s-5.56,10.69-4.47,13.73
		c4.48,1.52,9.51-12.31,9.51-12.31s-2.99,13.35,0.73,16.68c5-0.46,3.84-16.1,3.84-16.1s3.25,12.78,4.77,14.2
		c4.29-1.8,0.26-13.46,0.26-13.46s1.18,6.62,4.29,8.25c6.08,1.9-0.03-11.41-0.03-11.41l-1.88-12.22l-0.81-2.3
		c0,0-9.33-2.24-8.53-2.17c0.8,0.07-2.33,2.02-2.33,2.02L405.78,403.22z"/>
	<path class="st5" d="M510.72,495.16c0,0-0.62,4.66,0.3,8.16c0.45,1.71,1.26,3.14,2.68,3.62c4.35,1.47,20.56-1.49,21.84,11.35
		c0.03,0.54,0.07,1.04,0.11,1.5c0.45,5.87,0.92,5.7,0.92,5.7l-42.4,0.42c0-0.08-0.88-27.92-0.92-29.43
		C499.07,496.04,504.9,495.6,510.72,495.16z"/>
	<path d="M525.32,507.79c0,0-3.4,2.39-4.8,5.67c-3.26,0.26-3.26,0.26-3.26,0.26s2.89-5.81,3.99-6.21
		C522.34,507.12,525.32,507.79,525.32,507.79z"/>
	<path d="M515.65,507.47c0,0-2.67,1.88-3.78,4.46c-2.57,0.2-2.57,0.2-2.57,0.2s2.27-4.57,3.14-4.88
		C513.31,506.94,515.65,507.47,515.65,507.47z"/>
	<path class="st5" d="M510.76,502.96c1.22-0.23,1.28,3.2,2.73,3.7c4.41,1.51,20.87-1.52,22.17,11.59c0.04,0.55,0.07,1.06,0.11,1.53
		c0.46,5.99,0.94,5.82,0.94,5.82l-43.04,0.42c0-0.08-0.07-19.49-0.29-21.76C498.33,504.85,498.75,505.19,510.76,502.96z"/>
	<path d="M426.21,292.07c0,0,74.59,2.62,80.45,0.12c5.86-2.5,7.5,17.57,7.5,17.57l-22.81,2.89l-3.1-7.56l1.99,10.74L440.93,315
		l-1.44-5.73l-1.66,8.17l-23.36-4.19C414.47,313.24,419.95,294.38,426.21,292.07z"/>
	<polygon points="413.09,338.87 414.69,322.79 437.29,328.06 436.05,342.8 	"/>
	<polygon points="522.42,334.51 516.35,319.46 494.02,325.77 495.94,340.44 	"/>
	<polygon points="440.8,343.59 440.01,326.46 492.05,325.65 494.63,343.73 	"/>
	<polygon points="442.3,369.19 441.49,352.06 496.64,351.18 499.36,369.26 	"/>
	<polygon points="444.1,397.23 443.27,380.1 501.5,379.15 504.34,397.23 	"/>
	<polygon points="408.96,365.03 410.99,350.78 435.48,352.19 434.27,368.39 	"/>
	<polygon points="407.32,383.59 409.51,372.11 432.08,375.93 430.77,387.79 	"/>
	<polygon points="500.68,349.71 505.23,367.15 530.33,361.16 525.6,344.32 	"/>
	<polygon points="535.93,382.02 533.1,370.45 509.13,376.13 510.98,387.92 	"/>
	<path class="st5" d="M651.15,273.13l-2.56,9.29c0,0,10.72,6.7,26.01,0.55c-2.49-14.94-0.89-15.19-0.89-15.19"/>
	<path class="st5" d="M648.59,282.43c0,0-55.55,6.47-35.03,36.25c8.48,12.31,24.01-2.62,24.01-2.62s8.18,80.62-3.45,88.34
		c58.94,0.35,67.39,0.39,67.39,0.39s-16.11-70.45-15.72-87.87c6.07,4.68,16.52,6.2,23.53,0.72c7-5.48,8.54-19.04-5.89-26.06
		c-23.84-11.6-28.82-8.59-28.82-8.59"/>
	<path class="st5" d="M617.48,322.88c0,0-24.98,37.29-19.85,40.55s31.49,14.3,31.49,14.3s9.81-0.9,10.03,3.41
		c0.21,4.31-0.55,12.67-0.55,12.67l-1.94,5.01c0,0-6.63,8.09-6.16-10.08c-13.73-4.63-54.6-10.37-45.02-31.84
		c9.57-21.47,23.39-51.77,23.39-51.77S610.44,319.97,617.48,322.88z"/>
	<path class="st5" d="M703.85,321.24c0,0,24.32,36.48,19.16,39.68c-5.16,3.2-20.04,7.43-20.04,7.43s-7.3,1.39-7.57,5.7
		c-0.26,4.3,1.85,10.3,1.85,10.3l1.86,8.5c0,0,6.91,4.11,6.66-14.07c13.78-4.46,38.79-2.66,29.46-24.24
		c-9.32-21.58-21.36-51.66-21.36-51.66C715.04,306.37,715.48,316.64,703.85,321.24z"/>
	<path d="M660.99,286.06c0,0-27.06,12.75-13.03,19.46C661.99,312.22,660.99,286.06,660.99,286.06z"/>
	<path d="M674.34,305.55c-13.89,6.44-12.6-19.31-12.6-19.31S688.23,299.11,674.34,305.55"/>
	<path d="M611.17,297.61c0,0-13.36,3.49-9.65,13.22c0.89,2.33,3.23,1.69,3.23,1.69s-2.51,8.48,4.97,8.64
		c-0.62,3.07,1.31,6.47,6.85,5.53c2.52,3.53,6.92,0.51,5.45-2.23C621.34,323.19,605.41,321.26,611.17,297.61z"/>
	<path d="M713.07,298.21c0,0,9.16-1.23,7.42,9.64c0.03,2.35-2.12,4.26-2.12,4.26s2.74,7.08-4.12,9.66c0.76,2.35-1.09,5.36-6.4,4.86
		c-4.77,2.61-6.91-1.59-6.64-4.58C701.34,320.62,718.55,321.92,713.07,298.21z"/>
	<path d="M643.55,404.45c0,0-13.86,91.24-19.15,91.21c52.99,0.31,92.27,0.54,92.27,0.54s-20.79-48.88-25.36-91.47
		C647.17,404.47,643.55,404.45,643.55,404.45z"/>
	<path class="st5" d="M641.97,495.45c0,0,0.72,4.83-0.17,8.48c-0.43,1.78-1.25,3.28-2.72,3.81c-4.49,1.61-21.38-1.18-22.48,12.18
		c-0.03,0.56-0.05,1.08-0.08,1.56c-0.36,6.1-0.86,5.94-0.86,5.94l44.05-0.32c0-0.08,0.41-29.01,0.44-30.59
		C654.08,496.16,648.02,495.8,641.97,495.45z"/>
	<path d="M642.07,503.55c-1.27-0.21-1.27,3.35-2.76,3.89c-4.56,1.64-21.7-1.21-22.82,12.43c-0.03,0.57-0.06,1.1-0.08,1.59
		c-0.37,6.23-0.87,6.06-0.87,6.06l44.71-0.33c0-0.08-0.28-20.24-0.09-22.6C655.01,505.3,654.58,505.65,642.07,503.55z"/>
	<path class="st5" d="M696.56,495.32c0,0-0.78,4.82,0.07,8.48c0.41,1.79,1.21,3.3,2.68,3.84c4.47,1.66,21.39-0.93,22.33,12.44
		c0.02,0.56,0.04,1.08,0.06,1.56c0.29,6.11,0.79,5.95,0.79,5.95l-44.04-0.84c0-0.08-0.07-29.02-0.08-30.59
		C684.44,495.89,690.5,495.6,696.56,495.32z"/>
	<path d="M696.27,503.45c1.27-0.21,1.26,3.36,2.75,3.9c4.55,1.66,21.7-1.13,22.77,12.51c0.03,0.57,0.05,1.1,0.08,1.59
		c0.34,6.23,0.85,6.06,0.85,6.06l-44.71-0.49c0-0.08,0.35-20.24,0.17-22.6C683.32,505.15,683.74,505.51,696.27,503.45z"/>
	<path class="st6" d="M224.97,545.93l0.01,50.82l119.82,0.91l0.74-51.75l9.88,0c0,0,6.74-42.71-25.57-44.28
		c-1.17-18.74-2.65-45.37-2.65-45.37s33.26,4.51,36.7-18.02c3.57-23.33-34.4-151.05-34.4-151.05s0.51-65.39-2.71-117.67
		c-2.02-32.87-118.59-82.86-117.26,55.22c-2.79,20.51,7.58,62.97,7.58,62.97s-15.03,23.74-22.47,116.05
		c-11.65,30.3-0.02,55.83,35.4,49.3c4.67,41.02,5.64,48.59,5.64,48.59s-25.17,4.67-24.23,43.83
		C224.97,545.93,224.97,545.93,224.97,545.93z"/>
	<g>
		<g>
			<path d="M231.39,231.38c-2.87-1-6.15,0.21-8,2.55c-2.03,2.57-2.25,6.02-1.53,9.11c0.41,1.76,1.13,3.43,1.85,5.08
				c0.71,1.63,1.34,3.34,2.3,4.83c1.53,2.36,3.87,4.03,6.54,4.86c3.08,0.97,6.41,0.71,9.3-0.7c2.05-1,0.26-4.06-1.79-3.06
				c-2.21,1.08-4.87,1.03-7.14,0.15c-2.82-1.09-4.19-3.34-5.34-6.01c-1.27-2.93-3.01-6.19-2.49-9.49c0.4-2.55,2.65-4.85,5.36-3.9
				C232.6,235.55,233.53,232.13,231.39,231.38L231.39,231.38z"/>
		</g>
	</g>
	<g>
		<g>
			<path d="M236.37,250.95c3.33,10.87,11.9,19.86,22.84,23.2c11.34,3.46,24.35,0.77,32.57-7.99c4.19-4.47,6.87-10.1,7.53-16.19
				c0.1-0.96-0.89-1.76-1.77-1.77c-1.04-0.01-1.67,0.82-1.77,1.77c-1.05,9.76-8.68,18.01-17.92,20.84
				c-10.19,3.12-21.57,0.42-29.33-6.85c-4.07-3.81-7.09-8.62-8.72-13.95C239.12,247.83,235.7,248.76,236.37,250.95L236.37,250.95z"
				/>
		</g>
	</g>
	<g>
		<g>
			<path d="M298.81,238.02c2.03-1.36,4.54-1.96,6.95-1.46c1.13,0.23,2.21,0.5,2.59,1.69c0.36,1.11,0.37,2.41,0.22,3.55
				c-0.67,4.99-5.11,8.54-10.03,8.7c-2.27,0.07-2.28,3.62,0,3.54c5.32-0.17,10.37-3.23,12.51-8.18c1.09-2.53,1.43-5.33,0.85-8.04
				c-0.3-1.42-1.02-2.68-2.23-3.52c-1.09-0.76-2.48-1.11-3.77-1.29c-3.08-0.44-6.28,0.21-8.88,1.95c-0.79,0.53-1.14,1.56-0.64,2.42
				C296.84,238.17,298.01,238.55,298.81,238.02L298.81,238.02z"/>
		</g>
	</g>
	<g>
		<path d="M232.75,232.31c2.26,1.6,4.53,3.2,6.79,4.8c0.67-4.01-2.41-7.56-4.35-11.16c-2.95-5.47-3.36-12.16-1.1-17.92
			c1.04-2.67,2.79-5.28,5.5-6.43c2.1-0.88,4.47-0.78,6.76-0.82c5.42-0.1,10.81-1.12,15.87-3c0.55,3.42,0.21,6.95,1.08,10.3
			c0.87,3.35,3.5,6.69,7.08,6.85c-2.02-4.52-1.66-9.97,0.94-14.21c-0.08,4.27,1.75,8.54,4.94,11.51c-1.41-2.75-1.45-6.12-0.11-8.9
			c2.08,1.3,2.47,4.01,2.98,6.35c0.64,2.99,1.77,5.89,3.34,8.54c0.84,1.42,1.93,2.87,3.56,3.34s3.77-0.66,3.61-2.29
			c-0.1,1.7,0.99,3.4,2.6,4.09c1.61,0.69,3.65,0.31,4.89-0.9c1,1.6,0.52,3.63,0.3,5.48c-0.22,1.86,0.09,4.14,1.86,4.91
			c1.08,0.48,2.34,0.2,3.53,0.15c3.1-0.11,6.2,1.6,7.66,4.25c-1.37-4.58-2.76-9.29-2.36-14.05c0.21-2.45,0.89-4.84,1.33-7.27
			c1.53-8.43,0.03-17.33-4.19-24.86c-1.49-2.67-3.33-5.18-5.65-7.22c-3.92-3.45-9.01-5.4-14.13-6.74c-8.9-2.32-18.25-3-27.41-2.02
			c-4.57,0.49-9.14,1.4-13.31,3.26c-9.66,4.3-16.45,13.57-18.64,23.61c-2.19,10.04-0.1,20.68,4.61,29.87
			c2.24,0.65,4.49,1.29,6.73,1.94"/>
	</g>
	<g>
		<g>
			<path d="M242.72,229.38c4.71-1.84,9.86-1.83,14.57,0.03c0.89,0.35,1.95-0.39,2.18-1.24c0.28-1.01-0.34-1.83-1.24-2.18
				c-5.21-2.06-11.24-2.07-16.46-0.03c-0.89,0.35-1.51,1.19-1.24,2.18C240.77,228.99,241.82,229.73,242.72,229.38L242.72,229.38z"/>
		</g>
	</g>
	<g>
		<g>
			<path d="M277.4,227.93c3.68-2,8.02-2.44,12.02-1.32c2.2,0.62,3.14-2.8,0.94-3.42c-4.92-1.38-10.26-0.76-14.75,1.67
				c-0.84,0.46-1.11,1.62-0.64,2.42C275.48,228.15,276.56,228.39,277.4,227.93L277.4,227.93z"/>
		</g>
	</g>
	<g>
		<g>
			<path d="M275.59,238.36c2.67-0.78,5.33-1.56,8-2.33c2.38-0.69,4.93-1.51,7.43-0.97c0.93,0.2,1.92-0.28,2.18-1.24
				c0.24-0.88-0.3-1.98-1.24-2.18c-2.96-0.64-5.86-0.02-8.71,0.8c-2.87,0.83-5.74,1.67-8.6,2.51
				C272.47,235.58,273.4,239,275.59,238.36L275.59,238.36z"/>
		</g>
	</g>
	<g>
		<g>
			<path d="M283.87,235.82c0.03,0.79,0.23,1.55,0.62,2.24c0.39,0.69,0.95,1.24,1.59,1.67c0.14,0.06,0.28,0.12,0.42,0.18
				c0.24,0.07,0.47,0.08,0.71,0.03c0.16,0,0.31-0.04,0.45-0.12c0.22-0.07,0.41-0.19,0.57-0.37c0.27-0.29,0.53-0.62,0.7-0.97
				c0.17-0.36,0.33-0.74,0.39-1.13c0.04-0.27,0.09-0.54,0.09-0.81c0-0.27-0.04-0.54-0.08-0.81c-0.06-0.41-0.22-0.78-0.4-1.15
				c-0.11-0.21-0.26-0.37-0.46-0.5c-0.17-0.16-0.37-0.26-0.6-0.32c-0.24-0.07-0.47-0.08-0.71-0.03c-0.24,0.01-0.46,0.08-0.66,0.21
				c-0.38,0.24-0.71,0.61-0.81,1.06c-0.02,0.16-0.04,0.31-0.06,0.47c0,0.32,0.08,0.62,0.24,0.89c0.02,0.04,0.03,0.07,0.05,0.11
				c-0.06-0.14-0.12-0.28-0.18-0.42c0.08,0.2,0.14,0.4,0.17,0.62c-0.02-0.16-0.04-0.31-0.06-0.47c0.03,0.21,0.02,0.43,0,0.64
				c0.02-0.16,0.04-0.31,0.06-0.47c-0.03,0.23-0.09,0.45-0.18,0.66c0.06-0.14,0.12-0.28,0.18-0.42c-0.08,0.19-0.18,0.36-0.31,0.52
				c0.09-0.12,0.18-0.24,0.28-0.36c-0.05,0.06-0.1,0.13-0.16,0.19c0.72-0.09,1.43-0.18,2.15-0.28c-0.06-0.04-0.12-0.08-0.17-0.12
				c0.12,0.09,0.24,0.18,0.36,0.28c-0.2-0.16-0.38-0.33-0.53-0.53c0.09,0.12,0.18,0.24,0.28,0.36c-0.16-0.21-0.3-0.44-0.4-0.68
				c0.06,0.14,0.12,0.28,0.18,0.42c-0.1-0.24-0.17-0.49-0.21-0.76c0.02,0.16,0.04,0.31,0.06,0.47c-0.01-0.1-0.02-0.19-0.02-0.29
				c-0.02-0.46-0.19-0.92-0.52-1.25c-0.31-0.31-0.81-0.54-1.25-0.52c-0.46,0.02-0.93,0.17-1.25,0.52
				C284.08,234.9,283.85,235.34,283.87,235.82L283.87,235.82z"/>
		</g>
	</g>
	<g>
		<g>
			<path d="M245.7,237.07c2.6-0.08,5.21-0.16,7.81-0.23c2.3-0.07,4.61-0.22,6.79,0.65c0.89,0.36,1.95-0.39,2.18-1.24
				c0.28-1.01-0.35-1.82-1.24-2.18c-2.36-0.94-4.95-0.86-7.44-0.78c-2.7,0.08-5.41,0.16-8.11,0.24
				C243.42,233.6,243.41,237.14,245.7,237.07L245.7,237.07z"/>
		</g>
	</g>
	<g>
		<g>
			<path d="M255.72,236.76c0.09,0.74,0.2,1.47,0.41,2.18c0.21,0.7,0.5,1.39,0.82,2.05c0.18,0.37,0.66,0.72,1.06,0.81
				c0.16,0.02,0.31,0.04,0.47,0.06c0.32,0,0.62-0.08,0.89-0.24c0.22-0.09,0.39-0.22,0.58-0.37c0.18-0.14,0.35-0.27,0.49-0.44
				c0.4-0.47,0.67-0.93,0.86-1.52c0.09-0.28,0.12-0.58,0.15-0.87c0.02-0.15,0.02-0.3,0-0.45c-0.06-0.61-0.19-1.18-0.52-1.7
				c-0.39-0.61-1.04-0.94-1.77-0.85c-0.32,0.04-0.58,0.15-0.84,0.35c-0.3,0.23-0.54,0.55-0.63,0.92c-0.09,0.38-0.19,0.75-0.28,1.13
				c-0.11,0.45-0.06,0.96,0.18,1.37c0.22,0.37,0.64,0.72,1.06,0.81c0.45,0.1,0.96,0.08,1.37-0.18c0.38-0.25,0.7-0.61,0.81-1.06
				c0.09-0.38,0.19-0.75,0.28-1.13c-1.08,0.14-2.16,0.28-3.24,0.42c0.06,0.09,0.11,0.19,0.15,0.29c-0.06-0.14-0.12-0.28-0.18-0.42
				c0.06,0.15,0.1,0.31,0.12,0.47c-0.02-0.16-0.04-0.31-0.06-0.47c0.02,0.18,0.02,0.35,0,0.53c0.02-0.16,0.04-0.31,0.06-0.47
				c-0.03,0.19-0.08,0.38-0.15,0.56c0.06-0.14,0.12-0.28,0.18-0.42c-0.07,0.17-0.16,0.32-0.27,0.47c0.09-0.12,0.18-0.24,0.28-0.36
				c-0.11,0.14-0.24,0.27-0.38,0.38c0.12-0.09,0.24-0.18,0.36-0.28c-0.13,0.09-0.26,0.17-0.4,0.23c0.81,0.21,1.62,0.42,2.42,0.64
				c-0.1-0.2-0.19-0.4-0.28-0.6c0.06,0.14,0.12,0.28,0.18,0.42c-0.34-0.82-0.57-1.67-0.69-2.55c0.02,0.16,0.04,0.31,0.06,0.47
				c-0.01-0.06-0.02-0.12-0.02-0.18c0.01-0.24-0.04-0.47-0.15-0.68c-0.07-0.22-0.19-0.41-0.37-0.57c-0.31-0.31-0.81-0.54-1.25-0.52
				c-0.46,0.02-0.93,0.17-1.25,0.52C255.94,235.83,255.67,236.3,255.72,236.76L255.72,236.76z"/>
		</g>
	</g>
	<g>
		<g>
			<path d="M267.07,239.57c0.52,0.91,0.8,1.53,1.1,2.5c0.14,0.44,0.26,0.89,0.36,1.35c0.11,0.49,0.17,0.87,0.2,1.2
				c0.21,2.02,0.05,3.63-0.53,5.52c-0.28,0.91,0.33,1.93,1.24,2.18c0.95,0.26,1.9-0.32,2.18-1.24c1.36-4.42,0.78-9.28-1.49-13.29
				c-0.47-0.83-1.61-1.11-2.42-0.64C266.87,237.63,266.6,238.73,267.07,239.57L267.07,239.57z"/>
		</g>
	</g>
	<g>
		<g>
			<path d="M262.49,262.8c1.86,0.9,3.8,1.44,5.86,1.63c0.86,0.08,1.81,0.15,2.65-0.13c0.51-0.17,1.01-0.43,1.37-0.84
				c0.56-0.65,0.68-1.34,0.55-2.18c-0.15-0.92-1.34-1.51-2.18-1.24c-1,0.32-1.39,1.2-1.24,2.18c-0.09-0.36-0.05-0.68,0.13-0.98
				c0.21-0.24,0.25-0.3,0.13-0.17c0.25-0.18,0.3-0.22,0.14-0.13c-0.16,0.08-0.11,0.06,0.16-0.06c-0.07-0.01-0.27,0.06-0.34,0.09
				c-0.14,0.03-0.06,0.02,0.23-0.03c-0.06,0.01-0.13,0.01-0.19,0.01c-0.37,0.01-0.75-0.01-1.12-0.04c-0.14-0.01-0.28-0.02-0.42-0.04
				c-0.09-0.01-0.19-0.02-0.28-0.03c0.24,0.03,0.26,0.04,0.05,0.01c-0.69-0.12-1.38-0.26-2.05-0.47c-0.31-0.1-0.62-0.2-0.93-0.32
				c-0.09-0.03-0.17-0.07-0.26-0.1c0.21,0.09,0.22,0.09,0.04,0.02c-0.17-0.08-0.34-0.15-0.51-0.24c-0.83-0.4-1.95-0.26-2.42,0.64
				C261.44,261.17,261.6,262.37,262.49,262.8L262.49,262.8z"/>
		</g>
	</g>
	<g>
		<g>
			<path d="M300.83,242.49c0.05-0.08,0.11-0.17,0.17-0.25c-0.09,0.12-0.18,0.24-0.28,0.36c0.14-0.17,0.3-0.32,0.47-0.46
				c-0.12,0.09-0.24,0.18-0.36,0.28c0.2-0.15,0.41-0.27,0.63-0.36c-0.14,0.06-0.28,0.12-0.42,0.18c0.25-0.1,0.5-0.17,0.76-0.21
				c-0.16,0.02-0.31,0.04-0.47,0.06c0.24-0.03,0.48-0.03,0.72,0c-0.16-0.02-0.31-0.04-0.47-0.06c0.22,0.03,0.43,0.09,0.64,0.18
				c-0.14-0.06-0.28-0.12-0.42-0.18c0.16,0.07,0.31,0.16,0.45,0.26c-0.12-0.09-0.24-0.18-0.36-0.28c0.17,0.13,0.31,0.28,0.44,0.44
				c-0.09-0.12-0.18-0.24-0.28-0.36c0.13,0.17,0.23,0.35,0.31,0.54c-0.06-0.14-0.12-0.28-0.18-0.42c0.08,0.19,0.13,0.39,0.17,0.6
				c-0.02-0.16-0.04-0.31-0.06-0.47c0.03,0.2,0.03,0.41,0.01,0.61c0.02-0.16,0.04-0.31,0.06-0.47c-0.03,0.18-0.07,0.36-0.15,0.53
				c0.06-0.14,0.12-0.28,0.18-0.42c-0.05,0.1-0.1,0.2-0.16,0.3c-0.51,0.78-0.18,1.99,0.64,2.42c0.88,0.47,1.88,0.2,2.42-0.64
				c0.42-0.65,0.64-1.51,0.55-2.28c-0.06-0.59-0.18-1.03-0.43-1.57c-0.17-0.36-0.41-0.68-0.67-0.98c-0.51-0.6-1.3-1.05-2.07-1.2
				c-0.83-0.16-1.72-0.15-2.52,0.16c-0.99,0.39-1.82,0.99-2.39,1.91c-0.49,0.79-0.19,1.99,0.64,2.42
				C299.27,243.59,300.3,243.33,300.83,242.49L300.83,242.49z"/>
		</g>
	</g>
	<g>
		<g>
			<path d="M230.95,240.81c0.05-0.05,0.09-0.09,0.14-0.14c-0.12,0.09-0.24,0.18-0.36,0.28c0.05-0.04,0.11-0.06,0.17-0.09
				c-0.14,0.06-0.28,0.12-0.42,0.18c0.06-0.02,0.12-0.04,0.18-0.05c-0.16,0.02-0.31,0.04-0.47,0.06c0.11-0.01,0.22-0.01,0.34,0
				c-0.16-0.02-0.31-0.04-0.47-0.06c0.2,0.03,0.38,0.09,0.57,0.16c-0.14-0.06-0.28-0.12-0.42-0.18c0.71,0.31,1.37,0.81,1.98,1.28
				c-0.12-0.09-0.24-0.18-0.36-0.28c0.5,0.39,0.97,0.82,1.37,1.32c-0.09-0.12-0.18-0.24-0.28-0.36c0.23,0.3,0.42,0.62,0.57,0.97
				c-0.06-0.14-0.12-0.28-0.18-0.42c0.02,0.05,0.04,0.1,0.06,0.15c0.17,0.44,0.39,0.81,0.81,1.06c0.38,0.22,0.94,0.32,1.37,0.18
				c0.85-0.27,1.59-1.25,1.24-2.18c-0.33-0.88-0.79-1.62-1.43-2.31c-0.55-0.59-1.2-1.08-1.86-1.54c-0.64-0.45-1.26-0.86-2-1.14
				c-1.02-0.38-2.3-0.25-3.05,0.6c-0.31,0.35-0.52,0.77-0.52,1.25c0,0.43,0.19,0.95,0.52,1.25
				C229.12,241.42,230.3,241.55,230.95,240.81L230.95,240.81z"/>
		</g>
	</g>
	<g>
		<g>
			<path d="M230.73,240.96c-1.21,3.97,0.04,8.49,3.05,11.34c0.67,0.64,1.85,0.72,2.51,0c0.63-0.69,0.72-1.83,0-2.51
				c-0.3-0.28-0.57-0.59-0.84-0.9c-0.18-0.2,0.23,0.33-0.03-0.04c-0.06-0.08-0.11-0.16-0.17-0.24c-0.11-0.16-0.21-0.32-0.31-0.49
				c-0.11-0.19-0.22-0.37-0.31-0.57c-0.04-0.09-0.09-0.17-0.13-0.26c-0.02-0.04-0.15-0.32-0.06-0.12c0.1,0.23-0.06-0.14-0.07-0.19
				c-0.03-0.09-0.07-0.18-0.1-0.27c-0.07-0.2-0.13-0.41-0.19-0.62c-0.05-0.18-0.09-0.37-0.13-0.56c-0.02-0.09-0.04-0.19-0.05-0.28
				c-0.04-0.2-0.04-0.27-0.01-0.02c-0.05-0.4-0.07-0.81-0.07-1.21c0-0.19,0.01-0.38,0.02-0.57c0.01-0.12,0.02-0.24,0.03-0.36
				c0.02-0.21,0.02-0.09-0.01,0.05c0.09-0.42,0.17-0.84,0.29-1.25c0.27-0.89-0.32-1.97-1.24-2.18
				C231.95,239.51,231.02,240.02,230.73,240.96L230.73,240.96z"/>
		</g>
	</g>
	<g>
		<g>
			<path d="M234.29,187.38c18.52,0.48,37.23-4.03,55.64-0.46c4.78,0.93,9.45,2.4,13.79,4.63c2.02,1.04,3.82-2.02,1.79-3.06
				c-16.84-8.66-36.2-6.48-54.37-5.19c-5.61,0.4-11.22,0.68-16.84,0.53C232.01,183.78,232.01,187.32,234.29,187.38L234.29,187.38z"
				/>
		</g>
	</g>
	<g>
		<path class="st7" d="M270.81,183.37c1.69-7.92,4.55-15.61,8.46-22.76c0.33-0.6,0.68-1.22,1.26-1.62c0.6-0.42,1.37-0.54,2.1-0.65
			c4.93-0.73,9.87-1.46,14.8-2.2c4.78,10.35,7.87,21.42,9.14,32.68"/>
		<g>
			<path d="M272.52,183.84c1.46-6.77,3.72-13.34,6.82-19.53c0.37-0.74,0.75-1.48,1.15-2.21c0.26-0.49,0.56-1.29,1.03-1.64
				c0.53-0.39,1.46-0.39,2.08-0.48c0.99-0.15,1.97-0.29,2.96-0.44c3.78-0.56,7.56-1.12,11.35-1.68c-0.67-0.27-1.33-0.54-2-0.81
				c4.6,10.04,7.64,20.81,8.89,31.78c0.11,0.96,0.74,1.76,1.77,1.77c0.87,0.01,1.88-0.82,1.77-1.77
				c-1.33-11.64-4.49-22.92-9.38-33.57c-0.35-0.77-1.27-0.92-2-0.81c-4.11,0.61-8.22,1.22-12.33,1.83
				c-1.72,0.25-3.72,0.28-5.17,1.33c-1.34,0.97-2.04,2.68-2.77,4.11c-3.44,6.7-5.99,13.83-7.58,21.18
				C268.62,185.12,272.04,186.07,272.52,183.84L272.52,183.84z"/>
		</g>
	</g>
	<g>
		<path class="st7" d="M270.68,182.54c-2.98-7.16-5.4-14.55-7.23-22.06c-0.17-0.72-0.37-1.48-0.93-1.99
			c-0.43-0.39-1.03-0.56-1.6-0.72c-4.16-1.12-8.42-1.87-12.72-2.25c-0.88-0.08-1.79-0.13-2.6,0.2c-1.11,0.46-1.77,1.54-2.33,2.56
			c-4.69,8.47-7.89,17.7-9.44,27.18c0.41-0.24,0.81-0.48,1.22-0.71"/>
		<g>
			<path d="M272.39,182.07c-2.09-5.04-3.92-10.19-5.45-15.43c-0.74-2.53-1.16-5.25-2.1-7.71c-0.95-2.51-3.43-2.9-5.77-3.45
				c-2.64-0.62-5.32-1.08-8.01-1.42c-2.5-0.32-5.36-0.91-7.46,0.87c-1.76,1.5-2.75,4.05-3.75,6.08c-1.13,2.3-2.16,4.66-3.09,7.05
				c-2.13,5.47-3.68,11.15-4.64,16.94c-0.24,1.46,1.17,2.84,2.6,2c0.41-0.24,0.81-0.48,1.22-0.71c1.97-1.15,0.19-4.21-1.79-3.06
				c-0.41,0.24-0.81,0.48-1.22,0.71c0.87,0.67,1.74,1.33,2.6,2c1.51-9.07,4.46-17.86,8.83-25.96c0.41-0.76,0.81-1.75,1.48-2.32
				c0.82-0.69,2.08-0.4,3.07-0.3c2.47,0.24,4.92,0.62,7.35,1.12c1.09,0.23,2.18,0.48,3.27,0.75c1.05,0.27,1.8,0.25,2.13,1.35
				c0.66,2.24,1.15,4.53,1.8,6.77c1.55,5.32,3.4,10.54,5.52,15.66c0.37,0.89,1.17,1.5,2.18,1.24
				C271.99,184.03,272.76,182.96,272.39,182.07L272.39,182.07z"/>
		</g>
	</g>
	<g>
		<path class="st7" d="M245.4,154.15c5.43-1.85,10.87-3.71,16.3-5.56c3.06-1.04,6.11-2.09,9.16-3.15"/>
		<g>
			<path d="M245.73,155.35c8.49-2.9,17-5.75,25.46-8.72c1.51-0.53,0.86-2.95-0.66-2.41c-8.47,2.97-16.97,5.82-25.46,8.72
				C243.55,153.46,244.2,155.87,245.73,155.35L245.73,155.35z"/>
		</g>
	</g>
	<g>
		<path class="st7" d="M271.04,145.12c2.98,0,5.83,1.11,8.58,2.2c3.82,1.51,7.64,3.02,11.46,4.53c2.24,0.88,4.61,1.87,5.95,3.81"/>
		<g>
			<path d="M271.04,146.37c4.61,0.09,9.09,2.48,13.3,4.14c2.26,0.89,4.52,1.77,6.77,2.68c1.76,0.71,3.69,1.52,4.85,3.1
				c0.94,1.28,3.11,0.04,2.16-1.26c-1.28-1.75-3.01-2.83-4.98-3.68c-2.38-1.03-4.81-1.93-7.22-2.88c-4.73-1.87-9.69-4.5-14.88-4.6
				C269.43,143.84,269.43,146.34,271.04,146.37L271.04,146.37z"/>
		</g>
	</g>
	<g>
		<g>
			<path d="M272.79,183.67c1.42-3.62,2.95-7.19,4.6-10.7c0.81-1.74,1.66-3.46,2.53-5.17c0.8-1.57,1.53-3.37,2.81-4.62
				c1.94-1.9,5.01-2.08,7.56-2.4c2.68-0.33,5.44-0.72,7.69-2.32c1.3-0.92,0.05-3.09-1.26-2.16c-4.76,3.38-11.87,0.8-16.05,5.42
				c-1.21,1.34-1.98,3.01-2.79,4.6c-0.91,1.78-1.79,3.57-2.64,5.38c-1.74,3.71-3.35,7.48-4.85,11.3
				C269.8,184.5,272.21,185.15,272.79,183.67L272.79,183.67z"/>
		</g>
	</g>
	<g>
		<g>
			<path d="M280.92,163.25c0.03-0.12,0.07-0.24,0.12-0.35c-0.04,0.1-0.08,0.2-0.13,0.3c0.09-0.22,0.21-0.42,0.36-0.61
				c-0.07,0.08-0.13,0.17-0.2,0.25c0.16-0.2,0.33-0.38,0.53-0.54c-0.08,0.07-0.17,0.13-0.25,0.2c0.21-0.16,0.44-0.3,0.69-0.41
				c-0.1,0.04-0.2,0.08-0.3,0.13c0.24-0.1,0.48-0.17,0.74-0.2c-0.11,0.01-0.22,0.03-0.33,0.04c0.08-0.01,0.15-0.02,0.23-0.02
				c0.33-0.02,0.64-0.13,0.88-0.37c0.22-0.22,0.38-0.57,0.37-0.88c-0.01-0.32-0.12-0.66-0.37-0.88c-0.24-0.22-0.55-0.38-0.88-0.37
				c-0.41,0.02-0.84,0.09-1.23,0.24c-0.24,0.09-0.49,0.19-0.71,0.33c-0.22,0.13-0.42,0.28-0.62,0.44c-0.63,0.51-1.11,1.26-1.32,2.04
				c-0.08,0.32-0.04,0.68,0.13,0.96c0.15,0.26,0.45,0.51,0.75,0.57c0.32,0.07,0.68,0.06,0.96-0.13
				C280.61,163.82,280.83,163.57,280.92,163.25L280.92,163.25z"/>
		</g>
	</g>
	<g>
		<g>
			<path d="M245.77,156.63c-0.01-0.03-0.02-0.06-0.03-0.1c-0.16-0.48-0.65-0.98-1.21-0.92c-0.58,0.06-1.02,0.21-1.31,0.76
				c-0.24,0.46-0.24,1.15,0.2,1.51c0.76,0.64,1.4,0.54,2.35,0.53c1.13-0.02,2.26,0.02,3.38,0.11c2.15,0.16,4.28,0.5,6.4,0.89
				c1.02,0.19,2.04,0.38,3.05,0.58c0.83,0.17,1.8,0.32,2.44,0.92c0.72,0.68,0.93,1.96,1.21,2.87c0.32,1.03,0.64,2.07,0.96,3.1
				c1.3,4.22,2.6,8.43,3.91,12.65c0.34,1.11,0.67,2.24,1.03,3.34c0.21,0.63,0.4,1.32,0.99,1.7c1.4,0.9,2.75-0.69,2.03-2.03
				c-0.27-0.51-0.88-0.69-1.41-0.57c-0.04,0.01-0.08,0.02-0.13,0.03c-1.57,0.34-0.91,2.75,0.66,2.41c0.04-0.01,0.08-0.02,0.13-0.03
				c-0.47-0.19-0.94-0.38-1.41-0.57c-0.04-0.11-0.07-0.21-0.11-0.32c0.21-0.36,0.41-0.72,0.62-1.08c-0.05,0.03-0.09,0.06-0.14,0.09
				c0.32-0.04,0.64-0.08,0.96-0.13c0.41,0.47,0.49,0.41,0.21-0.17c-0.05-0.16-0.1-0.32-0.15-0.48c-0.15-0.48-0.29-0.95-0.44-1.43
				c-0.29-0.95-0.59-1.91-0.88-2.86c-0.59-1.91-1.18-3.82-1.77-5.73c-0.56-1.83-1.13-3.66-1.69-5.49c-0.55-1.77-0.99-3.63-1.71-5.34
				c-1.37-3.27-5.13-3.42-8.18-3.97c-1.86-0.33-3.73-0.62-5.62-0.81c-1.87-0.18-3.76-0.03-5.62-0.18c0.29,0.12,0.59,0.24,0.88,0.37
				c-0.07-0.06-0.13-0.11-0.2-0.17c0.07,0.5,0.13,1.01,0.2,1.51c0.02-0.04,0.04-0.08,0.07-0.13c-0.36,0.21-0.72,0.41-1.08,0.62
				c0.05-0.01,0.11-0.01,0.16-0.02c-0.4-0.31-0.8-0.61-1.21-0.92c0.01,0.03,0.02,0.06,0.03,0.1
				C243.86,158.82,246.27,158.17,245.77,156.63L245.77,156.63z"/>
		</g>
	</g>
	<g>
		<g>
			<path d="M235.24,187.86c9.32-0.28,18.64-0.55,27.96-0.83c4.62-0.14,9.25-0.39,13.86-0.15c4.43,0.24,8.81,0.93,13.15,1.84
				c4.97,1.05,9.86,2.39,14.75,3.74c2.2,0.6,3.14-2.81,0.94-3.42c-8.7-2.39-17.46-4.75-26.47-5.54c-4.58-0.4-9.15-0.23-13.74-0.1
				c-4.74,0.14-9.49,0.28-14.23,0.42c-5.41,0.16-10.82,0.32-16.23,0.48C232.96,184.39,232.95,187.93,235.24,187.86L235.24,187.86z"
				/>
		</g>
	</g>
	<g>
		<g>
			<path d="M271.61,179.3c2.48-4.22,4.95-8.44,7.43-12.66c0.82-1.39-1.34-2.65-2.16-1.26c-2.48,4.22-4.95,8.44-7.43,12.66
				C268.63,179.43,270.79,180.69,271.61,179.3L271.61,179.3z"/>
		</g>
	</g>
	<g>
		<g>
			<path d="M271.39,175.4c2.9-5.58,6.41-10.83,10.51-15.6c1.04-1.21-0.72-2.99-1.77-1.77c-4.24,4.93-7.9,10.34-10.9,16.11
				C268.49,175.56,270.65,176.83,271.39,175.4L271.39,175.4z"/>
		</g>
	</g>
	<g>
		<g>
			<path d="M270.26,177.39c2.34-5.21,4.71-10.58,8.45-14.96c1.91-2.24,3.96-3.93,6.87-4.64c3.03-0.74,6.2-1.07,9.28-1.55
				c1.58-0.25,0.91-2.66-0.66-2.41c-3.22,0.51-6.57,0.81-9.71,1.66c-2.96,0.81-5.25,2.57-7.25,4.85c-4.06,4.62-6.63,10.24-9.13,15.8
				C267.45,177.58,269.61,178.85,270.26,177.39L270.26,177.39z"/>
		</g>
	</g>
	<g>
		<g>
			<path d="M244.61,160.21c2.97,0.23,6,0.59,8.88,1.39c1.29,0.36,2.59,0.85,3.6,1.75c1.05,0.93,1.74,2.19,2.44,3.39
				c3.06,5.26,5.6,10.8,7.6,16.55c0.53,1.51,2.94,0.86,2.41-0.66c-2.2-6.32-5-12.5-8.49-18.22c-1.57-2.58-3.61-4.23-6.52-5.11
				c-3.18-0.96-6.62-1.34-9.93-1.59C243.01,157.59,243.01,160.09,244.61,160.21L244.61,160.21z"/>
		</g>
	</g>
	<g>
		<g>
			<path d="M257.82,158.59c-0.02,0-0.04,0-0.06,0c0.29,0.12,0.59,0.24,0.88,0.37c-0.01-0.02-0.03-0.03-0.04-0.05
				c0.11,0.18,0.21,0.37,0.32,0.55c0-0.02-0.01-0.05-0.01-0.07c-0.04,0.32-0.08,0.64-0.13,0.96c0.01-0.02,0.02-0.04,0.03-0.06
				c-0.15,0.15-0.3,0.3-0.45,0.45c0.03-0.01,0.06-0.02,0.08-0.04c-0.21,0.06-0.42,0.11-0.63,0.17c-0.18,0-0.12-0.02,0.03,0.03
				c0.09,0.03,0.18,0.06,0.27,0.1c-0.12-0.04-0.08-0.04,0.01,0.01c0.08,0.04,0.17,0.08,0.25,0.13c0.15,0.08,0.3,0.16,0.44,0.25
				c0.08,0.05,0.16,0.1,0.23,0.16c0.07,0.05,0.2,0.15,0.06,0.04c0.28,0.22,0.54,0.47,0.79,0.73c0.12,0.12,0.23,0.25,0.34,0.38
				c0.02,0.02,0.2,0.26,0.11,0.14c-0.09-0.12,0.11,0.15,0.1,0.14c0.46,0.65,0.83,1.36,1.16,2.09c0.02,0.05,0.12,0.27,0.06,0.13
				c0.04,0.1,0.08,0.2,0.12,0.31c0.07,0.19,0.14,0.37,0.21,0.56c0.15,0.41,0.3,0.83,0.45,1.25c0.22,0.62,0.86,1.09,1.54,0.87
				c0.61-0.2,1.1-0.88,0.87-1.54c-0.76-2.18-1.58-4.39-3.19-6.1c-0.7-0.74-1.55-1.38-2.49-1.79c-0.72-0.31-1.69-0.68-2.33,0.02
				c-0.78,0.85-0.26,2.33,0.97,2.31c0.65-0.01,1.28-0.57,1.25-1.25C259.04,159.17,258.52,158.57,257.82,158.59L257.82,158.59z"/>
		</g>
	</g>
	<g>
		<g>
			<path class="st8" d="M254.35,155.6c2.72-1.21,5.48-2.33,8.28-3.35c2.78-1.01,5.66-2.15,8.57-2.71c2.89-0.56,5.55,0.91,8.14,1.99
				c2.82,1.17,5.63,2.33,8.45,3.5c0-0.8,0-1.61,0-2.41c-9.91,1.49-18.66,9-21.2,18.76c0.82,0.11,1.64,0.22,2.46,0.33
				c0.19-4.21-0.62-8.65-3.18-12.09c-2.38-3.19-5.94-5.29-9.94-5.51c0,0.83,0,1.67,0,2.5c0.42-0.03,0.83-0.05,1.25-0.08
				c1.6-0.1,1.61-2.6,0-2.5c-0.42,0.03-0.83,0.05-1.25,0.08c-1.61,0.1-1.61,2.41,0,2.5c3.33,0.19,6.39,2.14,8.21,4.89
				c2.01,3.02,2.57,6.65,2.41,10.22c-0.07,1.42,2.1,1.69,2.46,0.33c2.34-8.99,10.37-15.65,19.46-17.01c1.38-0.21,0.97-2.01,0-2.41
				c-2.96-1.23-5.93-2.46-8.89-3.68c-2.81-1.16-5.46-2.4-8.57-1.89c-3.06,0.51-6.12,1.74-9.02,2.8c-3,1.09-5.96,2.3-8.87,3.6
				C251.62,154.09,252.89,156.25,254.35,155.6L254.35,155.6z"/>
		</g>
	</g>
	<g>
		<g>
			<path class="st8" d="M260.6,155.7c0.81,0.58,1.57,1.21,2.31,1.88c0.99,0.92,2.81-0.3,1.96-1.51c-1.03-1.47-2.5-2.49-4.28-2.79
				c0,0.8,0,1.61,0,2.41c2.91-0.81,5.83-1.61,8.74-2.42c-0.32-0.76-0.64-1.52-0.96-2.28c-1.8,0.89-3.74,1.46-5.74,1.69
				c0.21,0.78,0.42,1.55,0.63,2.33c0.84-0.58,1.7-1.12,2.61-1.59c0.49-0.25,0.99-0.5,1.51-0.71c0.18-0.08,0.39-0.13,0.56-0.21
				c0.35-0.17,0.53,0.15,0.2-0.43c-0.28-0.5-0.21-0.3-0.53-0.02c-0.18,0.17-0.39,0.32-0.59,0.47c-0.47,0.37-0.93,0.74-1.4,1.11
				c-0.93,0.74-1.87,1.48-2.8,2.22c0.59,0.59,1.18,1.18,1.77,1.77c1.03-0.89,2.08-1.74,3.19-2.53c0.52-0.37,1.04-0.73,1.58-1.08
				c0.19-0.13,1.79-0.95,1.79-1.12c-0.28-0.21-0.57-0.41-0.85-0.62c-0.03,0.09-0.07,0.18-0.13,0.25c-0.21,0.17-0.38,0.52-0.55,0.74
				c-0.41,0.54-0.81,1.07-1.22,1.61c-0.89,1.18-1.79,2.36-2.68,3.54c0.72,0.42,1.44,0.84,2.16,1.26c1.39-2.09,2.78-4.19,4.17-6.28
				c-0.72-0.42-1.44-0.84-2.16-1.26c-1.85,3.7-3.48,7.51-4.88,11.41c-0.44,1.21,1.25,2.05,2.09,1.22c2.59-2.58,3.07-6.31,5.25-9.13
				c-0.41,0.11-0.81,0.21-1.22,0.32c-0.25-0.44-0.36-0.53-0.32-0.26c0,0.12-0.03,0.24-0.07,0.36c-0.08,0.36-0.25,0.73-0.37,1.08
				c-0.28,0.79-0.59,1.58-0.93,2.35c-0.68,1.57-1.47,3.1-2.33,4.58c-0.52,0.89,0.35,2.21,1.41,1.84c1.71-0.6,2.51-2.05,3.4-3.52
				c1.08-1.81,2.17-3.62,3.25-5.43c-0.72,0-1.44,0-2.16,0c0.03-0.37,0-0.45-0.1-0.23c-0.09,0.15-0.18,0.29-0.29,0.43
				c-0.22,0.32-0.44,0.64-0.66,0.96c-0.41,0.58-0.82,1.16-1.25,1.74c-0.9,1.22-1.83,2.42-2.79,3.59c0.65,0.5,1.31,1.01,1.96,1.51
				c1.06-2.1,2.38-4.03,4-5.74c0.78-0.81,1.61-1.66,2.54-2.31c0.13-0.09,0.48-0.38,0.65-0.32c-0.25-0.09-0.11,0.12-0.1,0.33
				c0.01,0.59,0.24,1,0.6,1.44c0.31,0.39,1.11,0.49,1.51,0.2c0.7-0.51,1.4-1.01,2.1-1.52c0.85-0.61,0.8-1.96-0.3-2.28
				c-2.72-0.8-5.25-2-7.59-3.61c-0.32,0.76-0.64,1.52-0.96,2.28c1.19,0.35,2.35,0.25,3.56,0.07c1.07-0.16,2.33-0.52,3.36-0.01
				c0.1-0.76,0.2-1.52,0.3-2.28c-1.02,0.35-1.94,0.34-2.95-0.03c0,0.8,0,1.61,0,2.41c1.22-0.39,2.36,0.53,3.25,1.26
				c0.29-0.71,0.59-1.42,0.88-2.13c-0.48-0.02-0.96-0.05-1.44-0.07c0.21,0.78,0.42,1.55,0.63,2.33c0.22-0.1,0.41-0.07,0.62,0.04
				c1.42,0.75,2.69-1.4,1.26-2.16c-1.05-0.56-2.07-0.55-3.14-0.04c-1.2,0.56-0.51,2.28,0.63,2.33c0.48,0.02,0.96,0.05,1.44,0.07
				c1.03,0.05,1.72-1.44,0.88-2.13c-1.61-1.32-3.52-2.59-5.69-1.91c-1.23,0.39-1.14,1.99,0,2.41c1.39,0.51,2.88,0.52,4.28,0.03
				c0.93-0.32,1.33-1.78,0.3-2.28c-1.2-0.59-2.4-0.65-3.71-0.48c-1.26,0.17-2.55,0.53-3.8,0.17c-1.42-0.42-2.09,1.51-0.96,2.28
				c2.51,1.72,5.27,3.01,8.19,3.86c-0.1-0.76-0.2-1.52-0.3-2.28c-0.7,0.51-1.4,1.01-2.1,1.52c0.5,0.07,1.01,0.13,1.51,0.2
				c0.33,0.41,0.11-0.48,0.06-0.69c-0.06-0.28-0.15-0.54-0.31-0.78c-0.4-0.6-1.05-0.93-1.75-1.01c-1.56-0.17-2.8,1.04-3.87,2.01
				c-2.36,2.13-4.32,4.72-5.75,7.56c-0.6,1.19,1.01,2.68,1.96,1.51c1.3-1.59,2.55-3.22,3.75-4.89c0.91-1.27,2.66-2.98,1.72-4.64
				c-0.47-0.83-1.68-0.79-2.16,0c-0.87,1.46-1.75,2.92-2.62,4.38c-0.59,0.99-1.34,3.01-2.53,3.43c0.47,0.61,0.94,1.22,1.41,1.84
				c1.26-2.18,2.35-4.45,3.24-6.81c0.58-1.53,1.66-4.35-0.72-4.96c-0.39-0.1-0.95-0.02-1.22,0.32c-2.16,2.79-2.73,6.63-5.25,9.13
				c0.7,0.41,1.39,0.81,2.09,1.22c1.33-3.69,2.88-7.3,4.63-10.81c0.72-1.44-1.27-2.61-2.16-1.26c-1.39,2.09-2.78,4.19-4.17,6.28
				c-0.91,1.37,1.21,2.51,2.16,1.26c1.3-1.71,2.6-3.43,3.9-5.14c0.78-1.02,1.68-2.66,0.43-3.74c-1.41-1.2-3.42,0.59-4.59,1.38
				c-1.67,1.13-3.27,2.37-4.79,3.69c-1.23,1.07,0.53,2.75,1.77,1.77c1.45-1.15,2.92-2.29,4.36-3.46c1.06-0.85,2.15-2.33,0.95-3.6
				c-0.97-1.03-2.39-0.61-3.53-0.14c-1.55,0.65-3.01,1.45-4.38,2.41c-0.9,0.63-0.72,2.48,0.63,2.33c2.46-0.28,4.78-0.93,7-2.03
				c1.29-0.63,0.38-2.66-0.96-2.28c-2.91,0.81-5.83,1.61-8.74,2.42c-1.12,0.31-1.26,2.2,0,2.41c1.13,0.19,2.12,0.68,2.79,1.64
				c0.65-0.5,1.31-1.01,1.96-1.51c-0.89-0.82-1.83-1.57-2.81-2.27C260.55,152.61,259.3,154.78,260.6,155.7L260.6,155.7z"/>
		</g>
	</g>
	<g>
		<g>
			<path d="M270.71,177.94c0.77-11.55,11.87-18.28,22.15-20.33c1.58-0.31,0.91-2.72-0.66-2.41c-5.99,1.19-11.84,3.62-16.41,7.75
				c-4.28,3.86-7.19,9.2-7.58,15C268.1,179.55,270.6,179.54,270.71,177.94L270.71,177.94z"/>
		</g>
	</g>
	<g>
		<g>
			<path d="M249.24,157.33c2.52,0.19,5.17,0.37,7.51,1.42c2.35,1.05,4.06,3.19,5.69,5.11c3.2,3.74,6.05,8.2,6.08,13.28
				c0.01,1.61,2.51,1.61,2.5,0c-0.03-5.78-3.17-10.79-6.81-15.05c-1.87-2.19-3.82-4.46-6.51-5.63c-2.67-1.16-5.59-1.41-8.46-1.62
				C247.63,154.71,247.64,157.21,249.24,157.33L249.24,157.33z"/>
		</g>
	</g>
	<g>
		<g>
			<path d="M263.52,167.37c0.89,2.58,1.95,5.11,3.16,7.56c0.29,0.59,1.17,0.8,1.71,0.45c0.6-0.39,0.76-1.08,0.45-1.71
				c-1.16-2.34-2.05-4.49-2.91-6.97c-0.21-0.62-0.87-1.09-1.54-0.87C263.78,166.03,263.29,166.7,263.52,167.37L263.52,167.37z"/>
		</g>
	</g>
	<g>
		<g>
			<path d="M245.78,155.73c9.25-3.26,18.56-6.34,27.92-9.25c1.53-0.48,0.88-2.89-0.66-2.41c-9.37,2.91-18.67,5.99-27.92,9.25
				C243.61,153.85,244.26,156.26,245.78,155.73L245.78,155.73z"/>
		</g>
	</g>
	<g>
		<g>
			<path d="M271.84,146.6c6.64,3.14,13.18,6.48,19.62,10.01c1.41,0.77,2.67-1.38,1.26-2.16c-6.44-3.53-12.98-6.87-19.62-10.01
				C271.65,143.76,270.38,145.91,271.84,146.6L271.84,146.6z"/>
		</g>
	</g>
	<path class="st5" d="M260.04,274.96l-2.41,8.96c0,0,10.36,6.39,25.05,0.38c-2.48-14.37-0.94-14.62-0.94-14.62"/>
	<path class="st5" d="M258.97,285.49c0,0-29.95-0.18-38.34,27.1c-6.37,43.16-9.46,64.13-10.96,74.32c-1.42,9.63-1.42,9.63-1.42,9.63
		s11.45,8.01,24.23,3.81c2.67-15.07,11.05-87,11.05-87l2.31,87.76l60.29,1.51l-13.76-92.34l22.91,88.9c0,0,16.41,4.58,25.57-3.44
		c-3.63-13.55-24.44-90.05-24.44-90.05s-5.62-21.55-32.39-19.83C257.26,287.59,258.97,285.49,258.97,285.49z"/>
	<polygon points="266.64,291.42 269.48,402.71 276.9,402.71 271.2,290.28 	"/>
	<path d="M270.63,290.99c0,0,11.42-2.36,8.71,4.71S274.44,299.74,270.63,290.99z"/>
	<path d="M208.24,396.54l1.39-13.87l24.52,2.85l-1.68,14.84C232.48,400.35,218.26,403.57,208.24,396.54z"/>
	<path d="M315.28,399.19l-3.57-12.55c0,0,24.52-3.71,25.66-6.28c1.14-2.57,3.48,15.39,3.48,15.39S321.13,406.04,315.28,399.19z"/>
	<path d="M251.39,401.93c0,0-6.6,90.66,4.85,99.62c13.93,0.19,20.61,0.76,20.61,0.76l-0.02-87.38l15.28,87.38l20.99,0.38
		c0,0-1.88-65.06-10.85-99.78C254.77,401.76,251.39,401.93,251.39,401.93z"/>
	<path class="st5" d="M257.19,501.47c0,0,0.72,4.64-0.11,8.17c-0.41,1.72-1.19,3.17-2.6,3.69c-4.31,1.58-20.59-1.01-21.57,11.86
		c-0.02,0.54-0.05,1.04-0.07,1.5c-0.31,5.88-0.79,5.72-0.79,5.72l42.4-0.56c0-0.08,0.23-27.93,0.24-29.45
		C268.86,502.09,263.02,501.78,257.19,501.47z"/>
	<path class="st5" d="M257.33,509.28c-1.23-0.2-1.2,3.23-2.64,3.76c-4.38,1.61-20.9-1.03-21.89,12.1c-0.02,0.55-0.05,1.06-0.07,1.53
		c-0.32,6-0.8,5.84-0.8,5.84l43.04-0.58c0-0.08-0.38-19.49-0.22-21.76C269.8,510.88,269.39,511.23,257.33,509.28z"/>
	<path class="st5" d="M312.7,501.18c0,0-0.72,4.64,0.11,8.17c0.41,1.72,1.19,3.17,2.6,3.68c4.31,1.57,20.58-1.02,21.57,11.85
		c0.02,0.54,0.05,1.04,0.07,1.5c0.32,5.88,0.79,5.72,0.79,5.72l-42.4-0.55c0-0.08-0.24-27.93-0.25-29.45
		C301.03,501.8,306.87,501.49,312.7,501.18z"/>
	<path class="st5" d="M312.56,508.98c1.23-0.2,1.2,3.23,2.64,3.76c4.38,1.61,20.89-1.04,21.9,12.09c0.02,0.55,0.05,1.06,0.07,1.53
		c0.32,6,0.8,5.84,0.8,5.84l-43.04-0.56c0-0.08,0.38-19.49,0.21-21.76C300.09,510.59,300.5,510.94,312.56,508.98z"/>
	<path class="st5" d="M338.54,406.07c0,0,10.43,10.98,10.23,16c-2.71,0.85-8.42-6.81-8.42-6.81s5.11,10.56,4.21,13.62
		c-3.91,1.62-8.62-12.09-8.62-12.09s2.91,13.28-0.3,16.69c-4.41-0.34-3.71-16.01-3.71-16.01s-2.6,12.86-3.91,14.3
		c-3.81-1.7-0.5-13.45-0.5-13.45s-0.9,6.64-3.61,8.34c-5.31,2.04-0.2-11.41-0.2-11.41l1.4-12.26l-0.8-2.17
		c0,0,11.72-0.64,11.02-0.55c-0.7,0.09,0,0,0,0L338.54,406.07z"/>
	<path class="st5" d="M208.42,407.4c0,0-11.84,10.99-11.61,16.01c3.07,0.85,9.56-6.81,9.56-6.81s-5.8,10.56-4.78,13.62
		c4.44,1.62,9.79-12.09,9.79-12.09s-3.3,13.28,0.34,16.69c5.01-0.34,4.21-16.01,4.21-16.01s2.96,12.86,4.44,14.3
		c4.33-1.7,0.57-13.45,0.57-13.45s1.03,6.64,4.1,8.34c6.03,2.04,0.23-11.41,0.23-11.41l-1.6-12.26l-0.76-2.32
		c0,0-9.27-2.45-8.48-2.36c0.8,0.08-2.38,1.96-2.38,1.96L208.42,407.4z"/>
	<path d="M255.29,513.39c0,0-3.44-14.77-9.53-7.48C241.32,511.22,249.13,513.91,255.29,513.39z"/>
	<path d="M254.3,513.48c0,0,14.94-2.61,10.61,5.85C261.76,525.48,256.23,519.34,254.3,513.48"/>
	<path d="M313.51,512.49c0,0,3.44-14.77,9.53-7.49C327.47,510.31,319.67,513.01,313.51,512.49z"/>
	<path d="M314.5,512.58c0,0-14.94-2.6-10.61,5.85C307.04,524.58,312.57,518.45,314.5,512.58"/>
	<path d="M241.91,515.35c0,0,6.39,2.27,6.9,9.39c21.66,0.44,25.4-0.15,25.4-0.15l0.75,7.33c0,0-41.64,0.9-41.57,0.46
		c0.07-0.44,0.73-8.96,0.73-8.96S235.38,514.62,241.91,515.35z"/>
	<path d="M328.95,515.55c0,0-6.39,2.28-6.9,9.4c-21.66,0.44-25.4-0.14-25.4-0.14l-0.75,7.33c0,0,41.64,0.88,41.57,0.44
		s-0.74-8.96-0.74-8.96S335.48,514.82,328.95,515.55z"/>
</g>
</svg>
