<?xml version="1.0" encoding="UTF-8"?>
<svg id="Capa_2" data-name="Capa 2" xmlns="http://www.w3.org/2000/svg" viewBox="0 0 679.37 688.33">
  <defs>
    <style>
      .cls-1 {
        fill: #fff;
      }

      .cls-2 {
        fill: #e94e1b;
      }

      .cls-2, .cls-3 {
        stroke: #fff;
        stroke-miterlimit: 10;
        stroke-width: .25px;
      }

      .cls-3, .cls-4 {
        fill: #1d1d1b;
      }
    </style>
  </defs>
  <g id="Prenda_ciclista" data-name="Prenda ciclista">
    <g id="Capa_10" data-name="Capa 10">
      <rect class="cls-1" width="679.37" height="688.33"/>
    </g>
    <g>
      <path class="cls-3" d="m625.97,647.92l25.68-.3-35.14-76.65-25.68.3h0l-4.17,9.68-2.22-4.84c-1.32-2.83-3.72-4.72-6.45-4.69l-42.81.5c-2.72.03-5.08,1.97-6.34,4.82l-2.11,4.91-4.39-9.58-25.68.3h0l-33.35,77.44,25.68-.3,20.84-48.4,4.39,9.58-16.67,38.72,25.68-.3,4.17-9.68,2.22,4.86c1.32,2.83,3.72,4.71,6.45,4.68l42.8-.5c2.73-.03,5.09-1.98,6.34-4.84l2.1-4.89,4.39,9.58,25.68-.3-17.57-38.32,4.17-9.68,21.96,47.91Zm-76.34-60.1h0c.73-1.7,2.08-3.15,3.89-3.99,1.04-.48,2.13-.71,3.2-.72,2.98-.03,5.85,1.65,7.19,4.53h0s10.25,22.35,10.25,22.35l-9.72,22.57h0c-.73,1.7-2.08,3.15-3.89,3.99-1.03.48-2.12.71-3.19.73-2.99.03-5.86-1.65-7.19-4.53h0s-10.25-22.35-10.25-22.35l9.72-22.57Zm32.87,54.62c-.82,1.87-2.22,3.04-3.65,3.05l-42.8.5c-1.43.02-2.85-1.11-3.71-2.95l-31.06-67.76,19.18-.22,27.01,58.93h.04s-.04,0-.04,0c1.78,3.85,5.68,6.3,9.92,6.25,1.53-.02,3.01-.35,4.41-1,2.41-1.12,4.32-3.07,5.37-5.51h0s8.66-20.1,8.66-20.1l9.84,21.47h0l-3.16,7.34Zm15.67-36.39h0l-9.84-21.47h0l4.47-10.37,19.18-.22-13.81,32.06Z"/>
      <path class="cls-2" d="m9.43,465.65s6.41-47,23.5-57.69c17.09-10.68,27.78-68.37,27.78-68.37l10.68-66.23s0-74.78,23.5-76.92c23.5-2.14,70.51-68.37,70.51-68.37l-6.41,53.41s-34.19,49.14-36.32,55.55c-2.14,6.41-14.96,40.6-14.96,61.96s-34.19,74.78-34.19,74.78L9.43,465.65Z"/>
      <path class="cls-2" d="m63.61,496.1s36.32-94.01,42.73-100.42c6.41-6.41,17.09-38.46,17.09-55.55s23.5,6.41,23.5,14.96,19.23,27.78,19.23,10.68-12.82-59.82-12.82-68.37,27.78,23.5,27.78,23.5c0,0,4.27-66.23,6.41-81.19,2.14-14.96,17.09-57.69,17.09-57.69v47s38.46-108.97,49.14-108.97,70.51-85.46,81.19-85.46,34.19-25.64,34.19-25.64l-23.5,49.14-25.64,126.06-38.46,29.91s-34.19,74.78-36.32,85.46c-2.14,10.68,51.28-27.78,61.96-36.32,10.68-8.55-2.14,53.41-27.78,64.1-25.64,10.68-68.37,68.37-68.37,76.92s-19.23,34.19-34.19,42.73c-14.96,8.55-47,104.69-61.96,117.51-14.96,12.82-38.46,104.69-38.46,104.69l-12.82-173.06Z"/>
      <path class="cls-2" d="m349.37,252.62s-8.71,29.18-15.82,42.77c-7.12,13.59-14.55,44.33-15.57,54.25-1.01,9.92-30.23,85.68-32.08,89.79-1.85,4.11-16.92,25.48-29.01,45.72-12.09,20.24-15.53,39.94-17.13,55.52-1.59,15.59-.99,65.76-9.27,90.69-8.27,24.93,14.23-27.18,27.74-47.28,13.51-20.1,38.38-53.35,55.56-67.34,17.18-13.99-33.92,23.74-33.92,23.74,0,0,18.98-59.63,23.66-63.44,4.69-3.82,32.75-68.24,40.99-78.86,8.24-10.61,5.76-42.37,8.19-52.14,2.43-9.77,48.65-83.8,61.73-99.65,13.07-15.85-54.4,56.01-54.4,56.01l-2.79-84.76-7.87,34.99Z"/>
      <path class="cls-2" d="m542.72,254.87l-41.48,29.01s-29.5,34.58-27.97,43.57c1.53,9-34.5,66.25-31.52,73.35,2.99,7.1-35.71,72.54-37.73,83.03-2.02,10.49,1.37,43.78,1.37,43.78,0,0,8.92-40.71,12.83-49.75,3.91-9.04,39.71-70.69,39.71-70.69l47.37-25.7-37.48,2.58,16.3-33.85,36.92-22.27-6.74-4.56,28.41-68.51Z"/>
      <path class="cls-1" d="m330.62,114.63c-33.85,28.04-67.9,56.21-105.65,78.08-22.06,12.78-53.08,39.44-59.18,65.1,28.25-7.68,12.47-11.07,40.72-18.75,5.37,4.87-21.43,1.88,0,0,29.45-2.58-14.6,11.41-26.78,31.29-12.18,19.88,33.66,65.68,42.86,75.88,10.56,11.72,45.56,39.7,42.87,33.76-12.77-28.16,40.3,85.11,41.79,91.09,10.13,40.59,98.39,40.36,117.68-39.28,2.14-8.84,125.55-129.11,123.44-138.08-6.7-28.59-69.18-80.48-57.33-107.16,9.91-22.31-13.1-62.01-9.11-86.27.61-3.71-59.42-27.04-61.62-30.01-1.68-2.26-31.67,21.16-34.29,20.36-22.29-6.8-50.85,16.38-69.55,30.82"/>
      <path class="cls-4" d="m428.24,99.05c-1.42-2.58-10.12.31-16.98,1.52-10.84,1.92-25.73,7.05-47.44,22.07-36.07,24.95-127.4,78.94-99.35,81.2,38,3.07,23.38-6.34,98.9,12.7,18.6,1.81,87.33-9.3,97.54-4.99-54.89,10.66-242.07,61.76-224.11,61.7,59.51-.2,307.6-42.04,273.63-27.97-48.12,19.92-181.61,33.07-244.14,46.57-75.19,16.23,249.96-26.99,259.49-3.18-137.23,4.54-134.91,9.27-134.91,9.27,0,0,69.35,26.8,62.32,72.39-18.37-27.45-18.35-64.47-117.04-63.51-74.92.73-87.1,12.25-121.58,33.57-18.83-31.98-36.75-52.4-28.58-63.06,29.71-32.66,56.2-48.79,40.83-46.73-14.56,1.95-39.47,3.4-61.7,37.2,1.36-23.59,38.79-62.83,78.03-84.38,11.11-5.22,24.81-12.02,39.47-29.03,15.63-18.14,45-37.15,106.16-62.6,44.56-18.55,30.05-15.5,50.81-20.72,6.49-1.63,20.41.96,30.85,4.39,16.78,5.51,20.87,6.35,20.87,6.35,0,0,8.85-14.29-4.99-19.51-13.84-5.22-25.97-7.9-34.93-8.62-40.77-3.27-53.32,9.08-151.97,60.56-24.87,12.98-46.05,40.38-73.49,58.07-27.45,17.69-88.46,75.99-76.67,106.61,10.66,27.67,32.21,28.81,35.39,38.11,7.94,13.61,20.64,32.44,27.9,36.29,8.39,4.31,27.67,22.68,28.13,24.04s12.93,20.64,48.54,14.97l-18.6-49.22s-15.65.68-5.44,32.44c-28.58-23.59-31.3-23.59-31.3-23.59,0,0,93-61.24,175.56,17.69-38.56,29.94-50.14,48.64-51.26,76.39-.29,7.18,52.2-28.07,72.13-18.55-23.14,8.62-41.74,16.1-57.16,31.76-19.73,15.42-52.4,41.96-50.36,12.7-10.21-10.66-10.8-9.24-12.68-13.84-.48-1.17.49-3.83,1.74-4.06,6.53-1.22,27.91,9.85,26.37,3.38-1.91-7.98-47.48-42.48-44.46-29.49,1.99,8.55,11.11,26.99,9.98,43.55-1.13,16.56,9.98,35.16,25.86,31.3,18.37-.68,38.59-13.64,57.16-31.3,10.78-10.26,20.41-13.16,20.41-13.16,0,0-25.05,41.03-47.02,51.26-17.37,6.73-41.9,4.99-52.33,0,2.04,16.56,11.11,51.94,65.55,63.97,29.71,4.31,60.79,5.44,82.11-20.87,15.88-21.32,53.08-74.85,53.98-83.47-20.64,13.38-40.38,33.8-54.89,50.81-17.92,20.41-27.9,25.86-39.47,31.76-11.57,5.9-49.02,13.83-73.49-12.7,27.45,3.63,65.55,3.86,83.47-20.87,17.92-24.72,41.28-54.78,55.03-63.05,22.45-13.49,39.49-15.58,54.3-16.8,15.35-1.26,61.47,3.86,61.47,3.86,16.16-22.69,55.48-84.28,58.03-172.57,2.71-93.63-37.59-160.32-52.81-183.1-10.6-1.96-24.43-2.59-40.55-1.93-22.17.91-48.14,5.56-63.34,20.53,13.16,5.22,44.99,4.27,59.43,2.27,14.04-1.95-26.09,32.21-80.75,14.52-33.57,3.63-67.88,15.43-88.01,41.74-13.04,17.05-24.27,21.09-46.27,18.6,10.32-11.44,25.62-27.4,45.73-44.9,23.28-20.26,43.25-34.08,40.92-38.34Z"/>
    </g>
  </g>
</svg>