<?xml version="1.0" encoding="UTF-8"?>
<svg id="Capa_2" data-name="Capa 2" xmlns="http://www.w3.org/2000/svg" viewBox="0 0 679.37 685.94">
  <defs>
    <style>
      .cls-1 {
        fill: #364b54;
      }

      .cls-2 {
        fill: #4fae33;
      }

      .cls-3 {
        fill: #e6f1e3;
      }

      .cls-4 {
        fill: #fff;
      }

      .cls-5 {
        fill: #686669;
      }

      .cls-6 {
        fill: #d9cac5;
      }

      .cls-7 {
        fill: #7d7b80;
      }

      .cls-8 {
        fill: #9cca84;
      }

      .cls-9 {
        fill: #787b79;
      }

      .cls-10 {
        fill: #1b4e37;
      }

      .cls-11 {
        fill: #c4c2c3;
      }

      .cls-12 {
        fill: #e2eab1;
      }

      .cls-13 {
        fill: #d6e299;
      }

      .cls-14 {
        fill: #989599;
      }

      .cls-15 {
        fill: #959396;
      }

      .cls-16 {
        fill: #aba7a9;
      }

      .cls-17 {
        fill: #e8e7e8;
      }

      .cls-18 {
        fill: #f5f5f5;
      }

      .cls-19 {
        fill: #8ec36c;
      }

      .cls-20 {
        fill: #eef6ee;
      }

      .cls-21 {
        fill: #d0cece;
      }

      .cls-22 {
        fill: #85bf5f;
      }

      .cls-23 {
        fill: #979396;
      }

      .cls-24 {
        fill: #000100;
      }

      .cls-25 {
        fill: #9ecb84;
      }

      .cls-26 {
        fill: #72b852;
      }

      .cls-27 {
        fill: #85bf5d;
      }

      .cls-28 {
        fill: #98c880;
      }

      .cls-29 {
        fill: #e5f0df;
      }

      .cls-30 {
        fill: #f2f2f3;
      }

      .cls-31 {
        fill: #2d5033;
      }

      .cls-32 {
        fill: #78625f;
      }

      .cls-33 {
        fill: #444244;
      }

      .cls-34 {
        fill: #ebf1cf;
      }

      .cls-35 {
        fill: #65b449;
      }

      .cls-36 {
        fill: #3e535d;
      }

      .cls-37 {
        fill: #614c4a;
      }

      .cls-38 {
        fill: #777b79;
      }

      .cls-39 {
        fill: #85c59a;
      }

      .cls-40 {
        fill: #97b1bf;
      }

      .cls-41 {
        fill: #9ac442;
      }

      .cls-42 {
        fill: #7f6865;
      }

      .cls-43 {
        fill: #b8dfde;
      }

      .cls-44 {
        fill: #605e61;
      }

      .cls-45 {
        fill: #cadb81;
      }

      .cls-46 {
        fill: #010000;
      }

      .cls-47 {
        fill: #fdfeff;
      }

      .cls-48 {
        fill: #aad29d;
      }

      .cls-49 {
        fill: #78605e;
      }

      .cls-50 {
        fill: #2d3f47;
      }

      .cls-51 {
        fill: #737276;
      }

      .cls-52 {
        fill: #eae9ea;
      }

      .cls-53 {
        fill: #26583a;
      }

      .cls-54 {
        fill: #364d58;
      }

      .cls-55 {
        fill: #575557;
      }

      .cls-56 {
        fill: #e4ecba;
      }

      .cls-57 {
        fill: #959498;
      }

      .cls-58 {
        fill: #c6deb0;
      }

      .cls-59 {
        fill: #8ba9b7;
      }

      .cls-60 {
        fill: #9ac982;
      }

      .cls-61 {
        fill: #515053;
      }

      .cls-62 {
        fill: #d6eefd;
      }

      .cls-63 {
        fill: #5c5a5d;
      }

      .cls-64 {
        fill: #5f5d60;
      }

      .cls-65 {
        fill: #87c060;
      }

      .cls-66 {
        fill: #d6d4d5;
      }

      .cls-67 {
        fill: #858487;
      }

      .cls-68 {
        fill: #b0aeb1;
      }

      .cls-69 {
        fill: #f0f3ef;
      }

      .cls-70 {
        fill: #28292d;
      }

      .cls-71 {
        fill: #edf5ec;
      }

      .cls-72 {
        fill: #99cfb6;
      }

      .cls-73 {
        fill: #f3f2f4;
      }

      .cls-74 {
        fill: #6a6668;
      }

      .cls-75 {
        fill: #8b8a8e;
      }

      .cls-76 {
        fill: #878689;
      }

      .cls-77 {
        fill: #25282b;
      }

      .cls-78 {
        fill: #868488;
      }

      .cls-79 {
        fill: #4f6873;
      }

      .cls-80 {
        fill: #c2d779;
      }

      .cls-81 {
        fill: #27272c;
      }

      .cls-82 {
        fill: #8dc36c;
      }

      .cls-83 {
        fill: #6cb64d;
      }

      .cls-84 {
        fill: #4fae32;
      }

      .cls-85 {
        fill: #c6c3c4;
      }

      .cls-86 {
        fill: #010101;
      }

      .cls-87 {
        fill: #7c98a5;
      }

      .cls-88 {
        fill: #39383b;
      }

      .cls-89 {
        fill: #375b32;
      }
    </style>
  </defs>
  <g id="RTP">
    <g>
      <rect class="cls-4" width="676.38" height="685.94"/>
      <g>
        <g>
          <path class="cls-84" d="m68.48,388.06c0-.64,0-1.28,0-1.92.2-.03.39-.07.59-.1.95.03,1.91.1,2.86.1,20.72,0,41.44.01,62.15.02,0,2.71,0,5.43-.01,8.14-1.17,5.96-.4,12.63-.4,18.7,0,6.07-.77,12.74.4,18.7.05,2.54.1,5.07.15,7.61.11,1.79.22,3.58.33,5.36.03.14.06.27.1.41,8.45,2.27,19.48.53,28.24.53,8.94,0,19.58,1.56,28.28-.46.06-.11.09-.23.08-.36.13-.93.33-1.86.36-2.8.08-2.78.09-5.56.13-8.33.12-.93.34-1.86.34-2.79.04-14.88.04-29.76.06-44.64,28.2-.87,56.56-.14,84.77-.05.04,10.29.05,20.58.05,30.88,0,9.49-1.33,20.1.53,29.42,19.72.59,39.59.3,59.31.03.18-.89.52-1.78.52-2.66.04-21.75.04-43.5.05-65.25,1.75-.68,3.5-1.36,5.25-2.05.85.43,1.71.74,2.74.15.05-.49.09-1.02.14-1.54.45-.23.91-.45,1.36-.68,1.76.99,2.12.79,2.44-1.35.64-.32,1.27-.65,1.91-.97.52,1.06,1.28,1.27,2.42.66-.16-.66-.31-1.26-.46-1.86.1-.13.24-.2.41-.18.84.3,1.47,1.63,2.63.47-.07-.64-.15-1.32-.22-2,2.43-1.75,4.88-3.48,7.28-5.26,1.9-1.41,3.75-2.9,5.61-4.36.03,1.12.1,2.23.1,3.35.01,17,.02,34.01.02,51.01-.01,21.11-.03,42.21-.04,63.32,0,.48.04.95.06,1.43-.03,21.23-.06,42.47-.06,63.7,0,.66.29,1.33.44,1.99h.04c8.73,1.93,19.27.46,28.22.46,9.11,0,19.57,1.41,28.47-.46,1.39-11.2.35-23.1.36-34.39,0-12.37-.01-24.74-.04-37.1,0-1.6.02-3.19.02-4.79.02-25.69.04-51.38.05-77.07.45-.07.9-.13,1.35-.2l3.48-.32c1.25-.05,2.5-.1,3.75-.15,4.64,0,9.29,0,13.93.01,2.05.05,4.11.1,6.16.14,4.79,1.19,12.56,1.07,17.37-.01l3.27-.15,3.47-.34c1.74-.2,3.47-.41,5.21-.61,3.5-.63,7.04-1.11,10.5-1.95,2.8-.68,5.48-1.81,8.22-2.74h-.01c1.97-.78,3.95-1.56,5.92-2.35h.17s.12-.11.12-.11c2.22-1.11,4.44-2.23,6.66-3.34l.04-.02c6.66-2.77,17.58-9.65,21.48-15.8,2.11-2.11,4.22-4.21,6.32-6.32,5.34-3.45,11.46-13.18,13.48-19.09.49-.9.97-1.79,1.46-2.69.77-1.66,1.54-3.33,2.31-4.99h0c2.29-4.6,4.03-9.39,5.23-14.38.04-.16.07-.31.11-.47.44-1.76.89-3.53,1.33-5.29.12-.12.14-.26.06-.41.98-3.15,1.47-6.37,1.41-9.67,0,0,0,0,0,0l.54-2.85c.81-3.65.8-8.38,0-12.04-.04-.77-.09-1.54-.13-2.31-.11-.99-.23-1.98-.34-2.97,0-.31.01-.61.02-.92,21.83,0,43.66,0,65.49-.01.72,17.77.08,35.7.08,53.48,0,17.79.64,35.71-.08,53.48-1.99,0-3.99-.03-5.98,0-3.74.04-7.49.1-11.23.16-.24.19-.63.34-.71.59-.62,1.98-1.18,3.97-1.75,5.97-1.83.24-2.03.47-1.69,2.08.09.45.25.89.37,1.33.04.17,0,.31-.11.44-.56.34-1.11.69-1.86,1.15.5.37.78.58,1.07.79-.22.63-.44,1.26-.67,1.88-.53.06-1.06.12-1.4.16-1.07,2.15-3.25,5.25-1.79,7.65.04.14,0,.26-.11.35-.61.5-2.11.6-.86,1.93-.19.47-.38.94-.57,1.42-1.8.67-1.91.93-.88,1.94-.19.48-.39.95-.58,1.43-.51.21-1.08.34-1.52.65-.83.57-.74,1.23.19,2.23-.5,1.11-1.01,2.23-1.51,3.34-2.94.54-3.43,1.55-1.85,3.85-1.3,2.55-2.61,5.11-3.91,7.66-2.71.58-3.27,1.66-1.9,3.71-.5,1-1.01,2-1.51,3-.65.2-1.39.27-1.93.64-.92.63-.79,1.34.27,2.3-.85,1.42-1.71,2.83-2.56,4.25-2.03.37-2.26.8-1.29,2.46-1.03,1.74-2.07,3.47-3.1,5.21q-1.64.25-1.31,2.04c-.32.44-.65.88-.97,1.32-2.05.33-2.27.73-1.39,2.44-.31.45-.62.91-.93,1.36-1.91,2.75-3.83,5.49-5.74,8.24-3.67-.39-6.17,5.46-5.87,8.51-.36.5-.71,1.01-1.07,1.51-1.38-.13-1.37.81-1.33,1.76-.37.53-.75,1.06-1.12,1.6-1.77.02-1.84.12-2.95,1.02-.25.2-2.16,2.98-2.43,3.41-1.07,1.68-2.41,3.26-3.54,5.04-1.87,0-1.98,1.44-2.09,2.53-2.54,1.34-3.4,1.72-2.73,4.78h0q-3.34.02-3.35,3.23c0,.16,0,.32,0,.48-.19.2-.39.41-.58.61-3.01,0-4.78.74-3.64,4.05-1.31,1.37-2.62,2.74-3.93,4.11-.82.8-1.64,1.6-2.45,2.4-2.89.2-3.57.89-3.78,3.78l-2.88,2.92c-1.21,1.15-2.41,2.31-3.62,3.46-2.66-1.01-3.9-.25-4.04,2.47-.02.39,0,.78,0,1.17-.21.19-.41.39-.62.58-.39,0-.78,0-1.18,0-2.56.05-3.08.73-2.52,3.35h0c-3.03-.45-3.2-.02-4.87,2.81-1.51,0-5.55,3.72-6.97,4.7-2.02,1.4-4.95,3.46-4.86,6.14-.38.25-.75.49-1.13.74q-2.54.07-2.78,2.23c-.07.15-.19.22-.36.21-1.39.2-2.81.3-4.17.64-.48.12-.82.81-1.22,1.24-.8.48-1.6.96-2.4,1.44-1.73.53-1.38,1.98-1.44,3.26-1.28.86-2.56,1.72-3.83,2.58-.46-.04-.93-.08-1.39-.12-.98-.14-1.96-.42-2.94-.42-136.2-.02-272.41-.02-408.61-.02-1.04,0-2.07-.06-3.11-.1,0-.32.01-.64.01-.96,0-55.41,0-110.83,0-166.24,0-.56.03-1.13-.05-1.67-.04-.27-.32-.5-.49-.75-.14,0-.28-.02-.42-.04Z"/>
          <path d="m633.57,48.54c.48,0,.96,0,1.44,0-.03.96-.05,1.92-.08,2.88-178.55,0-357.09,0-535.64.02-1.97,0-4,.08-5.91.53-2.61.61-5.49,1.1-7.61,2.57-3.11,2.15-6.44,4.21-8.59,7.58-2.41,3.78-4.67,7.61-5.34,12.14-.28,1.9-.25,1.9-2.36,2.1-.14-.64-.27-1.28-.41-1.92,1.99-14.28,14.08-25.11,28.16-25.49.96,0,1.92,0,2.88,0,.96.03,1.91.08,2.87.08,175.92,0,351.83,0,527.75,0,.72,0,1.44.04,2.15-.03.24-.02.46-.3.69-.45Z"/>
          <path class="cls-38" d="m635.01,615.85H69.44c0-.15,0-.31,0-.46,1.04,0,2.08-.02,3.11-.02,186.43,0,372.86,0,559.28,0,1.04,0,2.08-.03,3.11-.04.02.17.05.35.07.52Z"/>
          <path class="cls-30" d="m633.57,48.54c-.23.16-.45.43-.69.45-.71.06-1.44.03-2.15.03-175.92,0-351.83,0-527.75,0-.96,0-1.91-.05-2.87-.08,0-.13,0-.27,0-.4,177.82,0,355.64,0,533.46,0Z"/>
          <path class="cls-4" d="m97.23,48.94c-14.08.38-26.17,11.21-28.16,25.49-.2.16-.39.32-.59.48,0-8.79,0-17.58,0-26.38h28.76c0,.13,0,.27,0,.4Z"/>
          <path class="cls-7" d="m69.07,386.04c-.2.03-.39.07-.59.1,0-101.99,0-203.97,0-305.96h.21s.21,0,.21,0c1.02,50.87.06,101.85.06,152.73,0,50.81-1.66,101.95.11,152.72-.02.13-.02.27,0,.4Z"/>
          <path class="cls-73" d="m634.93,51.41c.03-.96.05-1.92.08-2.88.16.08.45.15.46.24.04.64.02,1.28.02,1.92v227.55c-.13,0-.26,0-.38-.02,0,0-.18.03-.18.03,1.2-37.73.08-75.67.08-113.42s1.07-75.69-.08-113.42Z"/>
          <path class="cls-69" d="m635.01,615.85c-.02-.17-.05-.35-.07-.52,1.08-37.89.07-75.96.07-113.87,0-37.89,1.19-76-.08-113.87.05-.48.09-.97.14-1.45.14,0,.28,0,.42.01,0,75.85,0,151.7-.03,227.55,0,.7.55,1.63-.45,2.16Z"/>
          <path class="cls-58" d="m68.48,388.06c.14.01.28.03.42.04,1.35,56.42.74,113.21.03,169.64-.15.03-.3.06-.45.08,0-56.59,0-113.18,0-169.76Z"/>
          <path class="cls-18" d="m635.49,386.14c-.14,0-.28-.01-.42-.01,0,0-.13.05-.13.05,0-.17,0-.33,0-.5.72-17.77.08-35.7.08-53.48,0-17.79.64-35.71-.08-53.48.06-.16.12-.33.18-.49.13.01.26.02.38.02v107.9Z"/>
          <path class="cls-9" d="m68.48,557.82c.15-.03.3-.06.45-.08,0,0,.11.18.11.18-.27,9.2-.08,18.43-.08,27.64,0,9.48-1.51,20.46.52,29.72,0,0-.06.1-.06.1,0,.15,0,.31,0,.46-.3-.2-1.02.47-.96-.48.03-.56,0-1.12,0-1.68,0-18.62,0-37.25,0-55.87Z"/>
          <path class="cls-81" d="m68.48,74.91c.2-.16.39-.32.59-.48.14.64.27,1.28.41,1.92-.02.96-.03,1.92-.05,2.88-.14,0-.27,0-.41,0-.18-.96-.36-1.92-.54-2.88,0-.48,0-.96,0-1.44Z"/>
          <path class="cls-7" d="m68.48,76.35c.18.96.36,1.92.54,2.88-.04.32-.09.64-.13.96,0,0-.21,0-.21,0h-.21c0-1.28,0-2.56,0-3.84Z"/>
          <path class="cls-30" d="m97.23,48.94c0-.13,0-.27,0-.4h2.88c0,.13,0,.27,0,.4-.96,0-1.92,0-2.88,0Z"/>
          <path d="m634.93,387.58c1.26,37.87.08,75.98.08,113.87,0,37.91,1.01,75.98-.07,113.87-1.04.01-2.08.04-3.11.04-186.43,0-372.86,0-559.28,0-1.04,0-2.08.01-3.11.02,0,0,.06-.1.06-.1-.02-.64-.04-1.28-.04-1.91,0-18.36,0-36.71,0-55.07.24,0,.48,0,.72,0,137.26,0,274.51,0,411.77,0,.72,0,1.44-.03,2.15-.04.46.04.93.08,1.39.12,1.78,6.47,31.15-22.04,35.34-22.97.24-1.15,4.06-4.74,5.06-5.68,2.2-2.04,4.57-2.47,6.1-5.49,4.03-4.68,8.53-9.18,13.42-12.95,2.1-1.46,1.85-3.48,3.4-5,.91-.9,2.35-1.09,3.33-2.04,1.91-1.87,3.95-4.66,5.73-6.71,6.22-7.16,11.7-15.01,17.26-22.7,1.24-.07,1.48-.89,1.44-1.92,10.54-15.69,21.74-32.17,28.74-49.79,3.35-8.42,7.31-16.67,10.6-25.2.97-2.52,2.09-8.66,4.49-10.22,2.47-1.6,11.5-.15,14.56-.15Z"/>
          <path class="cls-4" d="m484.53,389.42c-1.74.2-3.47.41-5.21.61-1.16.11-2.31.23-3.47.34-1.09.05-2.18.1-3.27.15-5.79,0-11.58,0-17.37.01-2.05-.05-4.11-.1-6.16-.14-4.64-.68-9.28-.7-13.93-.01-1.25.05-2.5.1-3.75.15-1.16.11-2.32.22-3.48.33-.45.07-.9.13-1.35.2-1.98,10.58-.5,22.62-.51,33.39,0,11.2.21,22.43-.09,33.63-4.7-.49-1.23,24.29-.39,27.34,0,19.63-.02,39.27-.02,58.9-.95.03-1.9.09-2.86.09-17.74,0-35.48.01-53.21.02,0,0-.04,0-.04,0,.02-21.28.04-42.55.06-63.83,0-.63-.06-1.27-.09-1.91.03-12.79.05-25.57.08-38.36.02-6.55.06-13.11.08-19.66.13-.6.37-1.21.37-1.81.01-20.02,0-40.05,0-60.07.02-8.1.04-16.21.06-24.31.96-.03,1.91-.08,2.87-.09,5.75-.06,11.5-.1,17.25-.16,8.89.6,17.96.13,26.87.14,8.85.02,18.05.73,26.86-.08,2.7,0,5.39,0,8.09,0l-.04.13c3.24.94,8.81.98,12.07,0,1.23-.04,2.46-.09,3.69-.13,1.17-.12,2.33-.25,3.5-.37.45-.05.91-.1,1.36-.14,1.28-.31,2.57-.63,3.85-.94,2.28-.43,4.62-.69,6.84-1.33,2.09-.6,4.07-1.59,6.1-2.41,4.81,4.09,22.58-16.1,19.15-19.73.13-.32.26-.63.39-.95,4.34-1.46,6.66-11.29,4.38-14.93,0-2.49,0-4.98,0-7.48.43-.63.86-1.26,1.36-2.01-.91-2.46-.1-4.43-3.14-5.28,0,0-.17,0-.17,0,0-.17.01-.33.02-.5,0,0,.15.04.15.04,1.22-1.39,1.15-1.68-.51-2.41-.15-.32-.31-.64-.46-.97.85-.68,1.56-1.51,1.14-2.63-.38-1.01-1.31-1.33-2.38-1.13-.1,0-.2-.01-.3-.05-.35-.65-.69-1.29-1.04-1.94-.13-.48-.26-.97-.39-1.45,2.07-3.64-3.54-9.07-6.79-9.06-.13,0-.26-.02-.39-.06-.63-.63-1.27-1.26-1.9-1.9-.05-.12-.07-.25-.06-.38.47-2.63-1.13-2.91-3.1-4.42-1.28-.98-6.23-6.22-7.49-3.16-.32-.16-.64-.31-.96-.47.56-4.28-6.34-3.18-8.24-3.02-.74-.02-1.48-.05-2.22-.07-1.76-.17-3.53-.34-5.29-.51-.95-1.75-1.01-1.76-3.44-.56-1.76-2.51-3.09,0-5.19-.17-1.72-.13-2.72-1.41-4.24-1.57-2.55-.27-3.76,1.13-6.05,1.35-1.74.17-2.71-.91-4.31-1.22-3.95-.77-6.65,1.21-10.55,1.25-3.11.03-9.35-2.44-10.8.48l-3.73-.12c-.64-9.12-.1-18.47-.1-27.62,0-9.35-.69-19.01.2-28.32,2.47-.02,4.94-.04,7.41-.05,10.76-.02,21.51-.04,32.27-.06,1.74,0,3.49-.01,5.23-.02.15,0,.3.03.42.12-.13,1.06.49,1.59,1.41,1.77.99.19,1.38-.44,1.47-1.33,1.62-.01,3.24-.02,4.85-.04.46.04.92.08,1.38.12.88,1.7,1.41,1.79,2.4.39.8,0,1.61-.01,2.41-.02h0c.01.64-.04,1.35.85,1.42,3.07.23,6.08,1.69,9.22.51.31.19.63.38.94.57,2.45,2.68,3.35,2.89,5.78,1.35.63.19,1.26.37,1.89.56,1.45,3.64,6.15,3.15,9.05,4.77,2.72,1.52,5.65,3.07,8.42,4.63,3.08,1.73,6.11,4.04,9,6.08,3.37,2.37,5.6,6.02,9.88,6.04,1.94,1.93,3.87,3.87,5.81,5.8.01,4.67,5.44,9.07,8.11,12.94,1.73,2.51,6.62,14.52,9.62,13.86v.02c-.29.71-.58,1.42-.84,2.06,1.61,3.48,2.74,11.82,6.04,13.75.32,1.12.64,2.24.95,3.36-1.87.26-.94,7.3,1.44,7.67.19,1.27.38,2.53.57,3.8-.23.64-.46,1.29-.71,1.98.38.32.74.63,1.1.93.04.44.09.88.13,1.32-.22.64-.34,1.35-.69,1.91-1.1,1.73-1.06,1.96,1.03,3,0,2.4,0,4.8,0,7.19-2.09,1.04-2.1,1.26-.97,2.92.43.62.39,1.56.57,2.35h0c-1.75.79-2.51,4.65-1.69,6.5-1.25,1.18.25,2.11.28,3.17.08.15.06.29-.06.41-.47.27-1.01.45-1.4.81-1.34,1.25-1.28,3.5.06,4.48-.04.16-.07.31-.11.47-2.26,1.5-4.42,4.26-3.68,7.29-1.01,1.92-1.78,3.4-2.52,4.8.36.86.67,1.57.97,2.28h0c-2.18.17-2.56.58-3.17,2.44-.39,1.19.59,1.7.85,2.55-.49.9-.97,1.79-1.46,2.69-3.37.23-5.28,6.12-7.2,8.86-2.09,2.97-6.8,6.58-6.28,10.23-2.11,2.11-4.22,4.21-6.32,6.32-2.59,0-3.47.09-4.46,2.65-3.94,1.69-7.14,4.92-10.56,7.37-2.04,1.46-6.71,2.67-6.46,5.78,0,0-.04.02-.04.02-2.87-1.08-5.74-.12-6.66,3.34l-.12.13s-.17-.01-.17-.01c-1.48-1.14-6.31-.35-5.92,2.35h.01c-2.27-1.47-2.87-1.35-5.22,1.15-3.02-2.09-10.93,1.73-13.49,3.53Z"/>
          <path class="cls-4" d="m191.26,444.79c.01.13-.02.24-.08.36-17.34,0-34.68-.01-52.02-.03-.87,0-1.75-.05-2.62-.08.04-1.28-.55-2.08-1.83-2.31-.05-1.09-.1-2.19-.15-3.28.66-17.9.06-35.93.01-53.85,0-1.04,0-2.08,0-3.11-.01-5.03-.02-10.06-.04-15.08,0-8.29,0-16.58,0-24.86,0-3.83,0-7.66,0-11.49.33-9.45.15-18.97,0-28.42,0-2.55,0-5.11,0-7.66,0-.15.03-.29.12-.42,1.88-.55,2.2-1.3,1.3-2.76-.39-.64-.6-1.4-.89-2.11-.12-1.27-.24-2.54-.36-3.81,0,0-.11.05-.11.05.15-.17.3-.34.45-.51,1.81-1.09,1.83-1.21.86-3.04-.21-.4-.24-.89-.36-1.34.04-.61.09-1.23.13-1.84,1.73-1.27,1.78-1.64.47-3.28-.15-.18-.3-.36-.44-.55-.01-.16-.03-.33-.04-.49,3.58-.81,1.04-4.58,2.8-7.19.78-1.83.7-2.45-.45-3.36-.13-.32-.26-.63-.39-.95.14-.32.28-.64.43-.97,1,.57,1.48-.15,1.72-.87.31-.95-.32-1.4-1.21-1.53.59-1.44,1.18-2.89,1.77-4.33,4.68-3.26,6.63-11.91,9.72-16.77,2.24-3.53,4.77-6.99,7.34-10.29,1.13-1.45,2.78-2.9,2.73-4.85,3.56-.65,8.31-7.38,10.94-9.85,3.75-3.52,8.54-6.49,12.89-9.36,5.07-3.34,10.96-6.75,16.71-8.47,3.03-.91,13.83-2.78,14.49-6,3.04-.48,6.08-.95,9.12-1.43,1.12.54,2.24.62,3.34-.07.17-.17.33-.34.5-.51.31-.03.63-.06.94-.09.17.07.33.13.5.2,1.76.57,3.51.61,5.26-.03.78-.05,1.56-.1,2.33-.15,2.57.03,5.15.06,7.72.09,0,7.22-.01,14.43,0,21.65,0,2.69.06,5.39.09,8.08-.02,1.04-.05,2.07-.05,3.11-.04,7.89-.07,15.78-.11,23.67-2.68.04-5.36.09-8.05.13-1.3.13-2.6.25-3.9.38-3.69-.06-7.27.49-10.7,1.88-2.11.85-4.22,1.69-6.34,2.53-2.76-1.14-10.69,3.54-9.77,6.55-1.31,1.31-2.61,2.62-3.92,3.92-5.42-1.81-14.03,21.88-10.42,25.44-.03.64-.06,1.27-.1,1.91-2.95.64-1.34,2.12-.38,3.45l.04,3.79c0,4.13,0,8.26,0,12.39,0,2.07,0,4.15,0,6.22-.01,6.23-.02,12.47-.03,18.7-.01,7.68-.03,15.37-.04,23.05-.97,2.36-4.75,15.28.4,14.88.03.88.08,1.75.08,2.63.04,4.55.06,9.11.09,13.66-.03,2.94-.07,5.88-.08,8.81-.04,9.38-.07,18.75-.1,28.13-4.68-.38-.46,7.62-.39,9.13l.07,12.59Z"/>
          <path d="m575.1,474.86c-5.56,7.68-11.04,15.54-17.26,22.7-1.78,2.05-3.81,4.84-5.73,6.71-.97.95-2.42,1.14-3.33,2.04-1.55,1.53-1.31,3.54-3.4,5-1.26.39-2.51.81-3.79,1.15-.3.08-.67-.12-1.01-.19,1.31-1.37,2.62-2.74,3.93-4.11,1.21-1.35,2.43-2.7,3.64-4.05.19-.2.39-.41.58-.61,1.12-1.23,2.23-2.47,3.35-3.7,0,0,0,0,0,0,4.58-5.59,9.16-11.19,13.73-16.78.37-.53.75-1.07,1.12-1.6.44-.59.89-1.17,1.33-1.76.36-.5.71-1.01,1.07-1.51l3.41-4.59c.73-1,1.45-2.01,2.18-3.01.1-.3.19-.61.29-.91,1.91-2.75,3.83-5.49,5.74-8.24.31-.45.62-.91.93-1.36.46-.81.92-1.62,1.39-2.44.32-.44.65-.88.97-1.32.44-.68.87-1.36,1.31-2.04,1.03-1.74,2.07-3.47,3.1-5.21.43-.82.86-1.64,1.29-2.46.85-1.42,1.71-2.83,2.56-4.25.55-.98,1.1-1.96,1.66-2.94.5-1,1.01-2,1.51-3,.63-1.24,1.27-2.47,1.9-3.71,1.3-2.55,2.61-5.11,3.91-7.66.62-1.28,1.23-2.57,1.85-3.85.5-1.11,1.01-2.23,1.51-3.34.45-.96.89-1.92,1.34-2.88.19-.48.39-.95.58-1.43.29-.65.58-1.29.88-1.94.19-.47.38-.94.57-1.42.29-.64.57-1.29.86-1.93.12-.09.16-.21.11-.35,1.06-2.6,2.13-5.21,3.19-7.81.22-.63.44-1.26.67-1.88.26-.65.52-1.29.78-1.94.11-.13.15-.28.11-.44.44-1.14.88-2.27,1.31-3.41.58-1.99,1.13-3.99,1.75-5.97.08-.25.47-.39.71-.59.84.11,1.69.3,2.53.31,4.9.04,9.79.04,14.69.05,0,0,.13-.05.13-.05-.05.48-.09.97-.14,1.45-3.05,0-12.08-1.45-14.56.15-2.4,1.56-3.52,7.7-4.49,10.22-3.29,8.53-7.25,16.77-10.6,25.2-7.01,17.62-18.21,34.11-28.74,49.79-.48.64-.96,1.28-1.44,1.92Z"/>
          <path class="cls-31" d="m484.08,558.26c-.72.01-1.44.04-2.15.04-137.26,0-274.51,0-411.77,0-.24,0-.48,0-.72,0,0-.13,0-.27,0-.4,0,0-.02-.17-.02-.17,1.04.03,2.07.1,3.11.1,136.2,0,272.41,0,408.61.02.98,0,1.96.27,2.94.42Z"/>
          <path d="m531.96,524.26c-1.52,3.02-3.9,3.44-6.1,5.49-1,.93-4.82,4.53-5.06,5.68-4.18.93-33.56,29.44-35.34,22.97,1.28-.86,2.56-1.72,3.83-2.58l9.23-6.57c.17,0,.29-.06.36-.21.93-.74,1.85-1.49,2.78-2.23.38-.25.75-.49,1.13-.74,5.57-4.55,11.13-9.1,16.7-13.65,0,0,0,0,0,0,1.23-1.12,2.46-2.23,3.7-3.35.21-.19.41-.39.62-.58,1.35-1.21,2.69-2.43,4.04-3.64,1.21-1.15,2.41-2.31,3.62-3.46.16.96.32,1.93.49,2.89Z"/>
          <path class="cls-27" d="m68.93,557.74c.71-56.43,1.32-113.23-.03-169.64.17.25.45.48.49.75.09.55.05,1.11.05,1.67,0,55.41,0,110.83,0,166.24,0,.32,0,.64-.01.96,0,0,.02.17.02.17-.14-.06-.27-.05-.39.03,0,0-.11-.18-.11-.18Z"/>
          <path class="cls-24" d="m353.6,370.76c-.17-.01-.31.05-.41.18-.65.4-1.31.8-1.96,1.2-.64.32-1.27.65-1.91.97-.29.09-.57.18-.86.27.14-.86.27-1.73.41-2.59,7.27-3.95,13.74-8.82,20.13-14.06,0-5.61.2-11.26,0-16.87-.02-.61-1-3.94-.95-4.46.13-1.19.75-5.62,2.86-1.55-.45.19-.91.38-1.36.57,0,8.13-.02,16.25-.03,24.38-.08.12-.13.24-.15.39-.16.14-.32.28-.48.42-1.87,1.45-3.71,2.94-5.61,4.36-2.4,1.79-4.85,3.51-7.28,5.26-.8.51-1.61,1.02-2.41,1.53Z"/>
          <path class="cls-4" d="m516.14,378.92c-.24-3.11,4.42-4.31,6.46-5.78,3.42-2.45,6.63-5.68,10.56-7.37.99-2.56,1.86-2.65,4.46-2.65-3.9,6.14-14.82,13.02-21.48,15.8Z"/>
          <path class="cls-10" d="m276.92,386.19c-28.22-.09-56.57-.82-84.77.05,0,0,0-.18,0-.18,0-.15,0-.3.01-.45,28.05.94,56.7.98,84.74,0,.03.13.05.26.07.4l-.05.19Z"/>
          <path class="cls-4" d="m543.94,356.8c-.52-3.66,4.19-7.26,6.28-10.23,1.92-2.74,3.83-8.63,7.2-8.86-2.01,5.92-8.14,15.64-13.48,19.09Z"/>
          <path class="cls-19" d="m425.95,458.08c.3-11.2.09-22.43.09-33.63,0-10.77-1.47-22.81.51-33.39-.02,25.69-.04,51.38-.05,77.08,0,1.6-.01,3.19-.02,4.79-.12.02-.25.03-.37.04-.03-.86-.09-1.73-.09-2.59-.03-4.1-.05-8.19-.07-12.29Z"/>
          <path class="cls-26" d="m426.11,472.96c.12,0,.25-.02.37-.04.02,12.37.04,24.74.04,37.1,0,11.29,1.03,23.19-.36,34.39,0,0-.23-.04-.23-.04,1.08-19.27,1.15-39.71.03-58.97.05-4.15.1-8.3.15-12.44Z"/>
          <path d="m531.96,524.26c-.16-.96-.32-1.93-.49-2.89.96-.97,1.92-1.95,2.88-2.92,1.26-1.26,2.52-2.52,3.78-3.78l2.45-2.4c.34.07.71.27,1.01.19,1.27-.34,2.53-.76,3.79-1.15-4.89,3.77-9.39,8.27-13.42,12.95Z"/>
          <path class="cls-84" d="m519.49,532.41c-5.57,4.55-11.13,9.1-16.7,13.65-.1-2.68,2.83-4.74,4.86-6.14,1.42-.98,5.46-4.7,6.97-4.7,1.67-2.83,1.84-3.26,4.87-2.81Z"/>
          <path class="cls-65" d="m337.39,378.59c0,21.75-.01,43.5-.05,65.25,0,.89-.34,1.78-.52,2.66.03-.16.02-.31-.02-.47.03-7.58.08-15.17.08-22.75,0-5.19-.04-10.38-.07-15.57.03-2.31.07-4.61.08-6.92.03-7.4.06-14.8.09-22.2.15-.01.28-.07.38-.17l.03.15Z"/>
          <path class="cls-84" d="m565.83,483.01c-4.58,5.59-9.16,11.19-13.73,16.78-.67-3.07.19-3.44,2.73-4.78.11-1.1.22-2.54,2.09-2.53,1.13-1.78,2.47-3.36,3.54-5.04.27-.42,2.18-3.2,2.43-3.41,1.11-.9,1.19-1,2.95-1.02Z"/>
          <path class="cls-53" d="m635.11,278.22c-.06.16-.12.33-.18.49-21.83,0-43.66,0-65.49.01-.09-.13-.14-.28-.17-.44.82-.03,1.65-.07,2.47-.1,1.04.02,2.07.05,3.11.05,20.02,0,40.05.01,60.07.01,0,0,.18-.03.18-.03Z"/>
          <path class="cls-28" d="m369.4,478.68c.03.64.09,1.27.09,1.91-.02,21.28-.04,42.55-.06,63.83-.15-.66-.44-1.33-.44-1.99,0-21.23.03-42.47.06-63.7.12-.02.23-.03.35-.04Z"/>
          <path class="cls-10" d="m69.07,386.04c-.02-.13-.02-.27,0-.4,0,0,.2,0,.2,0l.2-.02c11.1.01,22.2.04,33.29.04,9.66,0,19.32-.03,28.98-.04.76.01,1.51.03,2.27.04l.23.03c-.05.15-.11.31-.16.46-20.72,0-41.44,0-62.15-.02-.95,0-1.91-.06-2.86-.1Z"/>
          <path class="cls-22" d="m369.4,478.68c-.12.01-.23.03-.35.04-.02-.48-.06-.95-.06-1.43.01-21.11.02-42.21.04-63.32.12-.01.24-.02.37-.03.06,2.24.12,4.48.18,6.72-.03,6.55-.07,13.11-.08,19.66-.03,12.79-.06,25.57-.08,38.36Z"/>
          <path class="cls-4" d="m484.53,389.42c2.56-1.8,10.47-5.62,13.49-3.53,2.35-2.5,2.96-2.62,5.22-1.16-2.73.93-5.42,2.06-8.22,2.74-3.45.84-6.99,1.32-10.5,1.95Z"/>
          <path class="cls-28" d="m277.51,446.48c-1.86-9.31-.53-19.92-.53-29.42,0-10.29-.02-20.58-.05-30.88,0,0,.05-.19.05-.19s.19.02.19.02h.19c.71,19.98-.35,40.02.18,60.02-.03.15-.03.3-.02.45Z"/>
          <path class="cls-56" d="m277.51,446.48c-.01-.15,0-.3.02-.45,10.93.02,21.86.05,32.79.05,8.22,0,16.43-.03,24.65-.04.61,0,1.22,0,1.82,0,.04.15.05.31.02.47-19.72.28-39.59.56-59.31-.03Z"/>
          <path class="cls-80" d="m369.47,544.42c17.74,0,35.48,0,53.21-.02.95,0,1.9-.06,2.86-.09.13.04.26.06.39.06,0,0,.23.04.23.04-8.91,1.87-19.37.46-28.47.46-8.95,0-19.49,1.47-28.22-.45Z"/>
          <path class="cls-41" d="m136.54,445.05c.87.03,1.75.07,2.62.08,17.34.01,34.68.02,52.02.03-8.7,2.02-19.34.46-28.28.46-8.76,0-19.79,1.74-28.24-.53.63-.01,1.25-.02,1.88-.03Z"/>
          <path class="cls-83" d="m369.39,413.95c-.12,0-.24.02-.37.03,0-17-.01-34.01-.02-51.01,0-1.12-.06-2.23-.1-3.35.16-.14.32-.28.48-.42.79,18.19.1,36.55.01,54.75Z"/>
          <path class="cls-3" d="m134.09,386.16c.05-.15.11-.31.16-.46.11-.03.22-.05.33-.09.05,17.91.64,35.95-.01,53.85-.11-.05-.22-.1-.34-.14-.05-2.54-.1-5.07-.15-7.61.5-12.41.2-24.98,0-37.4,0-2.71,0-5.43.01-8.14Z"/>
          <path class="cls-4" d="m561.2,330.03c-.3-.71-.6-1.43-.97-2.28.73-1.4,1.51-2.88,2.52-4.8-.74-3.04,1.42-5.79,3.68-7.29-1.2,4.99-2.94,9.78-5.23,14.37Z"/>
          <path class="cls-82" d="m191.58,423.07c.03-9.38.06-18.75.1-28.13.01-2.94.06-5.88.08-8.81.13,0,.27-.03.39-.08,0,0,0,.18,0,.18-.01,14.88-.02,29.76-.06,44.64,0,.93-.22,1.86-.34,2.79-.07-.5-.13-1-.2-1.51,0-3.03.01-6.06.02-9.08Z"/>
          <path class="cls-35" d="m134.07,394.3c.2,12.42.5,24.99,0,37.4-1.17-5.96-.4-12.63-.4-18.7,0-6.07-.76-12.74.4-18.7Z"/>
          <path class="cls-84" d="m498.53,549.24l-9.23,6.57c.05-1.27-.3-2.73,1.44-3.26,1.01-.13,2.49.53,2.4-1.44.4-.43.74-1.12,1.22-1.24,1.36-.34,2.78-.44,4.17-.64Z"/>
          <path d="m342.64,376.55c-1.75.68-3.5,1.36-5.25,2.05,0,0-.03-.15-.03-.15,0-.79.02-1.58.03-2.37.78-.37,1.57-.72,2.34-1.1,1.44-.71,2.81-.44,3.96.81-.35.25-.7.51-1.05.76Z"/>
          <path class="cls-84" d="m572.75,473.55c-1.14,1.53-2.27,3.06-3.41,4.59-.3-3.05,2.2-8.9,5.87-8.51-.1.3-.19.61-.29.91-2.58.12-2.77.36-2.21,2.77.02.08.02.16.04.24Z"/>
          <path class="cls-4" d="m567.94,309.49c-.03-1.06-1.53-1.99-.28-3.17-.82-1.85-.06-5.72,1.69-6.5.06,3.3-.42,6.52-1.41,9.67Z"/>
          <path class="cls-84" d="m612.39,400.05c-1.06,2.6-2.13,5.21-3.19,7.81-1.46-2.4.71-5.5,1.79-7.65.34-.04.87-.1,1.4-.16Z"/>
          <path class="cls-4" d="m509.44,382.28c.92-3.46,3.79-4.42,6.66-3.34-2.22,1.11-4.44,2.23-6.66,3.34Z"/>
          <path class="cls-4" d="m503.23,384.75c-.39-2.71,4.45-3.5,5.92-2.35-1.97.78-3.95,1.57-5.92,2.35Z"/>
          <path class="cls-4" d="m558.88,335.02c-.26-.85-1.25-1.36-.85-2.55.61-1.86.99-2.27,3.17-2.44-.77,1.66-1.54,3.33-2.31,4.99Z"/>
          <path class="cls-84" d="m548.16,504.11c-1.21,1.35-2.43,2.7-3.64,4.05-1.14-3.31.63-4.04,3.64-4.05Z"/>
          <path class="cls-84" d="m527.86,524.82c-1.35,1.21-2.69,2.43-4.04,3.64,0-.39-.02-.78,0-1.17.13-2.72,1.38-3.48,4.04-2.47Z"/>
          <path class="cls-45" d="m455.22,390.54c5.79,0,11.58,0,17.37-.01-4.81,1.08-12.58,1.2-17.37.01Z"/>
          <path class="cls-89" d="m634.94,386.18c-4.9-.01-9.79,0-14.69-.05-.84,0-1.69-.2-2.53-.31,3.74-.05,7.49-.12,11.23-.16,1.99-.02,3.99,0,5.98,0,0,.17,0,.33,0,.5Z"/>
          <path class="cls-4" d="m566.54,315.19c-1.34-.98-1.4-3.23-.06-4.48.38-.36.93-.55,1.4-.81-.44,1.76-.89,3.53-1.33,5.29Z"/>
          <path class="cls-84" d="m523.2,529.05c-1.23,1.12-2.46,2.23-3.7,3.35-.56-2.61-.04-3.3,2.52-3.35.39,0,.78,0,1.18,0Z"/>
          <path class="cls-34" d="m435.13,390.38c4.64-.69,9.29-.67,13.93.01-4.64,0-9.29,0-13.93-.01Z"/>
          <path d="m348.87,370.8c-.14.86-.27,1.73-.41,2.59-.53.36-1.06.73-1.58,1.09-.45.23-.91.45-1.36.68-.48.13-.95.27-1.43.4,1.01-2.09,3.29-2.88,4.79-4.76Z"/>
          <path class="cls-84" d="m552.09,499.8c-1.12,1.23-2.23,2.47-3.35,3.7,0-.16,0-.32,0-.48q.01-3.21,3.35-3.23Z"/>
          <path class="cls-84" d="m603.35,421.15c-.62,1.28-1.23,2.57-1.85,3.85-1.58-2.3-1.09-3.31,1.85-3.85Z"/>
          <path class="cls-84" d="m538.14,514.66c-1.26,1.26-2.52,2.52-3.78,3.78.2-2.89.89-3.57,3.78-3.78Z"/>
          <path class="cls-84" d="m597.58,432.66c-.63,1.24-1.27,2.47-1.9,3.71-1.37-2.05-.81-3.13,1.9-3.71Z"/>
          <path class="cls-29" d="m191.56,432.15c.07.5.13,1,.2,1.51-.04,2.78-.05,5.56-.13,8.33-.03.93-.24,1.86-.36,2.8-.02-4.2-.05-8.39-.07-12.59.12-.01.25-.03.37-.05Z"/>
          <path class="cls-4" d="m569.35,299.82c-.18-.79-.15-1.73-.57-2.35-1.13-1.66-1.12-1.88.97-2.92.05.81.09,1.61.14,2.42-.18.95-.36,1.9-.54,2.85Z"/>
          <path class="cls-60" d="m569.89,296.97c-.05-.81-.09-1.61-.14-2.42,0-2.4,0-4.8,0-7.19.05-.81.1-1.62.15-2.43.8,3.67.8,8.39,0,12.04Z"/>
          <path class="cls-4" d="m569.89,284.92c-.05.81-.1,1.62-.15,2.43-2.09-1.04-2.14-1.27-1.03-3,.36-.56.47-1.27.69-1.91.12.06.24.12.36.17.04.77.09,1.54.13,2.31Z"/>
          <path class="cls-84" d="m594.17,439.37c-.55.98-1.1,1.96-1.66,2.94-1.06-.97-1.19-1.68-.27-2.3.54-.37,1.28-.44,1.93-.64Z"/>
          <path class="cls-84" d="m353.6,370.76c.8-.51,1.61-1.02,2.41-1.53.07.68.15,1.35.22,2-1.17,1.16-1.8-.18-2.63-.47Z"/>
          <path class="cls-84" d="m351.23,372.15c.65-.4,1.31-.8,1.96-1.2.15.6.3,1.2.46,1.86-1.14.62-1.9.4-2.42-.66Z"/>
          <path class="cls-84" d="m606.2,414.93c-.45.96-.89,1.92-1.34,2.88-.93-1-1.01-1.66-.19-2.23.45-.31,1.01-.44,1.52-.65Z"/>
          <path class="cls-4" d="m136.54,445.05c-.63.01-1.25.02-1.88.03-.04-.13-.08-.27-.1-.41.05-.65.1-1.29.15-1.94,1.28.24,1.87,1.03,1.83,2.31Z"/>
          <path class="cls-84" d="m615.26,392.38c-.44,1.14-.88,2.27-1.31,3.41-.13-.44-.28-.88-.37-1.33-.34-1.61-.15-1.84,1.69-2.08Z"/>
          <path class="cls-84" d="m344.09,375.55c.48-.13.95-.27,1.43-.4-.05.53-.1,1.05-.14,1.54-1.03.59-1.89.28-2.74-.15.35-.25.7-.51,1.05-.76.17-.01.31-.09.4-.23Z"/>
          <path class="cls-84" d="m501.67,546.79c-.93.74-1.85,1.49-2.78,2.23q.24-2.17,2.78-2.23Z"/>
          <path class="cls-84" d="m589.95,446.57c-.43.82-.86,1.64-1.29,2.46-.97-1.66-.74-2.1,1.29-2.46Z"/>
          <path class="cls-84" d="m583.28,457.6c-.46.81-.92,1.62-1.39,2.44-.89-1.7-.66-2.1,1.39-2.44Z"/>
          <path class="cls-84" d="m346.88,374.48c.53-.36,1.06-.73,1.58-1.09.29-.09.57-.18.86-.27-.32,2.15-.68,2.35-2.44,1.36Z"/>
          <path class="cls-25" d="m134.71,442.73c-.05.65-.1,1.29-.15,1.94-.11-1.79-.22-3.58-.33-5.36.12.04.23.09.34.14.05,1.09.1,2.19.15,3.28Z"/>
          <path class="cls-84" d="m607.66,411.56c-.29.65-.58,1.29-.88,1.94-1.04-1.01-.92-1.27.88-1.94Z"/>
          <path class="cls-4" d="m569.27,278.29c.03.16.08.3.17.44,0,.31-.01.61-.02.92-.05.49-.1.99-.15,1.48-.36-.31-.72-.61-1.1-.93.25-.69.48-1.34.71-1.98.13.04.26.07.39.08Z"/>
          <path class="cls-84" d="m613.84,396.23c-.26.65-.52,1.29-.78,1.94-.29-.21-.58-.43-1.07-.79.74-.46,1.3-.8,1.86-1.15Z"/>
          <path class="cls-84" d="m585.56,454.24c-.44.68-.87,1.36-1.31,2.04q-.33-1.78,1.31-2.04Z"/>
          <path class="cls-84" d="m609.08,408.21c-.29.64-.57,1.29-.86,1.93-1.25-1.33.25-1.43.86-1.93Z"/>
          <path class="cls-84" d="m568.28,479.66c-.44.59-.89,1.17-1.33,1.76-.04-.95-.05-1.88,1.33-1.76Z"/>
          <path class="cls-84" d="m493.14,551.11c.09,1.97-1.39,1.31-2.4,1.44.8-.48,1.6-.96,2.4-1.44Z"/>
          <path class="cls-12" d="m475.85,390.38c1.16-.11,2.31-.23,3.47-.34-1.16.11-2.31.23-3.47.34Z"/>
          <path class="cls-13" d="m427.91,390.86c1.16-.11,2.32-.22,3.48-.33-1.16.11-2.32.22-3.48.33Z"/>
          <path class="cls-48" d="m569.27,281.12c.05-.49.1-.99.15-1.48.11.99.23,1.98.34,2.97-.12-.05-.24-.11-.36-.17-.04-.44-.09-.88-.13-1.32Z"/>
          <path d="m344.09,375.55c-.1.14-.23.22-.4.23-1.15-1.25-2.51-1.52-3.96-.81-.77.38-1.56.74-2.34,1.1,0-7.47,0-14.95-.02-22.42-.01-6.6-.04-13.2-.05-19.8.02-9.29.05-18.59.06-27.88,0-3.65-.05-7.31-.07-10.96.02-1.12.05-2.23.05-3.35.03-15.15.06-30.29.08-45.44,17.03-.67,34.2-.18,51.24-.04,1.35,1.48,1.72,1.61,2.58.9,1.07-.89.92-1.52-.68-2.88,0-5.65,0-11.29-.01-16.94-.01-8.59-.03-17.18-.04-25.77.04-4.47.07-8.93.11-13.4.59-.09,1.18-.19,1.77-.28.26-4.99-2.13-4.03-6.47-4.03-5.1,0-10.21,0-15.31,0h-33.17c-.29-10.67-.08-21.36-.08-32.03,0-10.36,1.27-21.68-.46-31.9-9.52-1.11-19.51-.33-29.1-.33-10.12,0-20.24-.03-30.37.06-.15.74-.44,1.47-.44,2.21-.02,55.24-.02,110.48,0,165.73,0,.76.25,1.51.39,2.27-.12.29-.24.59-.36.88-.47,31.63.69,63.31-.12,94.94-28.04.99-56.69.94-84.74,0,0-18.84-.02-37.67-.03-56.51-.07-3.35,5.4-17.32-.39-18.23-.05-1.27-.11-2.53-.16-3.8,0-4.18,0-8.37,0-12.55,0-.15.05-.3.12-.43,2.35.18,1.9-1.47,2.24-2.88-.44-.61-.9-1.21-1.37-1.8-.76-.59-.57-1.15.58-1.68.13-1.75,1.26-4.42,1.73-6.3,1.83-7.25,4.18-13.58,8.55-19.6,2.94-4.04,6.88-5.68,10.99-8.63,3.1-2.23,5.86-3.19,9.5-4.32,2.66-.82,9.14-.89,10.4-3.62l2.41-.49c2.68-.04,5.36-.09,8.05-.13,1.94-8.3.53-18.35.49-26.84.04-9.41.08-18.81.09-28.22,0-.64-.32-1.27-.5-1.91-2.53.01-5.05.02-7.58.03-1.31-.03-2.61-.06-3.92-.08-.09-.6-.17-1.19-.26-1.79h-3.89c-.06.81-.11,1.5-.16,2.19-.31.03-.63.06-.94.09-.31-.61-.62-1.22-1.07-2.09-6.89,1-13.6,2.62-19.95,3.51-4.44.62-14.87,2.62-14.94,8.15l-.04.02c-7.01-1.33-13.1,4.54-18.55,8.36-3.04,2.13-9.25,5.5-7.79,9.81-.97.98-1.95,1.95-2.92,2.93-3.38-.19-5.24.31-6.01,3.68-3.44.31-7.63,9-9.21,11.54-2.81,4.53-5.21,9.1-7.3,13.93-4.05,9.4-6.2,19-7.26,29.25.88.47,1.49.8,2.1,1.12,0,0,0-.02,0-.02-2.62.1-2.87.59-2.28,4.07.72.69,1.23,1.18,1.74,1.68.14.46.27.92.41,1.38-.15.17-.3.34-.45.51-.75.06-1.5.12-2.33.18.29,3.67,1.85,5.37,1.92,9.01-.05,1.73-.1,3.45-.15,5.18-3.1.33-2.76,3.84-2.27,6.5.73,3.98,1.92,6.61,1.9,10.95-.02,3.41-5.59,16.94.38,17.56.05,2.38.11,4.77.16,7.15-.02,5.64-.06,11.28-.07,16.93,0,2.7.04,5.4.07,8.1-.06,4.3-.11,8.6-.17,12.9-2.24.23-2.26.24-2.3,2.37-.02.95,0,1.91,0,2.86-9.66.02-19.32.04-28.98.04-11.1,0-22.2-.03-33.29-.04-1.08-102.11-.03-204.28-.04-306.39.02-.96.03-1.92.05-2.88,2.12-.2,2.08-.2,2.36-2.1.67-4.53,2.93-8.36,5.34-12.14,2.14-3.37,5.48-5.43,8.59-7.58,2.12-1.47,5-1.96,7.61-2.57,1.91-.45,3.94-.53,5.91-.53,178.55-.02,357.09-.02,535.64-.02,1.15,37.74.08,75.67.08,113.42s1.12,75.69-.08,113.42c-20.02,0-40.05,0-60.07-.01-1.04,0-2.07-.03-3.11-.05-.76-7.02-2.13-13.8-4.28-20.53-1.14-3.57-2.77-13.17-7.23-13.95v-1.92c-.72-8.16-8.9-13.07-12.05-19.94-2.73-.6-4.21-5.14-6.27-6.95-2.28-2-4.53-3.68-6.76-5.76-3.75-3.49-15.54-13.64-20.92-10.5-.33-.14-.67-.28-1-.42.02-6.04-12.44-7.66-16.98-8.85-3.04-.8-16.92-5.82-17.54-1.2-.63-.06-1.26-.12-1.88-.18-.24-2.48-1-2.82-4.64-1.96-.05.5-.1,1.03-.15,1.56-1.47.03-2.93.06-4.4.09-1.75,0-3.49,0-5.24,0l.05-.12c-.45-4.94-4.74-.9-6.75-.42-8.6,0-17.21,0-25.82,0-.73-.52-.54-1.9-1.82-1.91-1.55-.01-3.16-.3-4.44.94-1.3.02-4.55-.18-3.82,2.23.37,1.24.33,1.6,1.85,1.61-.02,6.23-.04,12.47-.06,18.7-2.25.48-2.27.48-2.28,2.5-.02,3.16,0,6.33,0,9.49.16.96.32,1.92.48,2.88v6.71c-.77,2.84-2.09,9.2,1.84,9.59.06.95.12,1.89.18,2.84-4.55.4,2.61,8.2,4.7,2.42.8.03,1.6.06,2.4.08-.37,3.33,10.96,2.39,12.93,2.33,3.47-.1,5.74-1.55,9.14-1.92,3.88-.42,7.55.2,10.96,1.01,1.77.42,10.94,2.64,10.59-1.47.48,0,.96,0,1.44,0,.73,2.99,7.04,3.25,9.65,4.32,3.47,1.42,6.35,3.61,9.53,5.79,1.42.97,3.6,2.01,4.83,3.13,1.3,1.18.88,2.2,1.8,3.44,1.56,2.11,4.93,7.3,7.21,8.18-.13,2.99,1.03,5.53,1.96,8.14-33.89.87-68.21.89-102.09,0-.66-2.59-2.23-.26-2.41.66-.19.93.82,3.24.68,4.67-2.07,1.84-2.04,2.76-1.73,5.37-2.74,7.22-2.77,15.43-5.34,22.81-2.28,6.58-6.03,12.58-8.45,18.82-.88.9-1.63,1.86-1.44,3.24l-17.25.11c-2.11-4.07-2.73.35-2.86,1.55-.06.52.93,3.85.95,4.46.19,5.61,0,11.26,0,16.87-6.39,5.24-12.86,10.11-20.13,14.06-1.49,1.87-3.78,2.66-4.79,4.76Z"/>
          <path class="cls-81" d="m69.43,79.23c0,102.11-1.04,204.29.04,306.39,0,0-.2.02-.2.02,0,0-.2,0-.2,0-1.77-50.78-.11-101.91-.11-152.72,0-50.88.95-101.86-.06-152.73.04-.32.08-.64.13-.96.14,0,.27,0,.41,0Z"/>
          <path class="cls-77" d="m69.05,557.92c.13-.08.26-.09.39-.03,0,.13,0,.27,0,.4,0,18.36,0,36.71,0,55.07,0,.64.03,1.28.04,1.91-2.04-9.26-.52-20.24-.52-29.72,0-9.21-.18-18.43.08-27.64Z"/>
          <path d="m575.1,474.86c.48-.64.96-1.28,1.44-1.92.04,1.03-.2,1.85-1.44,1.92Z"/>
          <path class="cls-84" d="m476.36,332.83c-1.28.31-2.57.63-3.85.94-.37-.39-.73-.79-1.18-1.27-.46.49-.83.88-1.2,1.28-.77.05-1.53.09-2.3.14-.56-.23-1.14-.42-1.68-.68-1.3-.63-1.88-.43-2.73,1.02-3.84.05-7.69.11-11.53.16,0,0,.04-.13.04-.13-1.5-3.01-5.29-.42-8.24-.39-15.47-.02-30.93-.03-46.4-.06-1.91,0-3.82-.05-5.74-.07.34-.31.67-.62,1.02-.92,1.11-.95,1.14-1.3.22-2.9.22-.61.44-1.21.67-1.82,1.75-3.73,3.67-7.38,5.2-11.2,4.9-12.23,6.98-25.03,7.26-38.16.88-.02,1.75-.05,2.63-.05,34.24,0,68.48,0,102.71,0,0,0,.17,0,.17,0,.14.45.29.9.43,1.35-1.39,1.73-1.37,2.05.17,3.38-1.07,2.06-1.01,2.34.62,2.94,0,2.08.02,4.16.02,6.23q-1.59,1.2-.5,3.07c-1.87,3.49-2.75,7.38-4.29,10.8-.99,2.19-3.07,4.69-2.31,7.21v.03c-1.42.19-2.4,1.03-3.19,2.13-.47.65-.75,1.37-.17,2.13-.16.18-.33.36-.49.54-3.18.06-4.79,1.71-4.72,4.85,0,0,0,0,0,0-1.39-.16-2.71-.15-3.41,1.39-2.77.53-5.58,3.08-8.31,4.14-1.64.64-8.92,1.59-8.94,3.93Z"/>
          <path d="m514.24,198.65c5.37-3.13,17.16,7.01,20.91,10.5,2.23,2.07,4.48,3.76,6.76,5.76,2.06,1.8,3.55,6.35,6.27,6.95,3.15,6.87,11.33,11.79,12.05,19.94-.29.61-.59,1.23-.88,1.84l-.11.1c-5.24-7.97-9.27-16.27-16.27-23-1.94-1.93-3.87-3.87-5.81-5.8-6.22-7-15.06-11.45-22.94-16.29Z"/>
          <path d="m560.24,243.72c4.45.77,6.09,10.37,7.23,13.95,2.15,6.73,3.52,13.51,4.28,20.53-.82.03-1.65.07-2.47.1-.13-.02-.26-.05-.39-.08-.19-1.27-.38-2.53-.57-3.8-.19-1.69-.31-3.4-.59-5.08-.15-.89-.56-1.73-.85-2.59-.32-1.12-.64-2.24-.95-3.36.51-1.57-.44-2.88-.89-4.22-1.3-3.91-2.86-7.74-4.31-11.6,0,0,0-.02,0-.02-.49-1.27-.98-2.54-1.47-3.8,0,0,.11-.1.11-.1.29.02.59.05.88.07Z"/>
          <path d="m478.73,188.17c.61-4.62,14.5.4,17.54,1.2,4.53,1.19,16.99,2.81,16.98,8.85-.65-.29-1.28-.62-1.94-.87-3.49-1.32-6.99-2.62-10.49-3.93-.63-.19-1.26-.37-1.89-.56-1.93-1.06-4.19-1.59-5.78-1.35-.31-.19-.63-.38-.94-.57-.17-.14-.33-.38-.52-.41-3.18-.52-6.37-1.01-9.55-1.51,0,0,0,0,0,0-1.12-.15-2.24-.29-3.36-.44l.05-.09c-.03-.11-.06-.22-.09-.32Z"/>
          <path class="cls-4" d="m426.52,244.19c1.45-2.91,7.69-.45,10.8-.48,3.9-.04,6.6-2.02,10.55-1.25,1.6.31,2.57,1.38,4.31,1.22,2.29-.22,3.5-1.62,6.05-1.35,1.52.16,2.52,1.44,4.24,1.57,2.09.16,3.43-2.34,5.19.17,2.43-1.2,2.49-1.19,3.44.56-.35.15-.69.3-1.04.45-10.67,0-21.35,0-32.02,0-2.11-.11-4.21-.23-6.32-.34-1.57-.05-3.14-.11-4.7-.16l-.49-.38Z"/>
          <path d="m508.96,278.19c-.93-2.61-2.09-5.15-1.96-8.14-2.28-.88-5.66-6.07-7.21-8.18-.92-1.24-.5-2.26-1.8-3.44-1.23-1.11-3.41-2.15-4.83-3.13-3.18-2.18-6.06-4.37-9.53-5.79-2.61-1.07-8.92-1.33-9.65-4.32.81-.01,1.61-.03,2.42-.04.74.02,1.48.05,2.22.07,2.75,1.01,5.49,2.01,8.24,3.02.32.16.64.31.96.47.21.2.41.39.62.59-.47,2.71,7.56,7.51,10.03,7.37.63.63,1.27,1.26,1.9,1.9.2,3.24,4.43,9.17,7.57,10.58.35.65.69,1.29,1.04,1.94-1.02,3.07-.14,5.56,2.36,6.7.05.17.1.33.14.5,0,0-.15-.04-.15-.04-.78-.01-1.56-.02-2.34-.03Z"/>
          <path class="cls-4" d="m500.81,193.43c3.5,1.31,6.99,2.61,10.49,3.93.66.25,1.29.58,1.94.87.33.14.67.28,1,.42,7.87,4.84,16.71,9.29,22.94,16.29-4.29-.01-6.52-3.67-9.88-6.04-2.89-2.03-5.93-4.35-9-6.08-2.77-1.56-5.7-3.1-8.42-4.63-2.91-1.63-7.6-1.14-9.05-4.77Z"/>
          <path class="cls-4" d="m559.25,243.74c.49,1.27.98,2.54,1.47,3.8-3,.66-7.89-11.35-9.62-13.86-2.67-3.87-8.1-8.27-8.11-12.94,7,6.72,11.02,15.03,16.27,23Z"/>
          <path class="cls-4" d="m426.11,472.96c-.05,4.15-.1,8.3-.15,12.44-.13,0-.27.01-.4.01-.85-3.05-4.32-27.83.39-27.34.02,4.1.04,8.19.07,12.29,0,.86.06,1.73.09,2.59Z"/>
          <path class="cls-4" d="m501.74,318.53c.16-.18.33-.36.49-.54,1.11-1.42,2.23-2.84,3.34-4.26,0,0,.01-.03.01-.03.95-1.45,1.91-2.89,2.86-4.34,3.43,3.63-14.34,23.82-19.15,19.73.58-.41,1.15-.82,1.73-1.24,1.65-1.19,3.3-2.39,4.94-3.58.35-.3.71-.6,1.06-.9,0,0,0,0,0,0,1.57-1.62,3.15-3.24,4.72-4.85Z"/>
          <path class="cls-53" d="m508.96,278.19c.78.01,1.56.02,2.34.03,0,.17-.01.33-.02.5-34.24,0-68.48,0-102.71,0-.88,0-1.75.03-2.63.05.31-.2.62-.39.93-.59,33.89.89,68.21.87,102.09,0Z"/>
          <path class="cls-2" d="m495.97,324.28c-1.65,1.19-3.29,2.39-4.94,3.58-.57.41-1.15.82-1.73,1.24-2.03.82-4.01,1.81-6.1,2.41-2.22.64-4.56.9-6.84,1.33.02-2.34,7.3-3.29,8.94-3.93,2.73-1.07,5.54-3.61,8.31-4.14l2.35-.48Z"/>
          <path class="cls-2" d="m508.46,309.37c-.95,1.45-1.91,2.89-2.86,4.34-.76-2.52,1.32-5.02,2.31-7.21,1.54-3.42,2.42-7.31,4.29-10.8q-1.09-1.87.5-3.07c.06.34.12.69.18,1.03-.27,5.21-1.94,10.04-4.02,14.76-.13.32-.26.63-.39.95Z"/>
          <path class="cls-71" d="m369.39,413.95c.09-18.2.78-36.57-.01-54.75.01-.14.06-.27.15-.39.14,0,.27-.01.41-.03,0,20.02.01,40.05,0,60.07,0,.6-.24,1.21-.37,1.81-.06-2.24-.12-4.48-.18-6.72Z"/>
          <path class="cls-20" d="m425.56,485.41c.13,0,.27,0,.4-.01,1.12,19.27,1.04,39.7-.03,58.97-.13,0-.26-.01-.39-.06,0-19.63.02-39.27.02-58.9Z"/>
          <path class="cls-52" d="m422.89,188.14c-.89,9.31-.2,18.97-.2,28.32,0,9.15-.54,18.49.1,27.62-.06.08-.13.15-.2.23-.15-.49-.3-.99-.44-1.48,0-1.76,0-3.52,0-5.29.02-6.05.05-12.1.06-18.15,0-3.1-.04-6.21-.06-9.31,0-6.87,0-13.74.01-20.6.18-.47.35-.93.53-1.4,0,0,.21.06.21.06Z"/>
          <path class="cls-39" d="m391.56,333.77c1.91.02,3.82.07,5.74.07,15.47.02,30.93.04,46.4.06.05.13.1.25.15.38-8.81.81-18.01.1-26.86.08-8.91-.02-17.98.46-26.87-.14.01-.11.03-.23.05-.34.15-.04.29-.09.43-.15l.96.03Z"/>
          <path class="cls-4" d="m560.72,247.56c1.46,3.86,3.01,7.69,4.31,11.6.44,1.33,1.4,2.65.89,4.22-3.31-1.93-4.44-10.27-6.04-13.75.26-.64.55-1.35.85-2.06Z"/>
          <path class="cls-4" d="m508.85,308.42c2.08-4.72,3.75-9.55,4.02-14.76.12-.05.24-.11.36-.17,2.28,3.64-.03,13.47-4.38,14.93Z"/>
          <path class="cls-4" d="m488.41,249.28c-.21-.2-.41-.39-.62-.59,1.26-3.07,6.21,2.18,7.49,3.16,1.96,1.51,3.56,1.79,3.1,4.42-.49-.39-.95-.82-1.46-1.17-2.83-1.95-5.66-3.88-8.5-5.82Z"/>
          <path class="cls-47" d="m462.56,188.03c-10.76.02-21.51.03-32.27.06-2.47,0-4.94.03-7.41.05,0,0-.21-.06-.21-.06.32-.16.65-.33.97-.49,2.06-.01,4.13-.03,6.19-.04,3.65.02,7.3.07,10.95.06,5,0,10-.04,15-.06,2.23,0,4.45.01,6.68.02,0,0-.05.12-.05.12.04.12.09.24.15.36Z"/>
          <path class="cls-4" d="m500.73,258.61c3.25,0,8.86,5.42,6.79,9.06l-6.79-9.06Z"/>
          <path class="cls-86" d="m500.73,258.61l6.79,9.06c.13.48.26.97.39,1.45-3.13-1.41-7.37-7.34-7.57-10.58.13.05.26.07.39.06Z"/>
          <path class="cls-86" d="m488.41,249.28c2.83,1.94,5.67,3.87,8.5,5.82.51.35.98.78,1.46,1.17,0,.13.02.26.06.38-2.46.14-10.49-4.66-10.03-7.37Z"/>
          <path class="cls-4" d="m486.84,248.23c-2.75-1.01-5.49-2.01-8.24-3.02,1.9-.17,8.8-1.26,8.24,3.02Z"/>
          <path class="cls-4" d="m482.13,189.03c3.19.5,6.37.99,9.55,1.51.19.03.34.27.52.41-3.15,1.18-6.15-.27-9.22-.51-.88-.07-.84-.78-.85-1.41Z"/>
          <path class="cls-66" d="m369.94,358.78c-.14.02-.27.03-.41.03,0-8.13.02-16.25.03-24.38,0,0,.22,0,.22,0l.22.04c-.02,8.1-.04,16.21-.06,24.31Z"/>
          <path class="cls-4" d="m566.87,266.73c.29.86.7,1.71.85,2.59.28,1.68.4,3.38.59,5.08-2.37-.37-3.31-7.42-1.44-7.67Z"/>
          <path class="cls-4" d="m511.88,280.08c-.14-.45-.29-.9-.43-1.35,3.05.85,2.23,2.82,3.14,5.28-.5.74-.93,1.37-1.36,2.01-.12-.06-.24-.12-.36-.17-.33-1.92-.66-3.85-.99-5.77Z"/>
          <path class="cls-79" d="m369.99,334.47l-.22-.04s-.22,0-.22,0c.45-.19.91-.38,1.36-.57,5.75-.04,11.5-.07,17.25-.11.16,0,.32,0,.48,0,.5.04,1.01.09,1.51.13-.02.11-.04.23-.05.34-5.75.05-11.5.1-17.25.16-.96,0-1.91.06-2.87.09Z"/>
          <path class="cls-86" d="m511.31,277.76c-2.51-1.14-3.38-3.63-2.36-6.7.1.04.2.05.3.05.41,1.25.82,2.51,1.23,3.76l.46.97c.12.64.24,1.28.37,1.92Z"/>
          <path class="cls-4" d="m493.14,191.52c1.6-.24,3.85.29,5.78,1.35-2.43,1.54-3.33,1.33-5.78-1.35Z"/>
          <path class="cls-2" d="m443.85,334.28c-.05-.13-.1-.26-.15-.38,2.95-.03,6.73-2.62,8.24.39-2.7,0-5.39,0-8.09,0Z"/>
          <path class="cls-4" d="m510.48,274.88c-.41-1.25-.82-2.51-1.23-3.76,1.07-.19,2,.12,2.38,1.13.42,1.12-.29,1.96-1.14,2.63Z"/>
          <path class="cls-43" d="m451.89,334.42c3.84-.05,7.69-.11,11.53-.16.18.06.36.11.53.17-3.26.98-8.83.94-12.07,0Z"/>
          <path class="cls-2" d="m463.96,334.42c-.18-.06-.36-.11-.53-.17.86-1.45,1.43-1.65,2.73-1.02.54.26,1.12.46,1.68.68-.06.12-.13.25-.19.37l-3.69.13Z"/>
          <path class="cls-4" d="m471.09,188.57c-.09.89-.48,1.51-1.47,1.33-.92-.17-1.53-.7-1.41-1.77.48,0,.96.02,1.44.03.48.14.96.27,1.44.41Z"/>
          <path class="cls-8" d="m512.87,285.85c.12.05.24.1.36.17,0,2.49,0,4.99,0,7.48-.12.06-.24.12-.36.17-.06-.34-.12-.69-.18-1.03,0-2.08-.02-4.16-.02-6.23.07-.18.14-.37.21-.55Z"/>
          <path class="cls-42" d="m476.38,245.14c-.81.01-1.61.03-2.42.04-.48,0-.96,0-1.44,0-.83-.03-1.65-.07-2.48-.1.35-.15.69-.3,1.04-.45,1.76.17,3.53.34,5.29.51Z"/>
          <path class="cls-47" d="m471.09,188.57c-.48-.14-.96-.27-1.44-.41.97-.05,1.94-.1,2.92-.15,1.07.05,2.13.1,3.2.15.05.13.11.25.18.37-1.62.01-3.24.02-4.85.04Z"/>
          <path class="cls-4" d="m479.72,189.05c-.98,1.39-1.51,1.31-2.4-.39.5-.05,1-.11,1.49-.16,0,0-.05.09-.05.09.32.15.64.31.95.46Z"/>
          <path class="cls-59" d="m462.56,188.03c-.06-.12-.11-.23-.15-.36,1.75,0,3.49,0,5.24,0,.05.11.09.22.14.33-1.74,0-3.49.01-5.23.02Z"/>
          <path class="cls-4" d="m511.31,277.76c-.12-.64-.24-1.28-.37-1.92,1.66.73,1.72,1.02.51,2.41-.05-.17-.1-.33-.14-.5Z"/>
          <path class="cls-1" d="m467.79,188.01c-.04-.11-.09-.22-.14-.33,1.47-.03,2.93-.06,4.4-.09.17.14.35.28.52.41-.97.05-1.94.1-2.92.15-.48,0-.96-.02-1.44-.03-.13-.09-.27-.13-.42-.12Z"/>
          <path class="cls-2" d="m470.13,333.78c.37-.4.74-.79,1.2-1.28.45.49.82.88,1.18,1.27-.45.05-.91.1-1.36.14-.34-.05-.68-.09-1.01-.14Z"/>
          <path class="cls-52" d="m426.52,244.19l.49.38c-.33.06-.67.12-1,.18-1.14-.15-2.28-.31-3.43-.46.07-.07.14-.15.2-.23,1.25.04,2.49.08,3.73.12Z"/>
          <path class="cls-47" d="m479.72,189.05c-.32-.15-.64-.31-.95-.46,1.12.15,2.24.29,3.36.44-.8,0-1.61.01-2.41.02Z"/>
          <path class="cls-72" d="m470.13,333.78c.34.05.68.09,1.01.14-1.17.12-2.33.25-3.5.37.06-.13.13-.25.19-.37.77-.05,1.53-.09,2.3-.14Z"/>
          <path class="cls-87" d="m478.82,188.5c-.5.05-1,.11-1.49.16-.46-.04-.92-.08-1.38-.12-.07-.12-.13-.25-.18-.37.36-.06.72-.11,1.08-.17.63.06,1.26.12,1.88.18.03.11.06.22.09.32Z"/>
          <path class="cls-4" d="m162.86,218.78c.97-.98,1.95-1.95,2.92-2.93,8.94-6.07,16.76-12.9,26.34-18.17,0,0,.04-.02.04-.02.37-.13.75-.23,1.1-.4,7-3.31,14.26-5.81,21.9-7.16-.66,3.21-11.46,5.09-14.49,6-5.75,1.73-11.64,5.13-16.71,8.47-4.35,2.87-9.14,5.84-12.89,9.36-2.63,2.46-7.38,9.19-10.94,9.85.05,1.95-1.6,3.4-2.73,4.85-2.57,3.3-5.09,6.76-7.34,10.29-3.09,4.86-5.04,13.51-9.72,16.77.51-6.72,6.21-14.77,9.79-20.35,3.79-5.9,8.28-11.18,12.74-16.56Z"/>
          <path d="m162.86,218.78c-4.46,5.38-8.95,10.67-12.74,16.56-3.58,5.58-9.28,13.63-9.79,20.35-.59,1.44-1.18,2.89-1.77,4.33-.17.8-.34,1.6-.51,2.4-.14.32-.28.64-.43.97-.65,3.83-1.31,7.67-1.96,11.5.01.16.03.33.04.49-.06.94-.13,1.88-.19,2.81-.11.05-.22.09-.34.12-.61-.33-1.22-.65-2.1-1.13,1.06-10.25,3.2-19.85,7.26-29.25,2.08-4.83,4.49-9.4,7.3-13.93,1.57-2.54,5.77-11.23,9.21-11.54.77-3.37,2.63-3.87,6.01-3.68Z"/>
          <path class="cls-46" d="m234.32,245.24c-1.26,2.73-7.74,2.79-10.4,3.62-3.64,1.13-6.4,2.09-9.5,4.32-4.11,2.95-8.06,4.59-10.99,8.63-4.37,6.02-6.73,12.35-8.55,19.6-.47,1.88-1.6,4.55-1.73,6.3-1.15.53-1.34,1.09-.58,1.68.47.59.93,1.19,1.37,1.8-.34,1.41.11,3.06-2.24,2.88-.04-1.13-.07-2.26-.11-3.4,0-1.11,0-2.21,0-3.32.03-.64.06-1.27.1-1.91,2.03-3.36,1.8-8.86,3.23-12.72,1.74-4.7,4.43-8.57,7.19-12.72,1.31-1.31,2.61-2.62,3.92-3.92,3.26-2.18,6.51-4.37,9.77-6.55,2.11-.84,4.23-1.68,6.34-2.53,3.43-1.39,7.01-1.93,10.7-1.88.49.04.99.08,1.48.12Z"/>
          <path d="m215.15,190.1c-7.64,1.35-14.9,3.85-21.9,7.16-.35.17-.73.27-1.1.4.07-5.53,10.49-7.52,14.94-8.15,6.34-.89,13.06-2.5,19.95-3.51.44.87.76,1.48,1.07,2.09-.17.17-.33.34-.5.51-1.11.02-2.22.05-3.34.07-3.04.48-6.08.95-9.12,1.43Z"/>
          <path class="cls-4" d="m202.12,260.01c-2.75,4.14-5.45,8.02-7.19,12.72-1.43,3.86-1.2,9.36-3.23,12.72-3.61-3.56,5-27.25,10.42-25.44Z"/>
          <path class="cls-4" d="m191.58,369.84c-5.14.4-1.36-12.51-.4-14.88.13,0,.26.02.39.02,0,4.95,0,9.9,0,14.86Z"/>
          <path class="cls-70" d="m191.58,369.84c0-4.95,0-9.9,0-14.86,0-7.67,0-15.34,0-23.01.06-.97.12-1.94.18-2.91.13,0,.25.02.38.03,0,18.84.02,37.68.03,56.51-.01.15-.02.3-.01.45-.13.04-.26.07-.39.08-.03-4.55-.05-9.11-.09-13.66,0-.88-.05-1.75-.08-2.63Z"/>
          <path class="cls-4" d="m215.8,249.53c-3.26,2.18-6.51,4.37-9.77,6.55-.92-3.02,7-7.7,9.77-6.55Z"/>
          <path class="cls-4" d="m135.66,274.89c.65-3.83,1.31-7.67,1.96-11.5.13.32.26.63.39.95.15,1.12.3,2.24.45,3.36-1.76,2.61.79,6.39-2.8,7.19Z"/>
          <path class="cls-67" d="m244.86,187.65c.17.64.5,1.27.5,1.91,0,9.41-.05,18.81-.09,28.22-.11.02-.21.05-.32.07-.03-2.69-.09-5.39-.09-8.08-.01-7.22,0-14.43,0-21.65.04-.15.04-.31,0-.46Z"/>
          <path class="cls-4" d="m191.56,432.15c-.12.02-.25.03-.37.05-.07-1.51-4.29-9.51.39-9.13,0,3.03-.01,6.06-.02,9.08Z"/>
          <path d="m134.19,295.12c-.07-3.64-1.63-5.34-1.92-9.01.83-.06,1.58-.12,2.33-.18,0,0,.11-.05.11-.05,0,1.31-.01,2.61-.02,3.92-.01,1.59-.02,3.17-.03,4.76-.09.13-.13.27-.12.42-.12.04-.24.09-.35.15Z"/>
          <path class="cls-21" d="m134.55,302.63c.16,9.46.33,18.97,0,28.42-.11-.04-.22-.06-.33-.09,0-9.41,0-18.81,0-28.22.11-.03.22-.07.32-.11Z"/>
          <path class="cls-63" d="m244.94,217.84c.11-.02.22-.04.32-.07.05,8.49,1.45,18.54-.49,26.84.04-7.89.07-15.78.11-23.67,0-1.04.03-2.07.05-3.11Z"/>
          <path class="cls-64" d="m134.22,367.49c-.02-2.7-.07-5.4-.07-8.1,0-5.64.04-11.28.07-16.93.11.03.22.06.32.08,0,8.29,0,16.58,0,24.86-.11.02-.22.05-.32.08Z"/>
          <path class="cls-17" d="m191.57,331.98c0,7.67,0,15.34,0,23.01-.13,0-.26-.01-.39-.02.01-7.68.03-15.37.04-23.05.11.03.23.05.35.07Z"/>
          <path d="m229.05,188.01c.05-.69.1-1.38.16-2.19h3.89c.09.59.17,1.19.26,1.79-.17.14-.35.27-.52.41-1.1.06-2.19.13-3.29.19-.17-.07-.33-.13-.5-.2Z"/>
          <path class="cls-85" d="m191.57,331.98c-.12-.02-.23-.04-.35-.07.01-6.23.02-12.47.03-18.7.11.03.21.05.32.07.06,5.26.11,10.52.17,15.78-.06.97-.12,1.94-.18,2.91Z"/>
          <path class="cls-15" d="m134.22,367.49c.11-.03.21-.06.32-.08.01,5.03.02,10.06.04,15.08,0,1.04,0,2.08,0,3.11-.11.03-.22.06-.33.09,0,0-.23-.03-.23-.03,0-1.76.02-3.51.03-5.27.06-4.3.11-8.6.17-12.9Z"/>
          <path class="cls-5" d="m191.58,294.5c0,4.18,0,8.37,0,12.55-.11-.03-.22-.05-.32-.07,0-4.13,0-8.26,0-12.39.11-.03.22-.06.32-.09Z"/>
          <path class="cls-4" d="m134.66,294.55c.01-1.59.02-3.17.03-4.76.13-.02.26-.05.38-.11.29.71.49,1.47.89,2.11.9,1.46.58,2.21-1.3,2.76Z"/>
          <path class="cls-14" d="m134.54,342.54c-.11-.02-.22-.05-.32-.08-.05-2.38-.11-4.77-.16-7.15.06-1.45.11-2.9.17-4.35.11.02.22.05.33.09,0,3.83,0,7.66,0,11.49Z"/>
          <path class="cls-4" d="m191.6,287.35c0,1.11,0,2.21,0,3.32-.13.03-.25.08-.37.13-.96-1.33-2.57-2.81.38-3.45Z"/>
          <path class="cls-4" d="m135.05,285.42c-.14-.46-.27-.92-.41-1.38.18-.95.36-1.9.55-2.86.13-.03.25-.08.36-.14.11.45.15.94.36,1.34.97,1.83.95,1.95-.86,3.04Z"/>
          <path class="cls-4" d="m135.52,278.19c.06-.94.13-1.88.19-2.81.15.18.3.36.44.55,1.31,1.64,1.26,2.01-.47,3.28-.06-.34-.11-.67-.17-1.01Z"/>
          <path class="cls-40" d="m244.86,187.65c.04.15.04.3,0,.46-2.57-.03-5.15-.06-7.72-.09.05-.11.1-.22.15-.33,2.53-.01,5.05-.02,7.58-.03Z"/>
          <path class="cls-78" d="m134.55,302.63c-.11.04-.21.08-.32.11-.06-.81-.12-1.63-.18-2.44.05-1.73.1-3.45.15-5.18.11-.06.23-.12.35-.15,0,2.55,0,5.11,0,7.66Z"/>
          <path class="cls-4" d="m138.05,262.42c.17-.8.34-1.6.51-2.4.89.13,1.51.59,1.21,1.53-.23.72-.72,1.44-1.72.87Z"/>
          <path class="cls-57" d="m191.27,306.98c.11.02.22.04.32.07.05,1.27.11,2.53.16,3.8l-.17,2.42c-.11-.02-.22-.04-.32-.07,0-2.07,0-4.15,0-6.22Z"/>
          <path class="cls-47" d="m229.54,188.2c1.1-.06,2.19-.13,3.29-.19.65.05,1.31.11,1.96.16-1.75.64-3.5.6-5.26.03Z"/>
          <path class="cls-36" d="m234.8,188.17c-.65-.05-1.31-.11-1.96-.16.17-.14.35-.27.52-.41,1.31.03,2.61.06,3.92.08-.05.11-.1.22-.15.33-.78.05-1.56.1-2.33.15Z"/>
          <path class="cls-4" d="m138.46,267.69c-.15-1.12-.3-2.24-.45-3.36,1.15.9,1.23,1.52.45,3.36Z"/>
          <path class="cls-16" d="m191.22,290.8c.12-.06.24-.1.37-.13.04,1.13.07,2.26.11,3.4-.08.13-.12.28-.12.43-.11.03-.22.06-.32.09l-.04-3.79Z"/>
          <path class="cls-68" d="m135.08,289.69c-.12.05-.25.09-.38.11,0-1.31.01-2.61.02-3.92.12,1.27.24,2.54.36,3.81Z"/>
          <path class="cls-37" d="m234.32,245.24c-.49-.04-.99-.08-1.48-.12,1.3-.13,2.6-.25,3.9-.38-.8.16-1.61.33-2.41.49Z"/>
          <path class="cls-47" d="m224.27,188.68c1.11-.02,2.22-.05,3.34-.07-1.1.7-2.21.61-3.34.07Z"/>
          <path class="cls-75" d="m135.52,278.19c.06.34.11.67.17,1.01-.04.61-.09,1.23-.13,1.84-.11.07-.24.11-.36.14,0-.96,0-1.93,0-2.89,0,0,0,.02,0,.02.12-.03.23-.07.34-.12Z"/>
          <path class="cls-84" d="m572.75,473.55c-.01-.08-.02-.16-.04-.24-.56-2.41-.37-2.65,2.21-2.77-.73,1-1.45,2.01-2.18,3.01Z"/>
          <path class="cls-44" d="m276.9,385.6c.81-31.63-.35-63.3.12-94.94,2.39,14.8.43,31.38.43,46.38,0,16.29.53,32.69-.1,48.97h-.19s-.19-.02-.19-.02c-.02-.13-.05-.27-.07-.4Z"/>
          <path class="cls-4" d="m277.35,386.01c.63-16.28.1-32.68.1-48.97,0-15.01,1.96-31.58-.43-46.38.12-.29.24-.59.36-.88,1.45-55.92-1.4-111.95.15-167.87,10.28-.27,20.55.25,30.84-.39,9.45-.59,18.95-.41,28.43-.57.03.96.08,1.91.08,2.87.02,20.76.03,41.52.04,62.28.89.18,1.77.53,2.66.53,16.81.03,33.62.03,50.43.03.03.86.07,1.73.08,2.59.03,4.09.06,8.18.08,12.28-.02,1.84-.06,3.67-.07,5.51-.04,7.75-.07,15.5-.1,23.25-2.02.48-2.29.72-2.3,2.62-.03,4.22-.01,8.43-.01,12.65-16.73.51-33.64-.92-50.33.26-1.48,7.87-.47,16.75-.48,24.76,0,8.14-.27,16.33.08,24.46-.03,10.25-.07,20.5-.08,30.75,0,2.7.05,5.4.08,8.1-1.03,14.38-1.18,30.36,0,44.73-.03,7.4-.05,14.8-.09,22.2-.01,2.31-.05,4.61-.08,6.92-4.33-.26-2.2,33.82-1.84,38.32-8.22.02-16.43.05-24.65.04-10.93,0-21.86-.03-32.79-.05-.52-19.99.54-40.03-.18-60.02Z"/>
          <path class="cls-4" d="m334.97,446.04c-.36-4.5-2.49-38.58,1.84-38.32.02,5.19.07,10.38.07,15.57,0,7.58-.05,15.17-.08,22.75-.61,0-1.22,0-1.82,0Z"/>
          <path class="cls-33" d="m336.98,378.61c-1.19-14.37-1.04-30.35,0-44.73.11,0,.23-.02.34-.03.02,6.6.04,13.2.06,19.8.01,7.47.01,14.95.02,22.42,0,.79-.02,1.58-.03,2.37-.11.1-.24.16-.38.17Z"/>
          <path d="m134.05,380.39c0,1.76-.02,3.51-.03,5.27-.76-.01-1.51-.03-2.27-.04,0-.95-.01-1.91,0-2.86.04-2.13.05-2.14,2.3-2.37Z"/>
          <path d="m337.45,183.77h33.17c5.1,0,10.21,0,15.31,0,4.34,0,6.73-.95,6.47,4.03-.59.09-1.18.19-1.77.28-.2-.63-.4-1.25-.6-1.88-15.23-.01-30.46-.03-45.69-.05-2.31,0-4.62-.04-6.93-.07.01-.77.02-1.55.04-2.32Z"/>
          <path d="m406.86,278.19c-.31.2-.62.39-.93.59-.28,13.13-2.36,25.93-7.26,38.16-1.53,3.82-3.46,7.47-5.2,11.2-1.53.39-3.02.85-3.85,2.38,2.42-6.25,6.17-12.25,8.45-18.82,2.56-7.38,2.6-15.59,5.34-22.81-.31-2.6-.34-3.53,1.73-5.37.14-1.43-.86-3.73-.68-4.67.18-.92,1.75-3.25,2.41-.66Z"/>
          <path d="m192.11,197.68c-9.58,5.26-17.39,12.1-26.34,18.17-1.46-4.31,4.75-7.68,7.79-9.81,5.45-3.82,11.54-9.69,18.55-8.36Z"/>
          <path class="cls-44" d="m277.54,121.91c-1.56,55.92,1.3,111.95-.15,167.87-.13-.76-.39-1.51-.39-2.27-.02-55.24-.02-110.48,0-165.73,0-.74.29-1.47.44-2.21.02.16.03.31.03.47.02.62.04,1.24.06,1.86Z"/>
          <path d="m470.05,245.08c.83.03,1.65.07,2.48.1.36,4.11-8.82,1.89-10.59,1.47-3.41-.81-7.08-1.43-10.96-1.01-3.4.36-5.67,1.81-9.14,1.92-1.97.06-13.31,1-12.93-2.33.98-.05,1.97-.1,2.95-.15,2.06,0,4.11,0,6.17,0,10.67,0,21.35,0,32.02,0Z"/>
          <path d="m419.33,220.7c0-3.16-.01-6.33,0-9.49.01-2.02.04-2.02,2.28-2.5.06.49.13.98.19,1.47,0,9.09,0,18.18,0,27.27-.05.81-.11,1.62-.16,2.42-3.93-.39-2.61-6.76-1.84-9.59,1.6-2.24,1.27-4.48,0-6.71-.16-.96-.32-1.92-.48-2.88Z"/>
          <path d="m134.04,300.3c.06.81.12,1.63.18,2.44,0,9.41,0,18.81,0,28.22-.06,1.45-.11,2.9-.17,4.35-5.97-.62-.39-14.15-.38-17.56.02-4.33-1.17-6.97-1.9-10.95-.49-2.67-.83-6.18,2.27-6.5Z"/>
          <path class="cls-46" d="m191.58,313.28l.17-2.42c5.79.91.31,14.89.39,18.23-.13,0-.26-.02-.38-.03-.06-5.26-.11-10.52-.17-15.78Z"/>
          <path class="cls-51" d="m337.45,183.77c-.01.77-.02,1.55-.04,2.32-.16,0-.33,0-.49,0-.01-20.76-.02-41.52-.04-62.28,0-.96-.05-1.91-.08-2.87l.04-.88c0-.09.01-.16.06-.24,1.73,10.22.46,21.53.46,31.9,0,10.67-.21,21.37.08,32.03Z"/>
          <path class="cls-54" d="m277.47,120.04c0-.16,0-.32-.03-.47,10.12-.1,20.24-.06,30.37-.06,9.58,0,19.58-.78,29.1.33-.05.07-.07.15-.06.24-7.9-.03-15.8-.07-23.7-.07-11.89,0-23.78.03-35.67.04Z"/>
          <path class="cls-49" d="m337.37,245.82c16.69-1.19,33.6.25,50.33-.26.77.01,1.55.03,2.32.04h.13s.12.04.12.04c-.21.18-.41.37-.62.55-.32,0-.64,0-.97,0-17.04-.14-34.21-.63-51.24.04-.03-.14-.05-.27-.07-.41Z"/>
          <path class="cls-74" d="m337.37,245.82c.02.14.04.27.07.41-.03,15.15-.05,30.29-.08,45.44,0,1.12-.03,2.23-.05,3.35-.11.01-.22.02-.33.03-.35-8.13-.08-16.32-.08-24.46,0-8.01-1.01-16.89.48-24.76Z"/>
          <path class="cls-88" d="m390,230.29c.03-7.75.06-15.5.1-23.25,0-1.84.05-3.67.07-5.51.12,0,.23-.02.35-.04.01,8.59.03,17.18.04,25.77,0,5.65,0,11.29.01,16.94,0,.32,0,.64,0,.96-.1.16-.21.32-.31.48,0,0-.12-.05-.12-.05,0,0-.13,0-.13,0,0-5.1,0-10.2-.01-15.31Z"/>
          <path class="cls-55" d="m336.97,295.04c.11,0,.22-.02.33-.03.03,3.65.08,7.31.07,10.96,0,9.29-.04,18.59-.06,27.88-.11.01-.23.02-.34.03-.03-2.7-.09-5.4-.08-8.1.02-10.25.05-20.5.08-30.75Z"/>
          <path d="m422.58,244.3c1.14.15,2.28.31,3.43.46.17.13.34.26.51.39-2.09,5.77-9.25-2.02-4.7-2.42.11.03.21.06.32.1.15.49.3.99.44,1.48Z"/>
          <path d="m462.47,187.56c-2.23,0-4.45-.01-6.68-.02-.02-.13-.05-.26-.07-.4,2.01-.48,6.29-4.52,6.75.42Z"/>
          <path d="m429.84,187.54c-2.06.01-4.13.03-6.19.04,0-.47,0-.94,0-1.41,1.29-1.24,2.89-.95,4.44-.94,1.28.01,1.09,1.39,1.82,1.91-.02.13-.05.26-.07.4Z"/>
          <path class="cls-50" d="m429.84,187.54c.02-.13.05-.26.07-.4,8.61,0,17.21,0,25.82,0,.02.13.05.26.07.4-5,.02-10,.06-15,.06-3.65,0-7.3-.04-10.95-.06Z"/>
          <path d="m135.18,278.29c0,.96,0,1.93,0,2.89-.18.95-.36,1.9-.55,2.86-.51-.49-1.02-.99-1.74-1.68-.6-3.48-.35-3.97,2.28-4.07Z"/>
          <path d="m476.84,187.99c-.36.06-.72.11-1.08.17-1.07-.05-2.13-.1-3.2-.15-.17-.14-.35-.28-.52-.41.05-.53.1-1.06.15-1.56,3.64-.86,4.4-.53,4.64,1.96Z"/>
          <path d="m423.64,186.17c0,.47,0,.94,0,1.41-.32.16-.65.33-.97.49-.18.47-.35.93-.53,1.4-.16.18-.31.35-.47.53-1.52,0-1.48-.37-1.85-1.61-.73-2.41,2.53-2.21,3.82-2.23Z"/>
          <path class="cls-76" d="m421.67,190c.16-.18.31-.35.47-.53,0,6.87,0,13.74-.01,20.6-.11.04-.22.07-.33.1-.06-.49-.13-.98-.19-1.47.02-6.23.04-12.47.06-18.7Z"/>
          <path class="cls-61" d="m390.52,201.49c-.12.02-.23.03-.35.04-.03-4.09-.05-8.18-.08-12.28,0-.86-.05-1.73-.08-2.59.08-.15.08-.3.02-.45.2.63.4,1.25.6,1.88-.04,4.47-.07,8.93-.11,13.4Z"/>
          <path d="m419.81,223.57c1.27,2.24,1.6,4.48,0,6.71v-6.71Z"/>
          <path d="m390.57,245.16c0-.32,0-.64,0-.96,1.6,1.36,1.75,1.99.68,2.88-.86.72-1.24.59-2.58-.9.32,0,.64,0,.97,0,.39.04.79.09,1.18.13-.08-.39-.16-.78-.25-1.16Z"/>
          <path class="cls-32" d="m426.52,245.14c-.17-.13-.34-.26-.51-.39.33-.06.67-.12,1-.18,1.57.05,3.14.11,4.7.16.05.11.1.22.15.34-.98.05-1.97.1-2.95.15-.8-.03-1.6-.06-2.4-.08Z"/>
          <path class="cls-23" d="m422.14,242.82c-.1-.04-.21-.07-.32-.1-.06-.95-.12-1.89-.18-2.84.05-.81.11-1.62.16-2.42.11.02.22.05.33.08,0,1.76,0,3.52,0,5.29Z"/>
          <path d="m388.65,333.76c-.16,0-.32,0-.48,0-.19-1.38.56-2.34,1.44-3.24-.32,1.08-.64,2.16-.96,3.24Z"/>
          <path d="m560.24,243.72c-.29-.02-.59-.05-.88-.07.29-.62.59-1.23.88-1.84v1.92Z"/>
          <path d="m419.33,220.7c.16.96.32,1.92.48,2.88-.16-.96-.32-1.92-.48-2.88Z"/>
          <path class="cls-24" d="m388.65,333.76c.32-1.08.64-2.16.96-3.24.83-1.53,2.32-1.99,3.85-2.38-.22.61-.44,1.21-.67,1.82-.73,1.26-1.47,2.53-2.2,3.79-.14.06-.29.1-.43.15-.5-.04-1.01-.09-1.51-.13Z"/>
          <path class="cls-2" d="m501.74,318.53c-1.57,1.62-3.15,3.24-4.72,4.85-.07-3.15,1.53-4.8,4.72-4.85Z"/>
          <path class="cls-2" d="m512.87,285.85c-.07.18-.14.37-.21.55-1.63-.6-1.68-.88-.62-2.94-1.54-1.33-1.56-1.65-.17-3.38.33,1.92.66,3.85.99,5.77Z"/>
          <path class="cls-2" d="m505.58,313.73c-1.11,1.42-2.23,2.84-3.34,4.26-.58-.76-.3-1.47.17-2.13.78-1.1,1.77-1.94,3.17-2.13Z"/>
          <path class="cls-2" d="m390.6,333.74c.73-1.26,1.47-2.52,2.2-3.79.92,1.6.89,1.95-.22,2.9-.35.3-.68.61-1.02.92-.32-.01-.64-.02-.96-.03Z"/>
          <path class="cls-2" d="m495.97,324.28l-2.35.48c.7-1.54,2.02-1.54,3.41-1.39-.35.3-.71.6-1.06.9Z"/>
          <path class="cls-6" d="m431.86,245.07c-.05-.11-.1-.22-.15-.34,2.11.11,4.21.23,6.32.34-2.06,0-4.11,0-6.17,0Z"/>
          <path class="cls-11" d="m422.14,237.53c-.11-.03-.22-.06-.33-.08,0-9.09,0-18.18,0-27.27.11-.03.22-.06.33-.1.02,3.1.07,6.21.06,9.31,0,6.05-.04,12.1-.06,18.15Z"/>
          <path class="cls-4" d="m277.47,120.04c11.89-.02,23.78-.04,35.67-.04,7.9,0,15.8.05,23.7.07l-.04.88c-9.48.16-18.98-.02-28.43.57-10.29.64-20.56.12-30.84.39-.02-.62-.04-1.24-.06-1.86Z"/>
          <path class="cls-4" d="m390,230.29c0,5.1,0,10.2.01,15.31-.77-.01-1.55-.03-2.32-.04,0-4.22-.02-8.43.01-12.65.01-1.89.28-2.14,2.3-2.62Z"/>
          <path class="cls-62" d="m390.03,186.21c.06.15.05.3-.02.45-16.81,0-33.62,0-50.43-.03-.89,0-1.77-.34-2.66-.53.16,0,.33,0,.49,0,2.31.02,4.62.06,6.93.07,15.23.02,30.46.03,45.69.05Z"/>
          <path d="m390.57,245.16c.08.39.16.78.25,1.16-.39-.04-.79-.09-1.18-.13.21-.18.41-.37.62-.55.1-.16.21-.32.31-.48Z"/>
        </g>
        <rect class="cls-84" x=".6" y="384.8" width="69.31" height="175.67"/>
        <rect class="cls-84" x="634.56" y="277.24" width="44.81" height="109.94"/>
      </g>
    </g>
  </g>
</svg>